<?xml version="1.0" standalone="no"?>
<!DOCTYPE svg PUBLIC "-//W3C//DTD SVG 1.1//EN" "http://www.w3.org/Graphics/SVG/1.1/DTD/svg11.dtd" >
<svg xmlns="http://www.w3.org/2000/svg" xmlns:xlink="http://www.w3.org/1999/xlink" version="1.1">
<metadata></metadata>
<defs>
<font id="lillybelleregular" horiz-adv-x="1148" >
<font-face units-per-em="2048" ascent="1638" descent="-410" />
<missing-glyph horiz-adv-x="710" />
<glyph horiz-adv-x="0" />
<glyph unicode="&#xd;" horiz-adv-x="0" />
<glyph horiz-adv-x="0" />
<glyph horiz-adv-x="0" />
<glyph unicode=" "  horiz-adv-x="710" />
<glyph unicode="&#x09;" horiz-adv-x="710" />
<glyph unicode="&#xa0;" horiz-adv-x="710" />
<glyph unicode="!" horiz-adv-x="446" d="M34 60q0 4 2 8q4 58 72 86t126 30h4q36 0 72 -30q36 -32 36 -66q0 -2 -2 -6q-4 -48 -42 -94q-40 -48 -90 -50h-6q-52 0 -112 36q-58 36 -60 86zM62 588q54 216 74 504t-18 660q26 74 96 74q8 0 18 -2q84 -10 130 -132q28 -134 34 -268q4 -62 4 -124q0 -68 -4 -132 q-12 -228 -44 -394q-30 -166 -12 -206q-14 -44 -88 -60q-26 -6 -48 -6q-46 0 -84 20q-20 12 -34 28q-16 16 -24 38z" />
<glyph unicode="&#x22;" horiz-adv-x="646" d="M24 1890q36 22 92 22q16 2 32 0q78 -8 140 -94q-2 -104 -28 -184q-24 -80 -66 -148q-22 -28 -48 -36q-10 -2 -22 -2h-2q-38 0 -56 52q-12 28 -14 68q-4 38 -4 80q2 80 2 152q2 72 -26 90zM338 1844q32 86 118 94h16q76 0 132 -76q-4 -106 -24 -202t-62 -164 q-22 -28 -48 -28q-10 0 -22 4q-36 18 -56 40q-12 28 -14 60q-4 34 -4 68q0 66 -2 124q0 58 -34 80z" />
<glyph unicode="#" horiz-adv-x="1636" d="M62 616v14q12 56 64 84q158 16 308 26q14 116 18 240q-112 -4 -212 -6q-56 10 -62 72v16q0 50 30 68q72 -8 168 -8h80q-2 118 -12 236q-12 140 -42 272q22 70 76 70q16 0 36 -6q82 -28 128 -158q44 -208 54 -402q162 12 342 38l30 4q48 246 72 462q14 76 86 112 q40 18 74 18q28 0 52 -14q16 -10 30 -28q12 -18 16 -46q-46 -34 -66 -218q-12 -114 -22 -246q94 20 184 42q26 -4 38 -16q14 -12 16 -28q2 -6 2 -12q0 -32 -28 -70q-34 -44 -64 -58q-78 -6 -154 -14v-14q-4 -156 -4 -310q80 -4 162 -8q72 -10 102 -82q16 -36 16 -68 q0 -30 -14 -56q-10 -18 -28 -32q-16 -14 -42 -18q-34 40 -196 56q-2 -86 -2 -156q0 -68 -2 -116t-8 -66q-6 -26 -24 -52q-20 -26 -46 -50q-50 -44 -114 -70q-38 -16 -72 -16q-18 0 -36 6q-18 4 -30 18q-14 14 -20 34q-4 60 -4 120q0 84 6 168q6 102 18 202q-26 2 -50 2h-262 q-32 -170 -80 -312q-6 -16 -18 -30q-16 -20 -48 -34q-30 -14 -58 -14q-22 0 -42 8q-20 6 -36 24q-18 16 -28 44q32 124 64 314h-122q-118 -2 -150 4q-74 14 -74 60zM684 750h86h50l172 -4q20 148 48 290q-116 -12 -228 -24l-112 -12q0 -88 -8 -174z" />
<glyph unicode="$" horiz-adv-x="882" d="M58 454q0 32 6 56q16 54 92 86q-16 -56 34 -114q52 -58 130 -96q32 -18 66 -28q-6 166 -14 354q-4 68 -8 138q-8 10 -18 20q-118 116 -196 240q-52 80 -74 164t8 168q14 38 38 66q26 28 58 48q58 32 130 38q-2 14 -2 26q-16 162 -28 178q24 46 84 46h10q68 -4 96 -52 q0 -10 2 -48q0 -36 2 -96q0 -34 2 -74q56 -18 102 -52q44 -34 72 -82q28 -46 28 -106q-4 -28 -44 -34q-40 -8 -66 10q16 114 -64 166q-12 8 -24 12q2 -54 4 -116q6 -162 12 -344q108 -74 198 -166q78 -82 122 -184q28 -64 28 -140q0 -48 -12 -104q-22 -112 -78 -178 q-58 -68 -134 -98q-48 -18 -100 -22v-12q4 -136 4 -190v-22q-24 -30 -74 -40q-12 -4 -22 -4q-38 0 -62 34q8 6 14 44q4 38 6 98q2 44 2 100q-92 20 -174 74q-92 58 -146 146q-10 50 -10 90zM262 1276q14 -46 48 -88q16 -20 36 -40l-4 84q-10 126 -18 232q-12 -10 -22 -22 q-22 -28 -36 -68q-18 -52 -4 -98zM502 694q4 -94 8 -180q2 -92 4 -174q88 2 104 90q10 50 -12 104t-66 112q-18 24 -38 48z" />
<glyph unicode="%" horiz-adv-x="1100" d="M38 1404v26q2 42 12 84q12 42 30 82q36 74 100 124q60 48 140 48h12q46 -2 82 -22q34 -22 58 -56q46 -64 60 -156q14 -84 14 -158v-18q-2 -44 -8 -90t-20 -88q-26 -76 -82 -124q-44 -38 -112 -38q-22 0 -48 4q-54 8 -94 32q-40 26 -68 60q-50 66 -64 154q-12 72 -12 136z M46 146q0 14 2 28q8 16 34 62q28 46 68 112q74 126 182 306t214 366q46 82 90 162t80 152q70 136 112 240q40 102 32 144q36 50 90 64q16 4 28 4q32 0 50 -26q10 -14 12 -40v-8q0 -22 -8 -52q-42 -134 -134 -328q-94 -192 -198 -396q-56 -108 -108 -214q-54 -104 -100 -200 q-86 -176 -134 -304q-48 -126 -18 -154q-50 -56 -92 -78q-36 -16 -66 -16h-12q-66 8 -98 76q-26 54 -26 100zM226 1358q0 -74 22 -132q22 -60 76 -64h8q8 0 14 2q40 6 60 48q24 52 30 140q10 124 -16 200q-26 78 -70 78h-2q-52 0 -86 -84q-34 -86 -36 -180v-8zM572 334v26 q0 64 12 134q16 84 68 146q26 34 66 56q40 24 96 32q24 4 46 4q28 0 50 -6q42 -10 72 -34q54 -44 76 -124q20 -78 22 -160v-16q0 -118 -42 -222q-44 -112 -178 -118h-16q-124 0 -192 80q-74 86 -80 202zM728 386q0 -40 14 -78t40 -64q16 -16 38 -24q22 -10 46 -10h2 q44 2 78 40q26 30 26 112q0 24 -2 50q-6 88 -40 116q-32 24 -80 24q-6 0 -12 -2q-56 -2 -84 -54q-26 -46 -26 -104v-6z" />
<glyph unicode="&#x26;" horiz-adv-x="1684" d="M84 1588v2q0 82 30 146q28 62 76 104q90 78 218 80h6q124 0 218 -78q48 -40 82 -104t44 -150q10 -96 -28 -218t-96 -252q-26 -58 -54 -118q36 -56 74 -112q58 -86 122 -170q58 -76 120 -148q50 94 96 194q50 110 90 208q-44 22 -130 70q-26 46 0 92t74 50q4 -20 26 -36 q20 -16 52 -28q60 -22 138 -38q80 -18 136 -40q22 -42 8 -80q-12 -36 -68 -52q-48 12 -148 32q-30 -148 -94 -324q-32 -88 -70 -170q48 -48 96 -90q152 -136 288 -184q138 -48 220 56q30 -16 38 -78q4 -24 4 -48q0 -38 -8 -74q-8 -42 -24 -74q-16 -34 -38 -46 q-62 -34 -146 -18t-182 70q-168 94 -356 278q-36 -58 -74 -114q-50 -72 -106 -128q-104 -106 -220 -136q-28 -6 -58 -6q-86 0 -172 64q-96 72 -128 168t-22 206q12 116 60 244q50 126 114 256q30 60 62 120q-86 138 -152 274q-118 240 -118 400zM344 1570q-2 -82 54 -218 q38 -92 92 -194q60 112 102 206q28 66 44 122q14 56 10 98q-8 70 -30 116q-20 44 -50 64q-66 50 -142 -8q-78 -60 -80 -186zM398 496q-24 -132 46 -212q38 -42 76 -54t78 0q74 22 148 114l24 30q-146 156 -272 332l-28 38q-54 -134 -72 -248z" />
<glyph unicode="'" horiz-adv-x="328" d="M36 1916q36 22 90 22q16 0 34 -2q78 -8 140 -92q-4 -104 -28 -184t-66 -150q-24 -26 -50 -34q-10 -2 -20 -2h-2q-40 0 -56 52q-12 28 -16 68q-2 38 -2 80q0 80 2 152t-26 90z" />
<glyph unicode="(" horiz-adv-x="716" d="M50 750q0 50 2 102q6 152 32 300q48 272 158 496q110 222 272 324q20 6 38 6q8 0 14 -2q24 -4 42 -18q52 -40 52 -132v-2q-2 -92 -58 -124q-66 -36 -132 -160q-64 -126 -116 -300q-26 -94 -46 -198q-22 -104 -34 -212q-18 -166 -10 -332q6 -166 46 -308q38 -138 112 -244 q72 -106 188 -162q42 -28 -12 -60q-48 -30 -106 -30h-12q-190 108 -294 340q-102 234 -128 516q-8 98 -8 200z" />
<glyph unicode=")" horiz-adv-x="704" d="M40 1826v2q0 90 52 132q18 14 42 18q6 2 14 2q18 0 38 -8q88 -54 160 -146t130 -210q104 -220 148 -506q28 -180 28 -358q0 -100 -10 -200q-26 -282 -128 -516q-104 -234 -294 -340h-12q-58 0 -106 28q-54 34 -12 62q116 56 188 162q74 106 112 242q40 144 46 310 q8 166 -10 330q-22 202 -74 384q-50 182 -112 308q-34 68 -70 114t-72 66q-56 30 -58 124z" />
<glyph unicode="*" horiz-adv-x="556" d="M16 1452q0 14 10 32q22 6 50 22q26 14 56 30q-14 22 -24 48q-12 28 -26 52q-16 44 20 56q38 10 64 -2q10 -14 38 -24q28 -12 50 -22q14 14 36 54q24 38 38 58q4 4 12 4t16 -4q18 -4 32 -26q4 -38 2 -72q-2 -36 6 -52q14 -2 48 -10q36 -6 74 -14q20 -6 24 -34q2 -4 2 -8 q0 -22 -22 -44q-34 -12 -66 -24q-34 -14 -50 -22q6 -14 24 -50t32 -50q6 -28 -12 -52q-16 -24 -46 -18q-38 22 -58 30q-20 10 -32 18q-12 -10 -34 -30t-36 -44q-16 -12 -32 -12q-14 0 -28 8q-36 18 -48 42q6 26 12 56q4 30 14 48q-24 4 -50 4q-28 0 -68 2q-16 10 -24 34 q-4 6 -4 16z" />
<glyph unicode="+" horiz-adv-x="4368" d="M20 610q180 422 416 612q166 132 352 132q82 0 166 -26q162 -46 278 -170q114 -126 208 -290q60 -106 116 -224q56 -116 114 -234q106 -216 236 -406t326 -286q68 -34 130 -34q62 -2 114 22q56 26 100 72q44 48 74 108q24 50 38 102q-82 40 -150 90q-94 68 -150 144 q-42 58 -56 116q-16 60 -10 112q12 100 84 164q74 64 174 52q52 -8 106 -38q56 -32 110 -94q70 -80 104 -178t36 -202q0 -66 -10 -130q66 -20 140 -36q196 -44 388 -36q198 8 366 86q168 76 254 246q50 98 56 190q6 94 -20 174q-36 122 -126 208q-88 84 -184 110 q-52 14 -100 6q-48 -6 -86 -36q-60 -48 -44 -110q18 -64 62 -56q14 2 30 16t30 42q22 18 58 -14q36 -30 20 -62q-26 -30 -54 -46q-28 -14 -56 -18q-80 -10 -144 56t-64 150q2 38 18 74t52 68q50 46 120 64q72 20 150 14q146 -10 292 -98q144 -90 208 -246q36 -90 38 -200 q0 -18 -2 -36q-6 -130 -84 -286q-78 -154 -208 -248t-288 -138q-240 -68 -512 -34q-184 24 -342 76q-22 -58 -52 -114q-98 -174 -270 -238q-76 -28 -168 -28h-26q-106 6 -224 60q-186 86 -312 234q-126 150 -220 324q-114 212 -204 432q-90 218 -202 378q-60 84 -134 146 q-72 60 -164 86q-154 42 -292 14q-140 -30 -266 -162q-68 -72 -132 -176q-64 -106 -126 -250q-16 -10 -40 -14q-22 -6 -42 14zM2428 410q-8 -54 50 -130q36 -46 100 -92q56 -40 126 -76v20q0 134 -78 228q-42 52 -78 76t-62 26q-50 4 -58 -52z" />
<glyph unicode="," horiz-adv-x="336" d="M24 152q36 22 92 22q16 0 32 -2q78 -8 140 -92q0 -26 -2 -52q-8 -74 -26 -132q-24 -80 -66 -150q-32 -36 -70 -38h-2q-38 2 -56 54q-12 28 -14 68q-4 38 -4 80q2 80 2 150q2 72 -26 92z" />
<glyph unicode="-" horiz-adv-x="728" d="M22 798q0 34 22 62q12 14 28 24q16 8 38 12q92 6 204 10q102 2 184 2h16q48 0 86 -2q36 0 56 -4q24 -30 32 -84q2 -12 2 -22q0 -38 -20 -60q-34 24 -142 18q-106 -6 -218 -18q-60 -6 -114 -12q-56 -6 -94 -8q-60 0 -76 52q-4 16 -4 30z" />
<glyph unicode="." horiz-adv-x="376" d="M34 62v6q0 34 34 62q36 32 70 32h4q56 -4 120 -30q66 -28 72 -82q0 -10 -2 -18q-4 -42 -56 -74q-58 -34 -110 -34h-4q-48 2 -86 46q-38 46 -42 92z" />
<glyph unicode="/" horiz-adv-x="1172" d="M40 182q0 20 4 40q10 16 40 60q30 42 76 106q84 120 206 292q122 170 242 348q52 78 102 154q48 76 92 146q80 130 128 230q50 98 46 142q38 46 92 56q12 2 22 2q38 0 56 -30q8 -16 8 -40q0 -26 -12 -60q-52 -130 -160 -316t-228 -380q-64 -104 -124 -204 q-62 -100 -116 -192q-100 -170 -156 -292q-58 -122 -30 -154q-54 -52 -98 -70q-32 -12 -58 -12q-12 0 -22 2q-64 14 -92 84q-18 48 -18 88z" />
<glyph unicode="0" horiz-adv-x="1202" d="M52 902q0 32 2 66q0 102 16 202q30 184 130 334t324 184q56 8 104 8q152 0 244 -80q122 -108 174 -276q30 -92 42 -192q14 -100 16 -196v-44q0 -162 -26 -342q-30 -204 -126 -344q-52 -76 -128 -122q-74 -48 -178 -50q-12 -2 -22 -2q-178 0 -296 104q-128 108 -194 266 q-36 86 -56 178t-24 182q-2 60 -2 124zM364 1012q0 -40 2 -82q4 -96 18 -190q20 -144 58 -270t90 -202q26 -40 58 -64q30 -22 64 -22h2q62 2 122 112q58 108 94 290q20 96 30 210q8 98 8 202v40q-4 272 -112 380q-100 100 -212 100h-18q-94 -6 -142 -122t-58 -280 q-4 -50 -4 -102z" />
<glyph unicode="1" horiz-adv-x="666" d="M80 92v6q2 68 18 78q42 2 78 4q34 2 64 6q0 78 2 228q0 152 2 326v336q2 166 0 280v104q0 42 -2 54q-18 -22 -50 -48q-34 -26 -66 -42q-26 0 -40 30q-16 30 18 78q72 42 124 116q54 72 94 112q24 8 94 22q26 6 50 6q36 -2 62 -14q16 -8 24 -20q10 -12 12 -30 q-2 -20 -6 -70q-4 -48 -8 -122q-10 -134 -24 -324q-12 -190 -20 -386q-10 -200 -14 -376q-2 -174 6 -270q44 -2 72 0t54 6q12 -16 12 -34q-2 -10 -6 -22q-12 -30 -40 -38q-56 -2 -146 -18q-88 -16 -174 -30q-46 -8 -86 -12q-40 -6 -70 -8q-34 12 -34 72z" />
<glyph unicode="2" horiz-adv-x="1178" d="M84 282q0 8 2 14q10 46 90 158q78 110 182 248q58 74 118 152t118 156q134 178 228 320q92 142 64 172q-46 50 -160 20q-114 -32 -222 -92q-70 -42 -124 -88q-52 -46 -64 -84q-8 -24 -68 -22t-84 70q8 72 98 170q92 100 218 170q68 38 142 62t144 26h8q64 0 122 -22 q64 -24 114 -80q80 -86 62 -224q-18 -136 -90 -290q-38 -82 -88 -166q-48 -84 -102 -166q-98 -152 -198 -284q-100 -134 -160 -222q52 4 116 0l132 -8q98 -8 176 0q76 6 76 58q148 -10 178 -96q6 -16 6 -30q0 -72 -128 -144q-64 -4 -116 -4h-104q-96 0 -208 -4t-292 -28 q-34 6 -78 52q-46 44 -76 100q-16 32 -24 62q-6 22 -8 44z" />
<glyph unicode="3" horiz-adv-x="1202" d="M84 320q0 56 28 86q32 36 78 -16q60 -54 120 -70t118 -4q52 10 102 40q48 32 92 72q98 98 150 222t16 180q-46 72 -144 56q-96 -14 -212 -48q-56 -2 -80 40q-24 40 10 124q48 24 96 70q46 46 86 104q76 106 110 220q34 116 -10 168q-24 28 -82 20t-118 -40 q-74 -38 -132 -96q-58 -60 -48 -112q-22 -46 -86 -8q-62 40 -42 92q56 70 128 122t148 80q96 36 190 38q50 0 98 -10q144 -28 238 -160q58 -82 36 -184q-20 -100 -68 -188q-26 -46 -54 -86t-50 -66q102 -20 202 -72q102 -50 126 -178q8 -40 8 -80q0 -124 -80 -240 q-102 -152 -264 -236q-90 -44 -186 -64q-56 -10 -112 -10q-40 0 -82 6q-90 14 -176 62q-84 48 -152 138q-2 16 -2 28z" />
<glyph unicode="4" horiz-adv-x="972" d="M50 814v12q8 72 38 176q28 106 64 218q54 168 110 314q54 146 68 176q36 24 74 24q16 0 34 -6q56 -16 74 -116q-24 -12 -74 -110q-48 -98 -100 -222q-40 -98 -78 -196q-36 -100 -56 -166q-10 -38 -16 -62q-4 -24 -2 -30q18 -22 92 -20t162 8l92 8q46 2 84 2 q16 208 12 374q-4 164 4 298q70 84 144 8t96 -266q-24 -4 -28 -84q-6 -80 -2 -200q2 -66 4 -138q4 -74 6 -148q6 -144 6 -284q0 -138 -14 -234q-8 -68 -94 -96q-22 -6 -46 -6q-64 -2 -126 54q-4 50 -4 112q2 64 8 132q8 122 20 234q12 110 10 140q-124 -4 -266 -20 q-144 -18 -232 0q-44 6 -56 54q-8 38 -8 60z" />
<glyph unicode="5" d="M46 360q0 10 2 18q12 44 62 58q50 12 78 -26q176 -42 300 -16q124 28 202 96q52 42 84 98q34 56 50 114q34 108 16 206q-16 98 -68 132q-100 64 -208 10q-110 -54 -202 -136q-108 -2 -140 56t-78 120q14 152 24 326q10 176 24 284q28 12 168 4q140 -6 290 -10 q100 -2 186 2t126 20q60 -30 44 -70q-16 -42 -54 -48q-142 -2 -424 -8q-14 -96 -22 -194t-30 -190q160 26 294 30q132 4 216 -114q36 -52 58 -114q24 -62 34 -130q8 -58 8 -118q0 -72 -12 -146q-24 -138 -84 -254q-52 -96 -126 -168q-76 -72 -174 -104q-58 -16 -122 -16 q-72 0 -152 20q-154 42 -338 194q-22 26 -28 50q-4 12 -4 24z" />
<glyph unicode="6" horiz-adv-x="1092" d="M98 486v2q0 166 30 344q14 94 34 186q20 90 38 172q36 154 56 258t-6 114q8 58 44 124q36 68 98 80q10 2 22 2q24 0 52 -10q40 -16 88 -62q4 -26 -4 -78t-24 -122q-32 -130 -84 -302q-50 -172 -92 -334q12 10 40 22q28 14 66 24q74 18 170 16q98 -2 180 -56 q70 -44 120 -132q48 -88 56 -236v-26q0 -72 -20 -132q-26 -72 -72 -126q-48 -58 -114 -98q-66 -38 -140 -58q-64 -16 -130 -16q-72 0 -142 18q-136 38 -206 158q-60 104 -60 268zM288 422q0 -44 8 -82t28 -66q28 -40 102 -48h36q58 0 118 18q42 14 80 38q38 22 64 54t38 72 q8 26 8 54q0 16 -4 34q-20 140 -90 188q-66 46 -144 46h-8q-46 -2 -90 -12q-46 -12 -86 -26q-20 -32 -40 -112q-20 -78 -20 -158z" />
<glyph unicode="7" horiz-adv-x="1006" d="M42 1580q0 18 6 34q4 16 14 28t28 20q30 -14 82 -18q50 -6 116 -4q118 4 264 20q144 16 266 24q62 -36 84 -80t24 -102q-4 -24 -20 -74t-38 -118q-40 -126 -98 -296q-58 -168 -112 -336q-68 -210 -110 -376q-44 -164 -20 -190q-64 -94 -136 -94q-18 0 -36 6 q-92 26 -172 88q4 16 18 58q16 44 40 108q46 118 114 292q70 174 146 360q62 156 122 306q60 152 108 274q-78 4 -174 -16q-96 -22 -188 -48q-50 -16 -94 -30q-46 -14 -84 -26q-56 -2 -110 80q-40 60 -40 110z" />
<glyph unicode="8" horiz-adv-x="920" d="M78 362q0 40 6 78q12 78 38 142q50 122 126 202q74 78 112 106q-8 4 -32 22q-22 18 -50 46q-54 56 -110 150q-56 96 -66 230q-10 104 42 192q52 90 136 142q46 28 100 44q50 16 104 16h2q126 -2 198 -46q72 -46 104 -116q28 -58 32 -128t-8 -142q-20 -134 -72 -246 q-52 -114 -88 -144q96 -74 146 -202q50 -124 50 -252v-12q-2 -72 -20 -142q-16 -68 -52 -126q-42 -72 -112 -122q-70 -48 -170 -60q-22 -2 -44 -2q-60 0 -124 18q-88 28 -152 90q-34 34 -58 76q-24 44 -32 100q-6 44 -6 86zM256 300q0 -46 16 -80q12 -30 40 -50 q28 -18 72 -22h4q56 0 104 96q48 102 58 224q2 26 2 52q0 54 -10 106q-14 76 -60 120h-2q-38 0 -94 -80q-58 -84 -96 -190q-26 -70 -32 -140q-2 -18 -2 -36zM416 1390q0 -18 2 -36q10 -100 44 -188q20 -46 44 -84t48 -60q34 4 68 78q36 72 54 164q16 76 16 146q0 36 -4 70 q-12 102 -90 106h-10q-48 0 -82 -18q-36 -18 -58 -52q-32 -50 -32 -126z" />
<glyph unicode="9" horiz-adv-x="1104" d="M88 1348v12q0 102 36 178q40 78 106 128q98 76 238 86q20 2 42 2q116 0 224 -44q68 -28 126 -74q60 -44 102 -104q42 -62 42 -192q0 -32 -2 -66q-14 -182 -48 -382q-28 -160 -58 -310q-30 -148 -42 -244q-4 -52 -2 -84t14 -38q-8 -62 -46 -132q-38 -72 -104 -86 q-10 -2 -22 -2q-26 0 -56 10q-42 18 -94 68q12 24 34 174q20 150 52 340q18 102 38 208q20 104 44 198q-18 -22 -48 -36q-32 -14 -74 -18q-76 -12 -172 10q-94 22 -174 82q-66 50 -110 128t-46 188zM326 1370q0 -82 56 -144q60 -66 144 -94q44 -14 90 -16h10q42 0 80 14 q20 34 34 110q14 74 14 148v12q0 34 -2 62q-4 36 -12 60q-6 24 -28 40q-20 18 -50 28q-40 14 -90 16q-16 0 -34 -2q-70 -8 -126 -48q-36 -28 -60 -72t-26 -106v-8z" />
<glyph unicode=":" horiz-adv-x="376" d="M20 82v6q0 32 34 62t70 30h4q54 -2 120 -30q66 -26 70 -82q0 -10 -2 -20q-6 -40 -56 -70q-58 -36 -108 -34h-6q-46 2 -84 46t-42 92zM36 896v6q0 50 60 86q58 36 110 38q4 0 8 -2q48 -2 88 -48t44 -94q2 -38 -36 -72q-20 -16 -40 -24q-16 -8 -32 -8h-4q-58 4 -126 32 t-72 86z" />
<glyph unicode=";" horiz-adv-x="378" d="M6 862v6q4 50 44 98q42 48 92 50h8q52 0 114 -38q64 -40 60 -96q-4 -58 -74 -88h-2q-70 -28 -128 -32h-4q-36 0 -74 34q-36 30 -36 66zM22 116q36 24 92 24q14 0 32 -2q78 -8 140 -92q0 -14 -2 -26q-4 -90 -26 -160q-24 -78 -66 -148q-32 -38 -70 -38h-2q-38 0 -56 52 q-12 30 -16 68q-2 40 -2 82q0 78 2 150t-26 90z" />
<glyph unicode="&#x3c;" horiz-adv-x="898" d="M62 788q4 14 22 38q20 24 48 58q52 62 132 142t162 152q86 74 160 126q76 50 116 50h4q24 0 62 -28q42 -30 54 -82q4 -12 4 -24q0 -16 -6 -36q-8 -32 -38 -66q-26 2 -88 -42q-60 -44 -128 -106q-84 -74 -154 -148q-72 -74 -84 -92q4 -20 70 -92q64 -72 144 -154 q42 -46 82 -90q42 -42 74 -80q24 -34 4 -74q-22 -38 -60 -42h-6q-14 0 -30 6q-18 8 -38 28q-2 20 -64 90q-62 68 -144 150q-98 102 -192 196t-106 120z" />
<glyph unicode="=" horiz-adv-x="936" d="M30 512q0 6 2 12q12 40 58 66q112 10 196 16q72 4 164 4h36q62 0 138 -4q78 -2 178 -8q64 -8 94 -62q16 -28 16 -54q0 -22 -12 -40q-8 -14 -22 -26q-16 -10 -38 -14q-28 32 -102 48q-76 14 -170 18q-140 4 -282 -2q-144 -8 -192 2q-66 12 -64 44zM56 862q0 62 36 84 q140 -18 226 -26q88 -6 224 16q58 8 132 24q76 18 174 42q22 -4 34 -14q14 -10 18 -22t4 -24q2 -32 -24 -70q-34 -54 -68 -68q-246 -20 -412 -26q-166 -4 -276 -12q-62 4 -66 80q-2 8 -2 16z" />
<glyph unicode="&#x3e;" horiz-adv-x="824" d="M48 1220q0 12 2 24q12 52 54 82q40 28 62 28q2 0 4 -2q40 2 116 -48q76 -52 160 -126q44 -38 90 -80q44 -42 84 -84q76 -76 130 -140q52 -62 60 -86q-10 -22 -76 -90t-150 -152q-100 -100 -188 -194q-90 -94 -92 -120q-18 -20 -38 -28q-14 -6 -28 -6h-6q-40 4 -60 42 q-20 40 4 74q32 36 72 80q42 44 84 90q78 82 144 154q64 72 68 92q-10 18 -82 92t-154 148q-70 62 -130 106t-86 42q-32 34 -40 66q-4 20 -4 36z" />
<glyph unicode="?" horiz-adv-x="812" d="M30 1430q0 6 2 12q10 116 114 216q106 100 238 124q32 6 64 6q42 0 82 -10q74 -16 138 -70q114 -96 114 -208v-26q-14 -126 -84 -242q-38 -62 -84 -118q-44 -56 -84 -102q-20 -24 -32 -58q-10 -34 -16 -74q-8 -72 2 -146t24 -116q-6 -62 -44 -124q-36 -60 -86 -64h-4 q-18 0 -38 12q-22 14 -44 46q-90 134 -96 256q-6 120 34 228q48 128 130 236q80 106 126 190q24 46 30 84q6 40 -18 72q-18 26 -42 34q-24 10 -50 6q-28 -2 -58 -18q-28 -14 -54 -36q-50 -40 -84 -90t-32 -80q-40 -60 -98 -18q-50 38 -50 78zM284 142q0 34 22 56 q26 28 66 28q18 0 40 -6q68 -20 114 -54q28 -20 38 -68q2 -14 2 -26q0 -30 -18 -50q-32 -34 -90 -44q-16 -4 -32 -4q-36 0 -64 20q-42 32 -68 98q-10 28 -10 50z" />
<glyph unicode="@" horiz-adv-x="1524" d="M38 874v6q0 232 98 420q96 186 250 298q82 60 174 96q94 34 192 40h48q172 0 318 -62q168 -74 268 -204q54 -70 84 -154q28 -86 28 -180q0 -124 -28 -222q-30 -98 -76 -172q-86 -138 -198 -194q-112 -54 -174 -32q-68 26 -98 114q-32 90 -26 132q-10 -28 -50 -86 q-40 -60 -100 -86q-30 -14 -68 -12q-36 4 -76 36q-86 68 -92 198t48 248q28 64 70 118q44 52 98 82q52 28 110 30q60 2 124 -30q38 -30 14 -72q-24 -40 -56 -42q-42 22 -88 -20t-80 -108q-44 -80 -60 -166q-18 -88 16 -114q20 -14 64 42q42 58 78 136q26 52 42 102 q18 50 18 82q38 36 72 28q36 -8 34 -64q-12 -36 -16 -82t-2 -92q4 -90 24 -164q22 -76 52 -88t100 44t126 158q30 54 48 120q20 64 20 136q2 78 -22 150t-68 134q-78 116 -212 186t-290 62q-132 -8 -250 -98q-120 -92 -192 -250q-38 -84 -58 -184q-20 -102 -18 -220 q4 -90 20 -180t48 -174q60 -154 174 -266q114 -110 292 -128q72 -6 142 10t132 44q118 56 190 134q74 80 62 124q50 16 82 -20q34 -34 26 -90q-18 -44 -56 -86q-40 -42 -92 -78q-100 -66 -234 -108q-112 -32 -220 -32h-40q-332 22 -538 252t-208 598z" />
<glyph unicode="A" horiz-adv-x="1178" d="M20 84q14 104 44 252t70 314q14 58 28 118q-12 0 -26 2q-42 10 -42 38q0 10 8 20q22 44 54 44q14 -4 32 -8q0 4 2 6q30 112 64 222q60 200 126 376q66 174 128 276q18 34 44 50q28 16 60 20h14q54 0 114 -36q66 -38 108 -106q16 -154 38 -372q20 -216 44 -440 q14 -116 26 -228q12 -114 24 -214q24 -184 42 -306q20 -122 32 -126q18 -6 30 4q10 10 10 34q28 -22 30 -86v-4q0 -60 -40 -100q-18 -16 -44 -26q-18 -4 -38 -4q-14 0 -28 2q-110 14 -180 120t-110 264q-22 84 -38 180q-14 94 -22 194q-10 100 -16 200q-58 -2 -116 -2h-72 q-26 -118 -50 -236q-40 -194 -66 -330q-14 -72 -24 -120q-8 -50 -10 -64q-16 -26 -38 -36q-22 -12 -48 -12h-5q-53 0 -103 40q-52 40 -56 80zM440 854q64 2 134 6h32q-1 47 -1 92t1 88q0 208 6 350q4 71 4 107.5t-4 38.5q-4 -4 -14 -30q-8 -28 -22 -74q-22 -86 -56 -224 q-32 -138 -66 -296z" />
<glyph unicode="B" horiz-adv-x="1250" d="M26 1474q0 4 2 8q6 14 20 20h3q34 0 105 50q76 54 96 140q8 42 28 64q18 24 44 32q20 8 40 8q30 0 62 -14q54 -24 78 -62q2 -24 2 -60q2 -34 2 -90q32 60 110 116q80 56 168 62q9 1 18 1q41 0 80 -15q48 -16 90 -60q42 -46 56 -100q9 -36 9 -72q0 -21 -3 -42 q-16 -118 -92 -238q-74 -122 -146 -210q-38 -48 -70 -82q-30 -34 -44 -50q46 10 146 12q9 0 19 1q88 0 169 -35q50 -20 88 -56q40 -36 60 -92q28 -80 28 -164q0 -34 -4 -68q-16 -120 -74 -220q-86 -150 -236 -228q-75 -38 -151 -38t-153 38q-48 34 -60 106q-1 8 -1 17 q0 63 77 133q42 -30 78 -32q7 -1 13 -1q28 0 51 15q32 18 54 54q24 36 40 80q28 84 30 174v14q0 80 -22 116q-45 70 -127 70q-24 0 -51 -6q-86 -20 -166 -84q-6 -158 -10 -300q-4 -108 -4 -192q0 -56 2 -102q2 -62 8 -100t18 -44q-16 -42 -72 -58q-34 -10 -72 -10 q-20 0 -42 2q-40 6 -76 24q-34 18 -54 46q-22 70 -24 206q0 134 10 304q6 90 14 188l16 196q12 154 24 304t18 278q-37 -20 -80 -20q-20 0 -42 4q-68 16 -90 42q-10 10 -10 20zM500 872l8 6q30 22 54 54q36 46 62 108t44 130q34 126 40 238q1 26 1 48q0 71 -15 88 q-18 21 -43.5 21t-58.5 -21q-66 -42 -82 -102q1 -51 1 -105q0 -107 -3 -223q-4 -122 -8 -242z" />
<glyph unicode="C" horiz-adv-x="1178" d="M46 852v4q0 216 68 402q70 186 190 314q98 106 226 164q112 50 238 50h32q56 -4 102 -26q48 -22 82 -58q62 -68 74 -166q2 -15 2 -30q0 -82 -46 -158q-22 -38 -76 -42q-10 -1 -19 -1q-42 0 -75 23q-16 14 -28 32t-14 44q40 24 56 108q7 32 7 60q0 44 -17 78q-8 18 -24 30 q-14 10 -36 14h-5q-30 0 -63 -20q-36 -24 -70 -66q-64 -82 -120 -222q-54 -140 -80 -304q-19 -113 -19 -232q0 -22 1 -44q2 -140 44 -266q42 -130 98 -210q58 -82 118 -118q61 -37 119 -37q48 0 93 25q100 56 122 180q25 20 47 20q25 0 47 -24t22 -56t-22 -74 q-28 -60 -74 -110q-44 -50 -98 -86q-102 -70 -228 -90q-36 -6 -72 -6q-88 0 -174 34q-100 40 -188 130t-146 242q-48 126 -70 250q-24 124 -24 242z" />
<glyph unicode="D" horiz-adv-x="1258" d="M134 1650q0 50 2 96q20 36 72 40h18q42 0 86 -14q34 -12 62 -30q30 -18 44 -42q4 -28 8 -52t6 -46q90 82 244 88h18q144 0 268 -62q70 -36 124 -94q56 -56 80 -134q36 -108 36 -254q0 -42 -2 -86q-14 -200 -68 -406q-28 -108 -66 -212t-84 -196q-84 -170 -186 -278 q-98 -106 -197 -106h-7h-8q-46 0 -70 56q-24 54 -24 121v19q2 52 22 102q18 50 54 84q7 -1 13 -1q32 0 61 17q36 22 64 58q54 70 88 186q32 116 46 248q10 94 10 187q0 40 -2 79q-8 134 -34 230q-62 216 -178 272q-45 21 -83 21q-61 0 -105 -53q34 -206 44 -464 q5 -128 5 -254t-5 -250q-6 -132 -16 -256t-26 -228q-12 -34 -36 -54q-22 -22 -52 -32q-29 -11 -60 -11q-25 0 -50 7q-56 16 -80 62q26 28 26 178v51q0 132 -8 309q-6 112 -14 238q-8 124 -16 252q-10 194 -18 380q-6 128 -6 234z" />
<glyph unicode="E" horiz-adv-x="1086" d="M72 456v2q0 162 18 330q20 204 52 398q34 194 50 330q10 74 10 126v14q0 41 -10 60q50 36 182 38h262q88 2 162 10t112 32q4 2 8 2q26 0 44 -8q20 -8 32 -24q18 -22 18 -51t-18 -65q-36 -74 -112 -86q-34 -12 -78 -14q-14 -1 -28 -1q-29 0 -60 3q-86 6 -162 20 q-46 8 -73 8q-20 0 -31 -4q-2 -24 -4 -72q-2 -50 -4 -112q-4 -92 -10 -192q-6 -98 -12 -150q76 12 166 22q90 8 140 28q67 -42 67 -102q0 -8 -1 -16q-12 -68 -70 -84q-59 -15 -122 -15q-14 0 -28 1h-26q-64 0 -116 -8q2 -21 2 -51.5t-2 -70.5q-2 -78 -4 -166v-65 q0 -96 4 -185q8 -120 46 -140q17 -9 39 -9q24 0 53 11q58 18 118 58q90 60 162 144q65 76 65 125q0 6 -1 11q18 8 34 6q16 0 28 -8q40 -20 46 -82q2 -10 2 -22q0 -48 -28 -86q-10 -14 -36 -48q-26 -36 -64 -80q-70 -84 -174 -178q-102 -96 -212 -138q-56 -22 -110 -26h-10 q-50 0 -98 24q-70 36 -116 106q-44 68 -68 160q-34 128 -34 290z" />
<glyph unicode="F" horiz-adv-x="992" d="M102 80q18 12 30 46q12 36 20 90q16 98 22 248q3 101 3 209q0 54 -1 109v28h-28q-32 8 -36 52v6q0 40 44 60q8 0 18 -2q-2 40 -2 78q-4 110 -8 212q-8 190 -18 328l-14 161q0 25 28 65q28 42 48 28q32 -22 160 -24q21 0 43 -1q107 0 219 9q90 6 164 16q76 10 110 22 q28 -14 50 -58q16 -34 16 -68q0 -12 -2 -24q-4 -24 -20 -46t-46 -36q-40 -16 -102 -18q-43 -3 -87 -3q-22 0 -45 1q-104 6 -198 16q-81 10 -111 10h-9q0 -16 16 -154q18 -138 40 -332q10 -90 20 -184q8 2 18 2q146 2 246 8q56 -14 60 -64v-8q0 -44 -40 -52q-12 10 -42 16 q-32 4 -80 4q-66 0 -152 -6q8 -80 14 -156q18 -212 22 -394v-27q0 -159 -22 -231q-22 -36 -52 -56t-64 -26q-16 -2 -34 -2q-60 0 -118 36q-74 46 -80 112z" />
<glyph unicode="G" horiz-adv-x="1256" d="M36 720q0 78 8 162q22 234 100 472q48 152 126 248q78 94 170 140q58 30 118 40q36 6 70 6q26 0 50 -4q110 -14 200 -84t132 -184q11 -29 11 -52q0 -40 -33 -62q-22 -14 -43 -14q-30 0 -59 30q2 11 2 21q0 41 -24 87q-30 56 -80 88q-28 18 -58 24q-12 2 -24 2 q-21 0 -42 -6q-52 -16 -102 -80q-52 -62 -94 -192q-44 -140 -46 -320v-45q0 -157 24 -311q26 -170 74 -320q48 -148 104 -234q30 -46 62 -70q25 -19 52 -19q5 0 10 1q52 8 78 144q28 134 38 282q6 102 6 188t-4 126q-22 0 -46 -2q-22 -2 -48 -4q-20 9 -20 32q0 21 36 48 q19 2 47.5 2t66.5 -2q76 -2 150 -4h88q40 2 60 8q12 -6 20 -40q2 -10 2 -16q2 -20 -14 -26q-14 -4 -34 -2l-44 4q1 -13 1 -28q0 -29 -3 -62q-4 -52 -12 -110q-16 -108 -50 -228q-34 -118 -86 -216q-44 -80 -98 -134q-56 -56 -122 -68q-72 -12 -138 -12q-98 0 -178 28 q-134 48 -222 152q-58 68 -98 156q-38 90 -60 194q-24 124 -24 266z" />
<glyph unicode="H" d="M26 124q20 74 32 192t18 262q6 139 6 292v78q0 196 -10 386q-4 100 -10 196q-8 96 -16 182q22 60 74 60q18 0 38 -6q84 -28 128 -150q30 -134 46 -278q18 -144 22 -290q2 -66 2 -130l46 2q84 4 168 6q86 2 166 4q0 120 4 236q4 168 12 318t22 272q14 74 86 110 q40 18 72 18q28 0 52 -14q18 -10 30 -28q14 -16 18 -44q-32 -22 -40 -128q-5 -59 -5 -134q0 -56 3 -120q2 -80 10 -172q6 -90 14 -184q4 -44 6 -90q14 6 24 12q36 -4 36 -36q0 -8 -2 -16q-12 -44 -48 -56q2 -24 6 -48q12 -116 22 -226q22 -202 36 -352q8 -94 8 -142 q0 -30 -2 -42q-6 -26 -26 -52q-18 -26 -46 -50q-48 -44 -112 -70q-40 -16 -72 -16q-20 0 -38 6q-16 6 -30 18q-12 14 -20 36q-12 262 -18 592q-2 142 -2 278v40q-98 -4 -210 -10q-90 -4 -170 -10q-4 -150 -18 -292q-26 -246 -82 -408q-2 -2 -2 -4q-14 -38 -64 -62 q-30 -12 -58 -12q-22 0 -42 6q-20 8 -36 26q-18 16 -28 44z" />
<glyph unicode="I" horiz-adv-x="598" d="M62 2q0 14 2 54q4 38 8 96q10 106 24 264q14 156 30 332q10 114 18 230q10 116 16 222q14 200 18 346q1 29 1 53q0 97 -13 121q-2 28 8 54q10 24 30 42q34 34 86 44q18 4 34 4q32 0 58 -14q20 -12 36 -32q14 -20 18 -50q9 -88 9 -210q0 -70 -3 -150q-10 -220 -22 -452 q-14 -226 -18 -432q-1 -48 -1 -90q0 -143 15 -236q10 -66 32 -98q15 -26 39 -26q7 0 15 2q-20 -62 -54 -100t-74 -58q-54 -28 -110 -28q-42 0 -86 16q-100 34 -116 96z" />
<glyph unicode="J" horiz-adv-x="1238" d="M34 590q0 58 4 112q6 34 26 58t46 36q40 20 89 20q15 0 31 -2q66 -8 116 -46q26 -20 46 -48q18 -26 24 -62q-26 -4 -26 -72v-15q0 -63 14 -139q20 -104 60 -198q39 -92 80 -92h2q30 2 48 36q16 34 24 96q11 75 11 180q0 53 -3 114q-10 184 -28 386q-16 170 -32 336 q-16 168 -26 306q-54 4 -116 6q-60 2 -106 8q-66 0 -82 38q-5 11 -5 21q0 27 35 47q26 2 80 4q54 4 128 10q134 12 312 30q178 16 340 40h6q70 -2 70 -76v-6q-2 -82 -70 -126q-43 -7 -98 -7q-22 0 -46 1q-84 4 -124 6q28 -264 44 -492t16 -416q-4 -352 -78 -550 q-76 -198 -258 -210q-28 -2 -52 -2q-106 0 -182 28q-98 36 -162 100q-118 118 -142 304q-16 122 -16 236z" />
<glyph unicode="K" horiz-adv-x="1330" d="M48 612v4q0 272 28 528q30 254 70 434q26 98 102 150q47 32 85 32q23 0 43 -12q16 -12 28 -34q10 -22 14 -56q-14 -40 -22 -94q-8 -52 -14 -114q-10 -114 -10 -242q0 -130 4 -242q16 2 90 90t160 208q36 52 72 106t68 106q58 98 92 178q26 58 26 92q0 14 -4 24 q18 40 52 40q16 0 36 -10q62 -30 108 -98q38 -56 52 -122q4 -18 4 -34q0 -44 -28 -78q-42 -52 -100 -116q-58 -62 -118 -128q-116 -120 -218 -224t-120 -128q16 -40 92 -158q74 -116 166 -238q38 -52 78 -100q38 -48 74 -88q68 -72 116 -100q17 -10 29 -10q22 0 27 34 q100 0 126 -74q10 -28 10 -52q0 -46 -32 -88q-16 -20 -40 -38q-26 -16 -60 -24q-12 -2 -26 -2q-60 0 -118 26q-70 32 -134 90q-68 62 -128 142q-58 82 -110 168q-94 160 -154 296t-76 148q-2 -11 -2 -31q0 -45 12 -137q18 -130 38 -286q12 -84 20 -166q8 -84 10 -156 q-22 -40 -86 -70q-46 -22 -96 -22q-22 0 -44 4q-42 8 -80 32q-38 26 -70 72q-22 134 -32 280q-10 144 -10 288z" />
<glyph unicode="L" horiz-adv-x="848" d="M54 32v20q0 38 4 90q6 118 24 286t38 352q14 122 28 242q12 120 22 230q18 206 20 350v17q0 131 -30 151q26 56 96 58h4q66 0 126 -58q32 -32 58 -82q26 -52 34 -122q22 -126 30 -286q8 -158 10 -320q1 -65 1 -129q0 -127 -3 -247q-4 -180 -4 -296q-1 -31 -1 -56t1 -44 q0 -38 4 -46q54 0 122 -2q10 -1 19 -1q50 0 65 19q32 -12 32 -40q0 -6 -2 -14q-10 -38 -50 -56q-44 -18 -104 -42t-126 -44q-122 -36 -240 -46q-18 -2 -34 -2q-92 0 -136 52q-6 20 -8 66z" />
<glyph unicode="M" horiz-adv-x="1862" d="M80 1456q16 84 70 166q53 78 105 78h5q18 -2 34 -16q16 -12 30 -42q22 -54 44 -146q20 -94 28 -180q4 16 32 88q26 78 74 164q24 46 56 90q30 44 66 76q34 30 72 46q30 12 60 12q10 0 20 -2q46 -6 80 -32q34 -24 60 -62q28 -38 46 -88q20 -50 32 -100q22 -94 26 -176 q3 -55 3 -81q0 -13 -1 -19q16 30 52 110q36 78 92 158q32 42 68 80t78 62q50 30 110 34q9 1 18 1q52 0 110 -29q76 -38 96 -172q17 -112 17 -252q0 -28 -1 -58q-4 -96 -10 -196q-8 -102 -14 -202q-12 -150 -16 -286q-1 -27 -1 -52q0 -100 13 -170q8 -48 26 -78 q16 -32 44 -40q32 -12 48 0q14 12 26 26q14 -30 14 -70q0 -28 -8 -62q-16 -78 -70 -130q-30 -28 -70 -42q-22 -8 -50 -10q-16 0 -36 4q-84 16 -140 68t-90 130q-56 126 -66 300q-5 87 -5 175t5 177q8 96 16 186q10 90 20 170q20 148 30 246q4 35 4 58q0 42 -12 46 q-6 2 -13 2q-43 0 -93 -94q-58 -106 -98 -252q-22 -78 -38 -156q-14 -80 -18 -148q0 -28 -12 -52q-10 -24 -26 -44q-50 -60 -124 -70q-11 -2 -21 -2q-57 0 -73 58q8 80 10 192q1 37 1 75q0 75 -3 151q-6 170 -30 306q-24 138 -76 146h-6q-40 0 -96 -76q-60 -84 -106 -184 q-32 -64 -50 -124q-18 -55 -18 -84v-6q6 -68 14 -150q6 -82 12 -170q10 -160 12 -322q1 -29 1 -56q0 -123 -15 -212q-28 -44 -120 -64q-30 -7 -58 -7q-58 0 -108 31q-30 20 -52 54q-22 36 -30 90q-1 10 -1 26t1 38q2 44 6 104q8 112 20 262q10 150 18 298q4 92 4 173.5 t-4 152.5q-8 142 -50 156z" />
<glyph unicode="N" horiz-adv-x="1232" d="M28 1628v6q0 24 10 40q8 18 26 28q20 8 44 8t52 -8q50 -12 98 -46q46 -34 62 -76q22 -52 38 -116t18 -152q4 16 36 88q32 76 88 160q28 46 64 88q34 42 74 74q38 28 80 44q30 12 62 12q12 0 22 -2q100 -12 158 -92t88 -202q30 -126 34 -286q3 -79 3 -159t-3 -161 q-4 -106 -8 -206q-6 -102 -8 -190q-2 -55 -2 -104q0 -97 8 -168q11 -98 62 -98h6q12 -22 12 -44q0 -38 -32 -80q-48 -64 -138 -64h-8q-50 0 -110 32q-60 30 -124 102q-70 78 -72 284v34q0 189 20 402q18 184 42 356q22 172 26 280q2 24 2 44q0 30 -4 52q-4 34 -20 38 q-9 2 -18 2q-33 0 -70 -28q-48 -36 -94 -94q-68 -90 -118 -196q-44 -100 -44 -145v-7q6 -68 8 -158q4 -88 4 -186q0 -182 -6 -366q-8 -184 -26 -292q-14 -40 -76 -58q-21 -6 -42 -6q-41 0 -78 24q-32 18 -54 56q-24 38 -32 100q-1 11 -1 28.5t1 41.5q0 50 2 120q2 130 6 310 t4 356q-2 224 -16 396q-14 170 -56 184z" />
<glyph unicode="O" horiz-adv-x="1370" d="M38 642v42q0 68 8 140q10 94 32 190q42 180 124 346q82 168 198 280q98 94 220 134q64 22 134 22q60 0 126 -16q30 -26 24 -54q128 -14 216 -106q98 -102 150 -260q28 -86 44 -182q14 -96 18 -198v-40q0 -210 -54 -416q-56 -226 -172 -368q-64 -78 -142 -122t-172 -44h-2 q-108 0 -206 24q-100 24 -184 70q-158 84 -256 228q-98 146 -106 330zM430 660q0 -62 18 -128q16 -64 46 -126q54 -112 138 -192q82 -76 164 -76h8q72 0 138 126t110 308q24 96 38 202q16 108 20 212q2 43 2 84.5t-2 81.5q-2 82 -16 152q-24 130 -80 212q-55 76 -149 76h-9 q-26 36 -26 70q-12 3 -24 3q-41 0 -82 -37q-66 -58 -124 -176q-30 -62 -56 -136q-26 -76 -48 -156q-32 -124 -50 -256q-16 -117 -16 -221v-23z" />
<glyph unicode="P" horiz-adv-x="968" d="M78 424v162q2 84 4 172q0 108 2 216q2 106 4 206q2 182 2 312q-2 128 -12 144q2 42 18 72t36 50q40 32 86 32h6q50 -4 80 -40q8 -26 16 -62q6 -38 8 -66q18 40 116 104q96 66 202 76q12 2 24 2q32 0 62 -8q42 -12 74 -46q78 -78 100 -168q14 -52 14 -106q0 -38 -8 -76 q-12 -76 -48 -150q-36 -76 -84 -144q-92 -128 -212 -226q-100 -80 -186 -118q4 -60 6 -116q6 -100 12 -188q10 -162 22 -266q14 -106 36 -120q-8 -34 -58 -64q-48 -28 -106 -38q-26 -6 -52 -6q-6 0 -12 2q-32 0 -58 10t-46 28t-30 48q-10 28 -14 128q-4 102 -4 244z M334 1514q16 -158 26 -328q8 -136 14 -264q48 22 86 72q50 66 80 152q46 128 48 264v22q0 116 -40 162q-19 22 -51 22q-29 0 -69 -18q-82 -38 -94 -84z" />
<glyph unicode="Q" horiz-adv-x="1400" d="M68 758v34q2 94 16 192q24 180 84 352q62 170 164 288q84 100 198 148q72 30 156 30q48 0 98 -10q28 -22 28 -52q128 -4 222 -92q104 -96 168 -250q32 -84 54 -180q20 -94 30 -196q6 -72 6 -144q0 -52 -4 -106q-8 -126 -34 -242q-48 -216 -160 -368q-26 -36 -56 -64l4 -4 q58 -74 92 -180q8 -20 8 -34q0 -30 -44 -30h-2q-68 0 -106 32q-38 82 -80 138q-48 -18 -102 -20q-30 -2 -58 -2q-270 0 -450 158q-196 174 -224 456q-8 70 -8 146zM434 892q-3 -55 -3 -107q0 -70 5 -135q6 -62 24 -130q18 -66 48 -130q54 -116 136 -200q77 -78 157 -78h11 h14q-44 56 -70 120q-2 8 -2 16q2 46 70 76q40 18 66 18q28 0 42 -18q-12 -22 -4 -46q6 -26 24 -54v-2q54 92 84 238q32 148 38 312q2 43 2 86q0 65 -4 130q-4 108 -22 206q-30 182 -98 302q-63 107 -156 107q-11 0 -22 -1q-16 18 -24 38q-15 5 -30 5q-43 0 -80 -39 q-58 -60 -102 -174q-24 -62 -44 -136q-18 -72 -32 -152q-20 -124 -28 -252z" />
<glyph unicode="R" horiz-adv-x="1206" d="M26 1532q0 4 2 8q6 14 20 20q34 0 98 48q66 48 88 134q6 42 24 64q20 22 42 28q16 4 30 4q32 0 66 -20q52 -26 74 -66l4 -48v-78q24 38 120 90t198 52q44 0 84 -12q40 -14 72 -46q70 -70 88 -146q10 -39 10 -79q0 -35 -8 -71q-12 -62 -44 -122q-32 -58 -72 -112 q-78 -100 -166 -170q-90 -72 -134 -92q64 -10 114 -50q50 -42 90 -104q44 -62 76 -140t60 -158q50 -148 92 -264q40 -118 94 -120q2 -10 2 -20q0 -18 -6 -34q-8 -24 -24 -42q-50 -54 -146 -54t-152 54q-32 40 -58 188q-28 148 -68 300q-22 82 -48 152q-28 72 -62 118 q-32 42 -74 54q-28 8 -62 -6q-8 -200 -8 -348q0 -106 6 -174q4 -68 22 -80q-16 -42 -70 -56q-34 -10 -70 -10q-22 0 -44 4q-40 6 -76 24t-58 46q-22 75 -22 198q0 54 4 116q14 206 38 448q14 130 26 266q10 134 16 264q-20 -20 -57 -20q-17 0 -37 4q-62 12 -84 38 q-8 10 -10 20zM460 986q52 16 94 60q52 54 88 128q52 110 64 232q3 30 3 56q0 78 -27 118q-17 28 -54 28q-24 0 -58 -12q-84 -30 -102 -74q1 -66 1 -133q0 -201 -9 -403z" />
<glyph unicode="S" d="M74 550q0 20 2 38q4 34 16 60q14 26 30 44q46 48 103 48q10 0 21 -2q70 -10 68 -82q-56 -35 -56 -109v-5q4 -78 52 -152q32 -50 80 -88q48 -40 106 -56q31 -9 64 -9q19 0 38 3q54 8 108 44q36 24 48 58q7 22 7 46q0 16 -3 34q-10 82 -72 192q-60 110 -136 232 q-62 102 -126 208q-62 106 -106 206q-44 98 -60 186q-8 38 -8 73q0 47 14 89q22 62 60 106q38 42 86 68q52 26 110 34q26 4 52 4q32 0 62 -6q106 -18 184 -90q74 -70 74 -179v-11v-5q0 -79 -60 -85h-9q-55 0 -83 66q12 32 10 60q-4 28 -16 48q-26 42 -78 56q-23 6 -45 6 q-28 0 -55 -10q-24 -10 -46 -32q-20 -20 -30 -54q-8 -23 -8 -48q0 -29 10 -62q16 -60 56 -128q74 -128 196 -276q124 -148 220 -296q64 -98 106 -192q34 -84 36 -162q0 -10 -2 -20q-6 -120 -44 -204t-98 -138q-112 -98 -274 -100h-18q-154 0 -298 54q-68 24 -116 70 q-48 44 -82 100q-60 102 -76 220q-14 88 -14 148z" />
<glyph unicode="T" horiz-adv-x="1022" d="M38 1718v14q0 60 72 64q160 -10 350 -20q188 -8 326 -10q74 0 124 4q48 2 62 10q38 -20 40 -48q0 -8 -4 -18q-14 -40 -80 -44q-44 -10 -134 -16q-90 -4 -146 -12q8 -134 18 -330t22 -400q6 -106 14 -210q6 -104 14 -198q16 -174 36 -292t44 -132q-2 -42 -16 -68 q-14 -28 -38 -42t-54 -16h-12q-26 0 -52 6q-62 14 -116 56q-54 40 -68 86q-18 64 -28 168q-10 102 -16 232q-8 200 -8 443v99q2 300 10 582q-40 -4 -130 -16q-55 -6 -101 -6q-27 0 -51 2q-70 38 -78 112z" />
<glyph unicode="U" d="M56 1690q0 40 34 82q48 58 130 60q8 0 18 -2q52 -4 110 -36q60 -32 120 -108q28 -34 42 -94t18 -138q1 -29 2 -60q0 -123 -20 -272q-22 -186 -50 -364q-22 -146 -42 -270q-18 -122 -22 -196q-2 -40 4 -62q4 -24 16 -24h6q43 0 90 26q50 30 96 74q70 66 120 148t50 128 q2 64 2 158t2 200q2 198 10 402t30 310q16 40 78 54q17 4 33 4q44 0 83 -28q30 -22 50 -60q22 -40 28 -102v-12q0 -44 -8 -156q-10 -130 -22 -300q-6 -90 -14 -186q-6 -98 -10 -192q-6 -136 -6 -251q0 -69 2 -131q6 -166 48 -174q2 -16 2 -30q0 -23 -6 -40q-8 -30 -28 -46 q-32 -26 -78 -26q-18 0 -38 4q-70 16 -86 48q-22 54 -40 160q-16 104 -16 194q-4 -12 -34 -68t-82 -124q-28 -36 -62 -70q-34 -36 -72 -64q-48 -36 -100 -56q-49 -18 -101 -18h-11q-100 6 -156 82q-56 74 -78 194q-25 120 -25 268q0 30 1 60q6 186 22 372q8 96 16 188 q10 92 14 172q6 82 6 148q0 52 -4 94q-10 88 -58 88h-4q-10 20 -10 42z" />
<glyph unicode="V" horiz-adv-x="1408" d="M40 1716q8 32 30 54q20 24 48 36q38 16 82 16q18 0 38 -2q66 -10 118 -58q66 -64 124 -198q58 -136 110 -310q28 -92 56 -192q28 -102 54 -204q42 -158 82 -314q42 -154 84 -288q14 26 50 200q38 172 78 392q32 172 60 346q30 174 48 298q10 66 14 112q6 46 4 62 q22 34 48 48q26 16 52 18h7q48 0 89 -26q46 -28 62 -50q-24 -32 -54 -170q-28 -136 -64 -324l-42 -210q-24 -110 -50 -222q-50 -212 -116 -406t-152 -314q-32 -44 -96 -48h-16q-54 0 -106 26q-34 18 -62 46q-26 26 -44 64q-2 14 -10 54q-8 38 -22 94q-28 106 -74 258 q-44 154 -96 322q-64 206 -132 404q-66 198 -118 326q-28 70 -50 112t-34 48z" />
<glyph unicode="W" horiz-adv-x="1668" d="M28 1816q14 34 40 50q24 16 54 18h12q66 0 140 -48q82 -50 122 -112q26 -110 32 -268q8 -160 8 -326q0 -86 -2 -170q-2 -86 -2 -160q-1 -47 -1 -90q0 -84 3 -148q4 -96 24 -108q12 14 30 50q18 34 42 82q42 90 92 204q52 114 94 200q17 20 57 20q17 0 39 -4 q74 -10 98 -34q22 -62 44 -138t42 -154q38 -146 66 -262q28 -118 38 -124q6 4 12 40q6 34 14 94q14 112 36 286q20 174 54 360q34 192 84 370q50 176 122 284q16 12 34 16t36 -2q54 -12 92 -76q28 -44 28 -82q0 -16 -6 -32q-4 2 -7 2q-23 0 -47 -86q-28 -102 -58 -270 q-16 -90 -32 -194q-18 -102 -34 -212q-34 -206 -72 -410q-38 -206 -82 -350q-40 -76 -132 -112q-44 -18 -76 -18q-34 0 -56 20q-32 68 -62 156q-32 86 -60 176q-54 170 -94 312q-40 144 -54 166q-20 -26 -74 -138q-54 -110 -114 -242q-34 -70 -66 -138t-60 -124 q-18 -26 -46 -38q-26 -10 -58 -10q-56 0 -110 32q-56 30 -80 70q-56 128 -68 330q-6 111 -6 227q0 93 4 189q8 212 20 410q7 120 7 216q0 64 -3 118q-4 72 -18 120t-40 62z" />
<glyph unicode="X" horiz-adv-x="1346" d="M52 1634q0 12 4 24q6 16 20 30q34 32 98 46q46 10 88 10q18 0 34 -2q40 -4 72 -16t44 -34q14 -20 64 -124q52 -104 124 -256q32 -68 68 -144q66 134 126 266q80 174 128 316q76 42 140 44q24 0 46 -6q68 -18 68 -66q0 -10 -4 -24q-72 -150 -178 -348t-218 -400 q54 -110 110 -222q58 -114 114 -218q102 -196 182 -328q82 -132 116 -136q10 -24 10 -44v-4q-2 -22 -12 -40q-28 -52 -108 -60q-10 -2 -20 -2q-66 0 -112 50q-86 110 -204 314q-114 194 -232 408q-42 -76 -80 -146q-84 -152 -152 -274q-66 -120 -100 -184q-28 -20 -58 -28 q-30 -10 -60 -10h-8q-48 0 -80 20q-26 16 -28 40q0 10 4 20q20 22 54 74q36 52 84 130q86 142 202 346q58 102 114 208l-36 68q-64 120 -122 226q-110 200 -192 332t-108 132q-2 6 -2 12z" />
<glyph unicode="Y" d="M44 1698q32 44 72 66q40 24 82 30q12 2 26 2q60 -2 112 -40q62 -48 68 -146q8 -90 8 -218q-2 -128 -4 -260q-2 -70 -2 -138q0 -66 4 -124q4 -110 20 -180q14 -70 50 -70h2q88 0 158 140q70 142 108 324q22 98 32 198t10 184q24 92 102 106q15 3 29 3q59 0 99 -47 q16 -18 28 -46q10 -28 10 -62q-10 -4 -18 -48q-6 -44 -8 -116q-8 -136 -12 -342q-4 -150 -16 -300l16 4q30 -6 34 -40v-7q0 -28 -26 -53q-16 0 -32 -2l-2 -20q-10 -92 -24 -180q-14 -86 -34 -164q-38 -144 -102 -236q-62 -92 -160 -94h-10q-80 0 -126 30q-50 30 -66 82 q-10 31 -10 66q0 81 50 186q74 150 200 266q26 24 52 44q4 98 6 184q2 110 2 164q-8 -44 -46 -124q-42 -80 -112 -142q-36 -34 -80 -56q-44 -20 -94 -22h-7q-93 0 -153 48q-64 50 -102 134q-38 88 -56 202q-16 112 -22 230q-2 78 -4 152v142q0 124 -10 206q-8 82 -42 84z M582 -26q-1 -7 -1 -13q0 -39 35 -39q24 0 44 24q18 22 34 62q28 74 44 194q6 54 12 110q-16 -20 -30 -42q-30 -44 -56 -86q-26 -44 -44 -84q-34 -76 -38 -126z" />
<glyph unicode="Z" horiz-adv-x="1286" d="M100 178q-2 10 0 20q10 68 40 116q50 76 132 210q82 132 170 278q48 76 94 154q46 76 88 146q78 130 134 222q54 94 62 110q-52 -2 -104 -2q-103 0 -204 8q-152 14 -280 56q-92 50 -96 128v7q0 69 72 85q91 -17 183 -17q59 0 119 7q152 20 306 34q76 6 154 6h12 q84 0 168 -18q40 -50 40 -96v-18q-10 -54 -34 -106q-86 -90 -178 -216q-92 -124 -176 -260q-104 -166 -192 -326q-86 -160 -140 -272q-30 -60 -48 -102q-18 -40 -20 -56q66 -8 152 -28q88 -20 174 -42q132 -30 232 -42q23 -3 41 -3q58 0 57 35q28 -10 50 -24q20 -16 32 -34 q19 -30 19 -61q0 -30 -17 -61q-32 -64 -114 -64h-8q-186 24 -310 36q-124 14 -250 40q-68 12 -142 32q-76 20 -168 50q-50 18 -50 68z" />
<glyph unicode="[" horiz-adv-x="5804" d="M64 466q2 174 100 264q104 94 220 90q90 -2 154 -78t62 -174q0 -44 -16 -80t-42 -62q-46 -48 -106 -54q-62 -8 -98 36q-32 14 -38 88q-4 72 42 86q28 -40 94 -58q68 -16 78 46q8 42 -38 84q-44 40 -98 42q-78 4 -132 -54q-54 -60 -42 -186q8 -96 94 -172q88 -76 214 -74 q88 0 180 38q92 36 188 98q174 114 358 284q184 168 376 316q156 122 318 204t326 82q106 0 214 -30t204 -84q86 -48 160 -108q38 50 78 102q40 54 78 108l-16 22q-48 72 -80 144q-30 72 -34 144q-4 76 20 136q26 62 70 106q80 82 198 102q28 4 52 4q86 0 150 -48 q44 -32 70 -88q28 -54 30 -134q0 -100 -46 -198q-48 -98 -124 -192q-32 -40 -68 -78q56 -50 120 -100q82 -66 160 -132q34 48 76 96q128 148 352 176q102 12 216 -28q112 -40 230 -112q142 -86 288 -196q148 -112 288 -206q76 -52 150 -94t144 -68q132 -48 248 -26 q114 24 204 162q50 -42 62 -108q4 -20 4 -36q0 -38 -20 -56q-106 -94 -234 -102t-270 36q-116 36 -238 98q-122 60 -244 130q-80 44 -158 90q-78 44 -156 84q-140 74 -272 122q-130 46 -238 32q-90 -10 -164 -40q-72 -32 -130 -76q96 -90 168 -182q82 -104 98 -212 q12 -80 -2 -140q-16 -60 -48 -100q-62 -80 -170 -88h-22q-94 0 -174 60q-46 34 -82 90q-34 58 -44 136q-10 68 -2 158q6 88 34 178q12 40 28 78q-104 106 -220 220q-36 34 -68 66l-128 -124q-22 -20 -42 -38q12 -14 22 -26q124 -156 130 -322q2 -80 -20 -140t-60 -98 q-76 -78 -186 -82t-192 58q-44 34 -72 86q-30 54 -32 124q-4 86 44 178q42 80 102 164q-62 60 -146 106q-128 66 -290 66q-164 0 -318 -74q-154 -76 -306 -186q-182 -134 -360 -286q-180 -154 -360 -256q-98 -56 -198 -90t-200 -34t-202 48q-102 46 -168 126q-36 42 -58 94 q-22 50 -22 108q-2 6 -2 14zM2650 498q0 -114 58 -150t100 18q18 22 28 62t8 98q-4 64 -28 126q-12 34 -32 66q-14 -14 -26 -28q-108 -108 -108 -192zM2966 1528q2 -66 36 -130q20 -42 50 -84q14 24 26 46q68 126 64 252q-2 98 -54 116q-52 16 -90 -44q-16 -26 -26 -64 q-10 -40 -6 -92zM3458 368q12 -62 34 -102q20 -42 46 -62q58 -50 114 0q56 48 38 172q-12 82 -82 172q-42 54 -92 110q-18 -34 -32 -68q-46 -114 -26 -222z" />
<glyph unicode="\" d="M12 1690q0 26 10 42q16 28 54 28q10 2 22 0q54 -10 94 -58q-2 -24 12 -64q12 -40 40 -92q48 -100 132 -234q86 -136 184 -282q64 -96 130 -190q66 -96 128 -184q116 -162 202 -282t102 -150q4 -18 4 -40q0 -40 -18 -86q-28 -70 -92 -84q-10 -2 -22 -2q-26 0 -56 12 q-46 16 -98 68q26 32 -30 154q-58 122 -158 292q-54 92 -114 192q-62 102 -126 204q-118 196 -226 380q-110 186 -162 316q-12 36 -12 60z" />
<glyph unicode="]" horiz-adv-x="5804" d="M40 468q0 16 4 36q12 66 64 110q88 -140 202 -162q116 -24 248 24q108 40 224 116t236 162q78 56 156 114t156 110q144 96 282 156q138 62 262 46q224 -28 352 -176q42 -48 76 -98q16 12 32 26q78 64 150 126q50 42 94 82q-32 38 -64 78q-74 94 -122 192t-46 198 q0 80 28 134q26 56 70 88q64 48 150 48q24 0 52 -4q118 -18 198 -102q44 -44 70 -104q24 -62 20 -138q-6 -112 -72 -222q-28 -46 -60 -90q42 -62 94 -124q34 -42 66 -82q72 60 158 106q98 54 204 84q108 30 214 30q198 0 392 -116q194 -118 382 -276q102 -84 202 -172 q98 -88 196 -168q150 -122 294 -206q144 -82 282 -84q124 -2 212 74q86 76 94 172q12 126 -42 186q-52 58 -132 54q-54 -2 -98 -42q-46 -42 -38 -84q12 -62 78 -44q66 16 94 56q46 -14 42 -86t-38 -88q-36 -44 -98 -36q-60 8 -106 54q-26 26 -42 62t-16 80q-2 98 62 174 t154 78q116 4 220 -90q100 -90 100 -264v-14q-2 -58 -24 -108q-22 -52 -58 -94q-66 -80 -168 -126q-102 -48 -200 -48q-158 2 -308 76q-152 76 -300 186q-98 72 -194 152t-194 158q-180 142 -366 248t-382 106q-88 0 -166 -20t-144 -56q-72 -40 -128 -94q60 -84 104 -166 q48 -92 44 -178q-2 -70 -32 -122q-28 -54 -72 -88q-82 -62 -192 -58t-186 82q-38 38 -60 98t-20 140q6 166 130 322l22 28q-30 28 -62 56q-58 52 -112 104q-44 -48 -92 -96q-70 -68 -136 -134q-30 -28 -58 -56q18 -38 30 -78q28 -90 36 -178q6 -88 -4 -158q-10 -78 -44 -136 q-34 -56 -82 -90q-80 -60 -174 -60h-22q-106 8 -170 88q-32 42 -48 100q-14 60 -2 140q16 108 98 212q72 92 168 182l-18 14q-110 82 -274 102q-92 12 -196 -20q-106 -30 -220 -86q-74 -34 -152 -78q-76 -42 -156 -86q-146 -84 -294 -164q-150 -78 -290 -122 q-142 -44 -270 -36t-232 102q-22 18 -22 56zM2106 376q-18 -122 38 -172q56 -48 114 0q26 22 46 62q22 40 34 102q10 58 2 120q-8 60 -34 120q-12 24 -28 50q-32 -36 -62 -72q-96 -112 -110 -210zM2654 1612q-2 -68 18 -136t56 -136q8 -14 14 -28q84 106 90 216q2 52 -8 92 q-10 38 -26 64q-38 60 -90 44q-52 -18 -54 -116zM2952 526q-2 -58 8 -98t28 -62q42 -54 100 -18t58 152q0 44 -34 96t-88 110l-14 14q-54 -94 -58 -194z" />
<glyph unicode="^" d="M52 1020v4q-2 36 38 110t100 162q32 46 68 96q38 48 74 96q88 110 164 192t102 90q22 -8 78 -100q58 -92 124 -208q28 -48 56 -98q30 -48 56 -94q50 -84 90 -140q40 -58 56 -60q20 -18 28 -38q6 -14 6 -28v-6q-4 -40 -42 -60q-40 -20 -74 4q-42 36 -90 104 q-46 68 -92 144q-70 114 -126 212t-74 104q-14 -10 -58 -74q-42 -66 -92 -150q-60 -102 -110 -204q-50 -100 -48 -132q-34 -30 -66 -38q-18 -6 -36 -6q-12 0 -24 4q-50 10 -82 54q-28 38 -26 60z" />
<glyph unicode="_" d="M64 36q0 34 24 62q10 14 26 24q16 8 38 12q56 4 156 4h212q166 -2 318 -4q150 0 178 6q24 -28 32 -84q2 -12 2 -22q0 -38 -20 -60q-12 8 -42 12q-28 4 -72 6q-80 2 -192 -2q-112 -6 -226 -12q-114 -8 -212 -14q-98 -8 -142 -10q-60 0 -76 52q-4 16 -4 30z" />
<glyph unicode="`" horiz-adv-x="510" d="M58 1806q16 52 80 96q42 30 102 30q30 0 64 -10q66 -80 90 -142q22 -60 36 -138q-8 -46 -38 -64q-14 -8 -32 -10h-10q-14 0 -26 2q-28 14 -54 38q-26 26 -50 54q-44 54 -84 102q-42 48 -78 42z" />
<glyph unicode="a" horiz-adv-x="1460" d="M34 306q0 72 20 156q30 122 90 234q60 114 144 196q84 84 174 98q22 4 54 4t66 -4q62 -6 120 -28q30 -12 48 -28q8 28 12 44q12 58 78 58h22q84 -10 120 -76q10 -22 12 -50q2 -26 -10 -58q-34 -36 -68 -174q-32 -140 -54 -304q-10 -72 -18 -142q-6 -70 -10 -136 q-3 -59 -3 -109.5t3 -92.5q6 -82 30 -90q4 -1 9 -1q43 0 119 113q82 126 168 290q56 110 108 218q50 108 84 184q20 8 42 8t40 -4q-36 -82 -92 -210q-54 -128 -122 -258q-66 -128 -140 -240t-150 -170q-40 -32 -80 -46q-20 -6 -40 -6t-38 6q-68 22 -110 74q-42 50 -64 114 q-33 102 -33 213q0 22 1 45q8 138 20 202q-6 -2 -36 -60q-30 -56 -80 -118q-28 -34 -60 -62q-34 -30 -70 -48q-42 -20 -89 -20h-9q-52 0 -108 40q-40 28 -64 72q-22 44 -30 98q-6 32 -6 68zM338 394q-3 -23 -3 -42q0 -74 43 -96q7 -3 14 -3q32 0 76 61q54 76 108 188 q68 138 122 284q16 42 26 74q-26 12 -54 12q-36 0 -72 -18q-58 -28 -108 -92q-50 -66 -86 -142q-54 -114 -66 -226z" />
<glyph unicode="b" horiz-adv-x="1196" d="M28 232v54q2 196 8 370q12 324 22 534q2 48 2 85q0 128 -26 137q12 44 32 76q22 30 48 48q38 28 78 28q12 0 22 -2q52 -10 72 -56q14 -166 16 -338v-58q0 -144 -8 -286q32 66 122 116q78 45 158 45q12 0 24 -1q50 -6 94 -34q46 -30 76 -90q46 -88 50 -214q1 -17 0 -34 q0 -110 -22 -222q-14 -64 -34 -128q56 36 112 80q136 100 216 250q34 12 46 10q12 -4 32 -16q-88 -188 -242 -302q-110 -84 -208 -138q-4 -8 -6 -14q-50 -110 -116 -184t-138 -82q-9 -1 -18 -1q-52 0 -88 39q-32 34 -32 74q0 13 4 26q6 22 24 42t52 36q36 14 92 38 q22 120 26 260v37q0 74 -6 143q-8 84 -30 132q-33 76 -91 76h-3q-62 -4 -92 -90q0 -134 2 -288q1 -78 1 -149t-1 -135q-2 -68 -6 -122q-4 -56 -10 -88q-4 -22 -14 -38q-10 -14 -24 -22q-26 -16 -58 -14q-24 0 -54 8q-68 20 -94 52q-10 178 -10 350zM396 -10q8 -14 42 -6 q18 6 34 50q-20 -8 -34 -12q-50 -18 -42 -32z" />
<glyph unicode="c" horiz-adv-x="1116" d="M20 342q0 74 14 150q30 164 118 314t212 226q34 22 78 22q30 0 64 -12q84 -24 102 -80q6 -18 2 -38q-6 -22 -24 -44q-12 5 -24 5q-45 0 -76 -81q-42 -102 -60 -248q-8 -64 -12 -130q-1 -33 -1 -64.5t1 -61.5q2 -116 24 -200q22 -86 64 -100q15 -5 31 -5q65 0 145 85 q102 106 192 248q48 78 90 154q40 76 68 136q20 4 38 4q20 0 38 -12q-34 -82 -92 -198q-60 -116 -140 -228q-42 -60 -90 -114t-100 -98q-82 -66 -170 -96q-46 -14 -94 -14q-44 0 -92 14q-110 34 -178 106t-98 166q-26 78 -28 166q-2 14 -2 28z" />
<glyph unicode="d" horiz-adv-x="1508" d="M44 348q0 60 10 122q10 64 28 130q20 64 44 124q50 108 118 186q70 76 150 84q18 3 41 3q31 0 71 -5q68 -8 124 -32q20 -8 38 -20q12 80 22 156q22 170 34 294q12 126 14 148q20 56 46 80t54 24h6q50 0 100 -44q54 -48 86 -80q-8 -6 -20 -50q-14 -46 -30 -120 q-28 -140 -62 -354q-32 -216 -54 -436q-10 -96 -16 -188q-6 -94 -10 -176q-1 -38 -1 -73q0 -105 9 -183q12 -104 48 -118q5 -2 11 -2q43 0 121 108q88 122 182 282q60 108 116 214t92 182q22 10 42 10q22 -2 40 -10q-38 -82 -100 -206q-60 -124 -134 -252 q-70 -126 -150 -234q-78 -108 -156 -164q-42 -30 -84 -42q-16 -4 -34 -4q-22 0 -44 8q-66 24 -104 78q-38 52 -58 120q-25 90 -25 189q0 35 3 71q10 118 10 181v19q-4 -12 -14 -36q-8 -26 -22 -58q-24 -60 -68 -130q-42 -68 -106 -108q-42 -26 -92 -34q-14 -2 -28 -2 q-40 0 -86 16q-110 40 -142 170q-20 78 -20 162zM354 308q6 -66 46 -82q26 -10 50 4t46 48q40 64 74 184q34 118 62 258q10 62 20 126q-2 2 -4 2q-22 13 -44 13l-80 -43q-62 -64 -106 -170q-18 -44 -34 -92q-14 -48 -22 -96q-11 -56 -11 -105q0 -24 3 -47z" />
<glyph unicode="e" horiz-adv-x="1130" d="M34 374q0 66 10 132q12 76 34 148q24 72 56 136q62 120 154 196q94 78 208 78q48 0 88 -16q38 -18 64 -46q52 -54 58 -138q1 -9 1 -18q0 -73 -45 -146q-40 -70 -120 -128q-56 -42 -136 -68q0 -42 2 -84q0 -62 6 -120q10 -108 36 -186q24 -80 62 -92q16 -6 34 -6 q63 0 136 80q94 100 178 236q44 74 84 148q38 74 66 134q20 6 38 6t38 -12q-34 -82 -92 -198q-58 -114 -136 -222q-42 -60 -90 -112q-46 -54 -98 -96q-80 -62 -168 -90q-42 -14 -86 -14q-48 0 -98 16q-76 24 -130 72t-88 112q-48 90 -60 202q-6 48 -6 96zM412 578 q22 10 42 22q54 34 88 76q62 78 62 155q0 81 -42 81h-4q-68 -4 -104 -114q-32 -98 -42 -220z" />
<glyph unicode="f" horiz-adv-x="1096" d="M70 772v4q2 30 34 42h26q26 240 84 444q66 236 172 332q42 32 96 44q30 6 60 6q24 0 48 -4q116 -24 142 -164q7 -40 7 -82q0 -105 -43 -222q-32 -86 -88 -170q-56 -82 -136 -148q-16 -14 -34 -26q-6 -114 -10 -234q-6 -154 -6 -310v-70q24 4 52 10q62 14 126 42 q122 52 234 146t164 218q28 10 42 8q16 -2 36 -10q-40 -94 -96 -168q-58 -74 -120 -128q-120 -102 -242 -146q-120 -44 -182 -46q50 -16 100 -60q48 -46 90 -110q78 -118 118 -270q20 -78 20 -146q0 -64 -18 -118q-18 -58 -58 -96q-42 -40 -112 -52q-22 -4 -46 -4 q-20 0 -44 4q-48 6 -82 24q-66 44 -116 132q-50 86 -86 204q-66 218 -84 510q-10 134 -10 267q0 146 12 291h-24q-26 26 -26 56zM424 44l4 -56q14 -262 50 -438q33 -163 89 -163q4 0 9 1q64 16 68 100v11q0 80 -28 179q-40 130 -110 254q-42 72 -82 112zM454 1022 q18 24 32 48q34 60 58 122q46 110 56 200q3 29 3 49q0 40 -13 43q-22 6 -42 -28t-38 -100q-32 -120 -54 -324q0 -6 -2 -10z" />
<glyph unicode="g" horiz-adv-x="1224" d="M26 436q0 56 10 116q24 162 106 304q80 144 178 192q56 26 112 26q50 0 100 -22q90 -42 124 -102v30q2 24 12 40t24 24q17 10 36 10q30 0 66 -22q62 -36 68 -102q-2 -278 -6 -496q-2 -114 -6 -212q36 40 76 84q132 146 206 296q22 6 40 6q18 -2 38 -10q-42 -92 -104 -182 q-64 -90 -134 -174q-64 -78 -128 -148q-2 -24 -2 -46q-16 -312 -62 -470q-46 -156 -142 -212q-58 -32 -104 -32q-38 0 -66 24q-64 54 -66 166q0 60 18 130q20 72 62 146q28 48 78 108q36 42 80 90q-2 102 -6 190q-4 90 -4 134q-8 -38 -60 -116q-54 -78 -130 -126 q-32 -20 -68 -30q-19 -6 -38 -6q-16 0 -32 4q-88 18 -146 66t-88 114q-34 68 -40 152q-2 28 -2 56zM354 342v-21q0 -92 32 -103q5 -1 10 -1q41 0 98 89q66 100 110 266q26 90 40 194q6 44 8 88q-28 42 -56 52q-28 8 -54 -8q-46 -28 -86 -118q-40 -92 -66 -196 q-32 -130 -36 -242zM504 -432q0 -72 24 -108t48 -12q48 54 58 214q6 104 6 210q-64 -74 -92 -130q-24 -48 -34 -92q-10 -46 -10 -82z" />
<glyph unicode="h" horiz-adv-x="1396" d="M64 1522q26 32 54 46q26 10 50 10h10q56 -6 104 -50t62 -94q4 -98 4 -186q0 -110 -6 -204q-8 -172 -10 -358q8 20 38 80q32 62 92 108q32 24 72 40q31 11 68 11q11 0 22 -1q62 -6 100 -48q40 -44 62 -110q24 -70 34 -158t12 -180q2 -85 2 -162.5t-2 -147.5v-28 q0 -115 30 -126q6 -2 12 -2q41 0 108 92q76 108 150 240q50 88 90 170t60 126q20 8 38 10q20 0 40 -16q-22 -50 -70 -150q-46 -100 -110 -208q-32 -56 -68 -112t-72 -102q-72 -90 -144 -142q-50 -36 -98 -36q-20 0 -38 6q-68 22 -108 76q-40 52 -62 124q-24 74 -30 162 q-4 66 -4 132v44q4 162 14 290q2 27 2 48q0 81 -30 86q-5 1 -9 1q-41 0 -79 -47q-42 -54 -70 -124q-20 -46 -30 -92q-12 -46 -12 -78q-2 -106 -4 -316q-14 -56 -64 -100q-41 -36 -80 -36q-9 0 -18 2q-22 4 -40 20t-30 46q-18 111 -18 266v32q0 178 6 364q4 98 8 192 q4 96 6 182q1 53 1 102q0 96 -5 172q-8 112 -40 134z" />
<glyph unicode="i" horiz-adv-x="898" d="M80 244q0 18 2 36q2 86 12 174q20 164 40 300q9 53 9 88q0 55 -21 68q14 58 96 70q18 2 32 2q62 0 104 -40q18 -14 28 -38q8 -24 8 -56q0 -8 1 -18q0 -39 -7 -108q-10 -86 -22 -186q-6 -52 -12 -106q-4 -52 -8 -102q-1 -30 -1 -57q0 -55 5 -99q6 -66 38 -78q9 -3 20 -3 q22 0 48 15q36 20 76 62q72 80 146 208t128 240q18 4 38 6q18 0 36 -12q-26 -68 -70 -154q-42 -86 -96 -172q-34 -56 -74 -108q-38 -52 -80 -98q-78 -82 -164 -126q-52 -26 -106 -26q-34 0 -66 10q-58 18 -88 68q-30 48 -42 116q-10 58 -10 124zM128 1350v6q0 48 56 84 q58 34 108 34h6q48 -2 86 -46q38 -46 42 -92v-6q0 -32 -34 -62q-36 -30 -70 -30h-4q-56 2 -120 30q-66 26 -70 82z" />
<glyph unicode="j" horiz-adv-x="878" d="M32 -472q0 58 18 126q20 72 62 144q44 80 146 188q0 52 2 106v94q0 140 -4 278q-6 184 -18 306q-6 68 -14 110t-18 50q0 20 10 36q8 14 22 26q22 18 54 24q24 6 50 6h14q50 -2 90 -26q42 -24 46 -66q0 -298 -2 -522q-2 -96 -4 -182q24 28 50 58q68 78 128 158 q58 80 98 160q22 6 40 6q18 -2 38 -10q-80 -172 -218 -332q-74 -84 -140 -162q-2 -48 -4 -90q-18 -310 -66 -452q-48 -140 -144 -196q-58 -32 -104 -32q-38 0 -68 24q-62 52 -64 164v6zM132 -432q2 -72 26 -108t46 -12q10 10 18 42t14 82q10 90 16 228q0 24 2 50l-2 -4 q-50 -60 -74 -104q-24 -48 -34 -92q-12 -46 -12 -82zM190 1386q0 38 42 70q36 26 70 26h12q58 -8 126 -42q66 -34 68 -94q0 -56 -68 -90q-58 -30 -106 -30q-10 0 -20 2q-50 6 -86 56q-38 52 -38 102z" />
<glyph unicode="k" horiz-adv-x="1292" d="M52 1496q12 100 98 146q48 26 88 26q30 0 54 -16q20 -12 30 -34q12 -22 14 -56q0 -42 2 -112t2 -156q1 -80 1 -164.5t-1 -173.5q0 -178 -4 -288q14 2 66 62q50 58 106 138q68 98 120 196q36 70 36 107q0 15 -6 25q35 31 70 31l34 -7q52 -24 74 -84q10 -27 11 -61 q0 -6 -1 -11q0 -42 -20 -86q-72 -122 -172 -204t-150 -110q50 -16 84 -56q36 -38 60 -92q26 -58 40 -126q16 -68 24 -136q18 -128 30 -228q10 -102 42 -110q12 -2 30 12q20 16 42 44q40 54 90 140q48 88 96 180q48 94 86 180q40 84 58 126q20 6 42 8q20 0 36 -16 q-18 -50 -62 -150q-42 -98 -96 -208q-30 -56 -62 -112q-30 -56 -64 -108q-60 -92 -122 -150q-50 -48 -96 -48q-10 0 -18 2q-72 14 -118 58q-44 46 -72 106q-30 66 -44 142t-24 152q-18 140 -40 240q-18 81 -77 81q-15 0 -33 -5q-3 -24 -3 -91q0 -33 1 -77v-56 q0 -118 -6 -278q-10 -72 -88 -90q-18 -4 -36 -4q-55 0 -96 44q0 92 2 264t2 366v202q-2 102 -4 196q-6 170 -18 292q-14 122 -38 138z" />
<glyph unicode="l" horiz-adv-x="908" d="M44 236v14q2 154 22 324q24 204 62 404t54 332q6 56 6 95v19q0 44 -18 50q14 58 100 106q52 30 92 30q26 0 50 -14q18 -12 28 -36q12 -22 12 -60q2 -18 -2 -54q-4 -38 -10 -90q-14 -98 -36 -238q-22 -142 -44 -296q-14 -100 -26 -202t-18 -194q-8 -100 -8 -184 q0 -60 4 -110q8 -120 58 -136q8 -3 17 -3q52 0 117 91q76 108 148 248q38 76 74 150q34 74 62 134q20 4 38 6q18 0 38 -12q-46 -116 -136 -294t-202 -310q-74 -88 -156 -136q-54 -30 -106 -30q-30 0 -58 8q-46 14 -78 52t-52 94q-32 98 -32 242z" />
<glyph unicode="m" horiz-adv-x="1980" d="M34 1052q10 42 32 66q20 22 48 28q10 2 22 2q52 0 110 -48q72 -58 94 -138q6 -62 20 -186q8 28 50 96q42 66 104 114q34 26 74 40q28 10 57 10q12 0 25 -2q34 -4 60 -26q24 -20 44 -50q46 -70 64 -166q16 -96 16 -138q12 32 32 78q18 44 44 90q48 88 126 152 q55 46 132 45q31 0 66 -7q70 -16 108 -74q40 -58 56 -144q15 -72 15 -157q0 -19 -1 -39q-2 -108 -14 -218q-10 -72 -20 -140q-10 -70 -20 -132q-20 -114 -28 -190q-4 -30 -3 -49q0 -31 9 -35q8 -3 16 -3q33 0 78 45q56 56 118 148q32 48 66 104q34 54 64 112q60 106 108 202 q48 98 70 146q20 6 38 4q20 -2 40 -12q-28 -62 -80 -172q-50 -110 -116 -228q-66 -116 -140 -218q-74 -104 -152 -160q-42 -30 -84 -40q-20 -6 -40 -6q-22 0 -42 6q-60 18 -94 74t-50 136q-16 84 -16 186v50q0 76 4 154q6 124 14 236q5 65 5 116q0 38 -3 68q-4 40 -14 62 q-10 24 -28 28h-4q-34 0 -74 -96q-44 -104 -82 -228q-24 -84 -44 -160q-20 -78 -30 -122q-24 -26 -84 -34q-6 -1 -12 -1q-49 0 -78 59q10 74 12 148q1 24 1 47q0 47 -3 91q-8 122 -36 204t-66 90q-8 2 -17 2q-43 0 -91 -42q-60 -50 -98 -126q-22 -40 -34 -84 q-14 -44 -14 -86l6 -438q-72 -68 -158 -70h-4q-83 0 -136 82q-2 82 -2 186q2 102 4 208q2 70 2 136q1 34 1 66t-1 62q0 114 -10 192q-8 80 -32 94z" />
<glyph unicode="n" horiz-adv-x="1396" d="M20 130q0 76 6 168q4 92 10 188q10 176 12 326v34q0 120 -26 146q22 20 54 24q13 2 26 2q20 0 42 -4q50 -10 96 -38q44 -28 52 -62q0 -38 4 -116q12 20 64 88q50 68 124 118q40 28 86 42q28 8 56 8q18 0 38 -2q94 -18 130 -158t44 -314q4 -105 4 -208v-68v-65 q0 -93 4 -161q2 -50 8 -80q8 -30 20 -34q6 -2 12 -2q42 0 108 92q78 108 150 240q50 88 90 170t60 128q20 6 40 8q18 0 38 -16q-22 -50 -70 -150q-46 -100 -108 -208q-34 -56 -70 -112t-72 -104q-70 -90 -142 -140q-50 -36 -98 -36q-20 0 -40 6q-76 26 -120 84 q-46 58 -70 136q-26 82 -32 176q-4 58 -4 115q0 38 2 77q8 176 28 314q9 63 9 98q0 43 -13 46q-7 2 -14 2q-39 0 -88 -54q-58 -64 -102 -150q-30 -58 -48 -116q-18 -56 -18 -96q2 -114 6 -340q-24 -50 -82 -76q-37 -15 -72 -15q-20 0 -40 5q-30 6 -54 28q-26 20 -40 56z" />
<glyph unicode="o" horiz-adv-x="1214" d="M12 540q0 160 66 296q42 92 114 162q70 70 174 106q34 10 62 10q56 0 88 -34q30 -33 30 -63q0 -8 -2 -15q16 8 36 14q35 11 66 11q16 0 30 -3q44 -8 78 -36q62 -50 94 -154t32 -228q0 -82 -12 -168q-4 -18 -6 -36q24 6 48 14q76 28 130 78q54 48 72 86q26 6 42 8t38 -10 q-14 -34 -40 -72t-60 -70q-68 -64 -170 -98q-36 -12 -78 -16q-6 -24 -14 -48q-46 -148 -136 -250q-88 -104 -218 -104q-102 0 -184 48q-84 48 -142 126q-110 144 -132 356q-6 46 -6 90zM264 500q8 -64 22 -126q14 -60 32 -116q34 -102 76 -168q43 -66 84 -66h2q68 0 106 118 q32 100 46 226q-56 32 -102 96q-68 90 -94 198q-16 58 -16 114q0 58 18 106q18 46 52 82q12 12 28 24q-15 2 -29 2q-42 0 -77 -14q-50 -20 -84 -64q-52 -68 -64 -180q-7 -56 -7 -114t7 -118zM584 844v-21q0 -54 8 -123q14 -98 48 -192l4 -12l2 46q3 43 3 84q0 20 -1 40 q-2 110 -16 182q-11 65 -28 65q-2 0 -4 -1q-14 -6 -16 -68z" />
<glyph unicode="p" horiz-adv-x="1272" d="M54 992q50 48 94 48q16 0 30 -6q58 -22 102 -94q16 -72 20 -168q2 -98 4 -134q4 4 20 58q18 56 54 118q20 34 44 64q26 32 56 54q40 26 88 32q12 2 26 2q39 0 84 -18q44 -18 76 -60q32 -40 52 -96q38 -104 40 -244v-20q0 -119 -22 -232q90 58 172 122q92 76 130 166 q24 6 48 6t34 -6q-46 -112 -128 -192q-84 -82 -178 -140q-54 -32 -106 -60q-28 -92 -70 -168q-62 -110 -148 -144q-22 -10 -72 -10t-92 22q-22 12 -40 32q-16 20 -22 52q-4 20 14 44q18 22 52 48q60 42 152 90q16 44 32 94q24 84 34 176q4 32 4 62q0 55 -12 104 q-12 48 -36 88t-64 64q-22 14 -42 14q-92 0 -136 -290q-28 -183 -28 -464q0 -261 24 -606q-10 -30 -58 -44q-32 -10 -66 -10q-18 0 -36 2q-28 4 -54 14q-26 12 -44 30t-26 42q-6 26 0 58q6 -2 12 -2q31 0 50 64q20 78 28 208q4 70 4 152t-2 168q-6 198 -22 400 q-18 200 -36 336l-20 120q-10 46 -20 54zM440 -6q6 -10 14 -10q21 0 58 58q10 16 18 32q-18 -8 -34 -16q-34 -18 -50 -34t-6 -30z" />
<glyph unicode="q" horiz-adv-x="1312" d="M30 358v28q6 82 30 166q44 158 138 288q94 132 190 154q44 10 98 10q26 0 54 -2q86 -8 106 -68q12 -24 6 -40q-6 -18 -28 -28q-13 13 -29 13q-32 0 -73 -51q-62 -74 -118 -190q-24 -48 -44 -100t-36 -104q-26 -92 -28 -162q0 -70 38 -84q5 -2 11 -2q45 0 107 104 q68 118 132 264q50 120 88 230t46 156q10 52 52 54q42 0 78 -40q16 -16 28 -40t18 -54q-8 2 -20 -24q-12 -24 -26 -68q-24 -84 -54 -222q-28 -140 -54 -298q-16 -100 -30 -200q40 22 90 64q106 90 204 200q66 74 120 146q52 72 80 124q20 6 42 10t40 -6q-26 -54 -68 -118 q-44 -66 -98 -132q-100 -124 -214 -226t-192 -110q70 -114 106 -216q36 -100 46 -184q4 -36 4 -69q0 -106 -44 -173q-54 -80 -134 -80h-10q-46 2 -78 30q-34 28 -54 72q-36 74 -48 180q-8 88 -8 182v38q4 168 26 314q22 144 30 172q-10 -14 -48 -80t-114 -102 q-40 -20 -92 -22q-54 0 -120 28q-48 22 -80 60t-48 86q-18 56 -18 122zM672 -472q4 -124 40 -128h3q39 0 47 88q2 20 2 41q0 81 -24 187q-16 72 -46 148l-4 12l-4 -42q-15 -147 -15 -258q0 -25 1 -48z" />
<glyph unicode="r" horiz-adv-x="1066" d="M4 580q20 38 52 106q30 68 64 144q10 22 18 42q-34 22 -58 46q-66 66 -68 152v6q0 84 52 138q28 30 72 44q30 10 64 10q20 0 40 -2q68 -10 68 -88q-2 -78 -36 -180l-24 -64h2q26 0 56 8q56 12 120 30q58 18 105 18h9q26 0 46 -8q20 -10 32 -30q4 -12 4 -42q0 -41 -8 -116 q-16 -128 -32 -280q-14 -122 -20 -236q-3 -46 -4 -84q0 -58 8 -102q4 -40 18 -62q12 -22 32 -22q52 0 132 108t156 236q50 86 90 166t60 126q20 4 38 4q20 0 38 -6q-34 -90 -118 -252q-82 -162 -184 -294q-68 -90 -140 -148t-138 -58h-2q-200 2 -286 224q-38 100 -38 255 q0 192 58 467q-38 2 -70 8q-22 -48 -46 -96q-64 -126 -82 -170q-24 -4 -42 -6q-18 0 -38 8zM170 1050v-17q0 -40 8 -63q14 36 26 70q21 60 21 84q0 14 -7 14h-5q-39 0 -43 -88z" />
<glyph unicode="s" horiz-adv-x="1114" d="M54 874q0 62 40 128q20 34 50 54q30 22 64 32q36 10 74 10q32 0 66 -8q72 -16 120 -64q26 -24 42 -56q14 -32 16 -70q-16 -50 -52 -52h-9q-32 0 -65 12q1 14 1 26q0 31 -7 52q-10 32 -30 50q-27 24 -62 24q-11 0 -22 -2q-50 -8 -70 -48q-8 -15 -8 -30.5t8 -31.5 q16 -30 56 -66q72 -64 192 -142q122 -78 220 -180q64 -68 104 -144q26 16 50 32q146 96 182 186q22 8 38 8q18 2 44 -6q-36 -90 -138 -176q-70 -60 -146 -116q16 -52 16 -110q0 -94 -32 -170q-30 -74 -80 -128q-42 -44 -92 -76t-102 -50q-70 -24 -134 -24q-26 0 -54 6 q-90 14 -128 76q-18 28 -18 56q0 16 6 32q16 46 62 94q48 50 120 102q30 22 64 44v2q4 30 4 58t-4 54q-10 38 -32 78q-24 38 -56 78q-58 72 -132 146q-72 74 -118 152q-38 66 -46 138q-2 10 -2 20zM268 -110q13 -23 30 -23q14 0 30 15q36 34 66 102q12 28 22 60 q-54 -36 -90 -64q-34 -28 -50 -52q-16 -22 -8 -38z" />
<glyph unicode="t" horiz-adv-x="938" d="M18 1286v4q2 44 32 46q44 2 86 2q32 0 64 -2q2 18 6 34q12 74 18 122t0 56q4 16 12 26t20 18q20 10 46 10q34 0 76 -20q74 -34 86 -100q2 -8 -2 -52q-6 -44 -14 -108h24q46 0 80 2t50 12q22 -16 22 -42q0 -4 -2 -6q-2 -32 -28 -46h-158q-14 -102 -32 -236 q-26 -188 -44 -376q-16 -156 -22 -294q-1 -34 -1 -66q0 -94 9 -160q8 -48 22 -78t36 -36q8 -3 17 -3q52 0 117 91q76 108 146 248q40 76 74 150q36 74 64 134q18 4 38 6q18 0 38 -12q-48 -116 -136 -294q-90 -178 -202 -310q-74 -88 -156 -136q-54 -30 -108 -30q-28 0 -56 8 q-48 14 -80 54q-32 38 -54 96q-36 108 -38 266v28q0 146 16 306q22 216 60 424q22 124 40 222q-56 2 -130 4q-36 -4 -36 38z" />
<glyph unicode="u" horiz-adv-x="1274" d="M22 480v16q2 144 16 286q16 142 18 234q16 40 68 50q18 4 38 4q34 0 66 -10q28 -8 54 -24t44 -40q0 -84 -8 -184t-16 -198q-18 -184 -24 -330q-1 -17 -1 -31q0 -114 41 -121q7 -1 14 -1q54 0 100 57q52 64 88 152q22 56 36 114t18 102q4 120 14 360q20 34 74 50 q21 5 42 5q33 0 64 -13q30 -10 52 -36q24 -24 36 -62q-20 -8 -44 -124q-22 -118 -36 -266q-8 -64 -12 -130q-6 -64 -8 -122q-2 -55 -2 -102t2 -86q6 -76 26 -80q4 -1 8 -1q42 0 108 97q72 106 140 232q54 104 96 196q42 90 52 118q22 12 44 10t30 -22q-12 -30 -60 -136 q-48 -108 -114 -230q-28 -52 -60 -102q-30 -50 -62 -96q-60 -82 -120 -130q-46 -36 -88 -36q-14 0 -28 4q-54 14 -88 46q-32 32 -52 70q-34 74 -34 158v130q-10 -22 -48 -92q-38 -74 -106 -124q-36 -26 -80 -40q-20 -6 -42 -6q-26 0 -54 8q-68 16 -110 70q-40 54 -62 132 q-18 62 -24 136q-6 68 -6 138z" />
<glyph unicode="v" horiz-adv-x="1210" d="M4 980v18q0 50 66 82q42 20 84 20q28 0 56 -8q30 -8 58 -30q26 -20 46 -54q-24 -8 -24 -55q0 -24 6 -57q18 -100 64 -230q36 -102 80 -206q46 -106 84 -180q22 -42 40 -72q18 -28 30 -42q10 14 40 98q16 52 34 110q-50 36 -84 122q-44 112 -44 234v16q0 56 12 108 q12 60 42 102q20 30 50 48t68 22h17q75 0 117 -32q46 -38 62 -104q9 -39 9 -86q0 -35 -5 -74q-12 -94 -42 -194q-18 -66 -42 -132l-2 -4q4 2 8 2q40 6 78 22q72 32 128 92q56 58 76 100q24 6 40 8q18 2 38 -10q-26 -64 -90 -142t-160 -116q-52 -20 -112 -22h-30l-24 -58 q-48 -114 -96 -206t-76 -130q-10 -6 -32 -6q-14 0 -34 2q-48 8 -98 26q-28 8 -52 20t-40 26q-60 92 -110 196t-90 208q-76 192 -114 358q-32 144 -32 210zM702 584q0 -36 6 -70q24 92 40 174q9 50 9 76q0 30 -11 30h-2q-20 -2 -32 -68q-10 -58 -10 -121v-21z" />
<glyph unicode="w" horiz-adv-x="1596" d="M22 1042q58 50 136 56h28q60 0 110 -22q34 -16 58 -40q24 -26 34 -58q-6 -64 -20 -174t-26 -230q-10 -118 -16 -230q-3 -55 -3 -100t3 -80q4 -38 14 -60q8 -22 24 -22h2q27 0 62 60q34 62 62 144q18 56 32 110q12 56 14 98q6 50 80 56q10 1 19 1q59 0 95 -33 q12 -8 20 -20q6 -12 8 -26q4 -50 10 -140q8 -90 32 -162q14 -40 34 -66q22 -28 52 -36q3 -1 7 -1q35 0 75 93q46 100 82 238q0 2 2 6q-14 14 -24 28q-38 46 -66 106q-48 108 -52 236v9q0 119 50 189q22 28 50 44q30 16 70 16q98 -2 150 -70t68 -172q6 -45 6 -95v-25 q-2 -64 -12 -130q-10 -62 -26 -122q34 6 64 24q66 38 112 102q46 62 64 98q20 8 40 8t40 -12q-24 -52 -86 -140q-60 -88 -154 -134q-46 -24 -104 -28q-20 -58 -46 -114q-62 -134 -152 -220q-70 -67 -147 -67q-20 0 -41 5q-40 8 -70 32q-28 24 -50 58q-42 62 -60 136 q-20 72 -28 108q-10 -40 -50 -122q-40 -84 -98 -154q-38 -46 -82 -76q-38 -26 -78 -26h-10q-86 6 -142 54q-54 46 -88 120q-34 78 -48 178q-12 98 -16 202v136q2 68 4 130q4 118 4 206t-22 120zM1064 694q6 -66 22 -132q6 24 10 50q18 108 18 178q0 38 -6 60t-20 22 q-18 0 -24 -52q-3 -27 -3 -58.5t3 -67.5z" />
<glyph unicode="x" horiz-adv-x="1376" d="M6 578q14 30 38 86q26 56 58 118q46 94 106 172q56 74 110 74q4 0 10 -2q74 -8 142 -104q66 -96 124 -226l34 -80q68 106 134 208q74 116 134 204q22 22 64 22h6q46 -2 62 -30q-22 -42 -112 -184q-92 -142 -208 -312l-28 -42q14 -32 26 -64q46 -126 86 -220 q38 -92 70 -102q11 -4 23 -4q49 0 109 66q76 82 148 200q40 64 74 132q36 66 64 126q18 6 38 6q18 0 36 -12q-16 -44 -42 -96q-24 -54 -54 -112q-58 -104 -130 -210q-74 -108 -158 -182q-68 -60 -140 -88q-40 -16 -80 -16q-32 0 -64 10q-46 14 -84 50q-36 36 -68 88 q-36 56 -64 128q-64 -88 -118 -156q-70 -90 -100 -108t-54 -18q-28 0 -50 24q-28 32 -28 62q0 16 8 32q24 -4 56 18q34 22 74 64q74 80 166 212l2 2q-14 48 -26 98q-30 120 -50 230q-22 110 -38 180q-10 38 -18 60t-18 24h-3q-21 0 -53 -50q-34 -54 -66 -122 q-22 -46 -40 -90l-30 -70q-18 -6 -40 -4q-20 0 -38 8z" />
<glyph unicode="y" horiz-adv-x="1172" d="M24 534v6q0 60 2 118q4 60 8 112q8 100 12 172q1 14 1 26q0 47 -13 58q26 50 112 52h2q84 0 140 -46q18 -16 32 -36q12 -20 14 -46q-10 -80 -18 -166q-6 -86 -8 -168q-2 -57 -2 -108q0 -86 6 -156q10 -110 40 -110h2q43 0 90 102q48 104 80 246q16 80 26 162t10 158 q4 30 14 48q12 20 30 30q22 13 48 13q35 0 76 -23q72 -38 78 -118q-10 -4 -14 -32t-8 -72q-3 -57 -3 -136q0 -39 1 -84q0 -136 -4 -290q0 -16 -2 -30q32 36 66 74q70 80 132 164t104 168q22 6 40 8q20 2 42 -6q-46 -98 -112 -192t-138 -182q-70 -82 -138 -158v-52 q-6 -104 -16 -204q-20 -182 -66 -322t-132 -182q-56 -26 -102 -26h-10q-48 4 -80 34q-56 51 -56 163v15q4 124 84 266q50 90 168 210q1 53 1 103t-1 97v140q-8 -36 -42 -100q-38 -66 -94 -116q-30 -26 -66 -42q-34 -16 -72 -16q-80 0 -132 38q-52 40 -80 106q-32 66 -42 154 t-10 176zM436 -460q28 -52 53 -52q4 0 9 2q24 10 38 84q12 72 18 176q4 54 6 114q-68 -80 -96 -140q-40 -80 -40 -133q0 -30 12 -51z" />
<glyph unicode="z" horiz-adv-x="840" d="M26 22v6q2 66 32 100q44 60 98 134q56 72 114 148q106 138 194 256q86 118 90 142q-76 -13 -141 -13q-54 0 -101 9q-102 20 -174 56q-60 32 -64 124v17q0 73 32 77q4 -38 102 -46q60 -4 126 -4q44 0 92 2q96 4 182 10q88 8 122 8h11q70 0 79 -72q2 -16 2 -30 q0 -58 -30 -100q-134 -144 -282 -322q-148 -176 -206 -380q13 -5 52 -5q20 0 46 1q78 4 170 4q50 0 98 -2q50 -2 90 -8q28 -47 28 -98q0 -14 -2 -28q-12 -68 -102 -72q-18 12 -122 20q-106 8 -234 10q-68 2 -136 2t-126 -2h-3q-37 0 -37 56z" />
<glyph unicode="{" horiz-adv-x="642" d="M24 890q70 58 136 142q68 86 74 164q-4 58 -44 134t-66 164q-14 48 -18 100t10 106q16 64 90 146q72 82 156 134q46 28 90 44q32 10 58 10q12 0 24 -2q34 -4 46 -26t-2 -58q-42 6 -76 -6q-36 -12 -66 -36q-54 -44 -90 -110q-34 -66 -46 -108q-20 -76 14 -154t70 -156 q18 -40 32 -82q12 -42 10 -84q-2 -48 -18 -88q-16 -38 -40 -72q-42 -60 -94 -96t-66 -52l42 -18q28 -14 62 -34q62 -38 126 -100q64 -64 78 -152q8 -48 0 -104t-24 -114q-30 -108 -70 -212q-38 -102 -36 -162q4 -114 46 -214q42 -98 158 -96q18 -26 18 -50q0 -6 -2 -14 q-6 -30 -38 -30h-4q-40 0 -86 16t-90 44q-84 52 -146 134q-64 84 -66 168q0 68 10 130t26 120q30 108 62 200q30 92 20 172q-14 82 -96 176q-82 92 -174 126z" />
<glyph unicode="|" horiz-adv-x="1792" d="M28 1516q0 8 2 16q6 122 92 202t196 80q60 -2 120 -30t112 -92q70 -84 96 -182t20 -202q-4 -50 -10 -100q88 -30 186 -44q154 -22 308 -6q154 18 272 74q62 32 112 74q48 44 78 98q24 46 30 96q6 48 -2 94q-16 86 -78 152q-60 66 -142 84q-34 8 -58 6q-22 -4 -34 -16 q-36 -32 2 -92t88 -30q26 -18 24 -70q-2 -54 -62 -80q-60 2 -100 22t-64 50q-44 60 -30 142q14 80 76 130q36 26 82 38q24 6 48 6q28 0 58 -6q50 -12 100 -40q50 -30 92 -74q78 -80 110 -202q10 -38 10 -78q0 -88 -48 -182q-70 -144 -232 -238q-162 -92 -362 -130 q-106 -20 -218 -22q-112 -4 -222 12q-40 6 -80 14q-14 -38 -30 -76q-84 -200 -158 -362q-24 -2 -44 -2h-12l-26 2q44 92 90 196q46 102 84 206q10 28 18 56q-80 24 -154 60q-144 68 -238 186q-58 72 -80 142q-22 62 -22 118zM284 1540q0 -28 8 -58q10 -30 32 -60 q82 -104 222 -170q14 -8 30 -14q8 48 12 96q12 184 -98 310q-62 74 -132 28t-74 -132z" />
<glyph unicode="}" horiz-adv-x="654" d="M68 2012q0 6 2 12q6 30 38 30h2q42 2 88 -14t90 -44q84 -52 146 -136q62 -82 64 -168q2 -66 -8 -128q-12 -62 -28 -122q-28 -106 -60 -198q-32 -94 -20 -174q14 -80 96 -174t172 -126q-68 -58 -134 -144q-68 -86 -76 -162q4 -32 18 -68q14 -38 34 -78q34 -76 62 -168 q30 -90 4 -192q-16 -62 -88 -144t-158 -136q-44 -28 -90 -42q-30 -10 -56 -10q-14 0 -26 2q-32 4 -44 26t2 58q40 -6 76 6t64 36q56 44 92 110q34 64 46 106q20 78 -14 156q-36 76 -70 154q-20 42 -32 84t-10 82q2 48 18 88t40 72q42 60 94 96q50 36 66 54q-26 10 -94 46 q-68 34 -128 96q-30 32 -54 74q-24 40 -32 88q-8 46 0 102t24 116q30 108 70 210q38 104 36 164q-4 114 -46 212q-44 100 -158 98q-18 24 -18 50z" />
<glyph unicode="~" horiz-adv-x="1060" d="M36 608q4 66 34 156q28 88 94 150q34 34 80 54q46 22 106 22h2q52 0 98 -26q48 -26 88 -64q76 -74 136 -156t110 -84q78 -4 110 48t26 94q10 32 52 28q40 -4 52 -36v-10q0 -30 -28 -88q-32 -72 -90 -128q-24 -24 -52 -40q-28 -18 -56 -22q-32 -4 -60 -4q-82 0 -144 42 q-84 58 -148 114q-34 30 -66 52q-32 20 -62 20q-60 -2 -104 -52q-46 -50 -64 -100q-26 -20 -62 -14q-38 6 -52 44z" />
<glyph unicode="&#xa1;" horiz-adv-x="476" d="M36 1704v8q0 50 58 86q60 36 112 36h8q48 -2 88 -48t44 -94q2 -38 -36 -72q-28 -24 -56 -30q-8 -2 -16 -2h-4q-58 4 -126 32t-72 84zM62 1184q8 24 24 40q14 16 34 26q40 20 84 20q24 0 48 -4q74 -16 88 -62q-10 -20 -2 -80q6 -60 20 -150q22 -164 40 -404t-36 -490 q-44 -120 -130 -130q-8 -2 -18 -2q-68 0 -94 72q36 374 16 662t-74 502z" />
<glyph unicode="&#xa2;" horiz-adv-x="708" d="M48 812v24q4 76 28 138q44 114 138 180q46 32 94 48q6 96 12 176q6 62 8 108q2 44 4 64q34 30 84 32h4q46 0 68 -36q-10 -30 -28 -206q-8 -58 -14 -122q68 -12 116 -70q62 -78 42 -158q-8 -32 -56 -26q-46 8 -52 52q14 36 -22 66q-20 14 -40 22q-6 -74 -12 -154 q-8 -92 -14 -184t-12 -176q-4 -52 -6 -100q38 -4 74 16q64 36 74 142q24 18 42 20q20 4 32 -4q22 -16 28 -54q2 -14 2 -26q0 -24 -6 -44q-14 -40 -40 -70q-28 -30 -64 -48q-56 -30 -130 -30h-14v-68q0 -108 14 -118q-12 -70 -64 -70h-2q-50 0 -70 50q-6 24 -6 90q0 48 2 118 v26q-24 12 -48 30q-50 34 -90 90q-38 54 -58 132q-18 74 -18 140zM218 698q18 -70 48 -116l4 -8q6 94 12 196q6 152 18 304q-30 -26 -58 -68q-72 -108 -24 -308z" />
<glyph unicode="&#xa3;" horiz-adv-x="952" d="M28 898q0 12 6 22q6 14 20 22q16 10 40 14q44 2 92 4q8 154 26 304q22 202 86 328q34 68 82 106q46 38 108 38h4q44 0 86 -18t76 -48q66 -56 98 -142q34 -88 12 -172q-32 -26 -74 -38q-40 -12 -68 46q24 20 16 114q-10 96 -58 158q-16 20 -38 34q-20 12 -48 12 q-24 2 -40 -30t-24 -90q-16 -108 -12 -284q2 -148 12 -310h54h16q48 0 86 -2q36 0 56 -4q24 -28 32 -82q2 -14 2 -24q0 -38 -20 -60q-34 24 -138 28h-80q10 -164 22 -322q12 -200 14 -342q48 16 92 20q46 6 88 4q80 -2 138 -14q60 -12 84 -2q30 -32 30 -56q0 -10 -6 -20 q-22 -30 -58 -42q-52 18 -120 22q-66 4 -138 0q-132 -4 -248 -14q-116 -8 -140 24q2 18 2 60v102q-4 110 -10 272q-4 112 -4 232v68q-50 -2 -84 -2q-34 8 -56 44q-16 20 -16 40z" />
<glyph unicode="&#xa4;" d="M86 1176v4q2 18 10 32q22 40 84 48h16q52 0 88 -38q24 -32 52 -70q40 26 86 46q84 36 168 36q50 0 100 -14q14 -6 22 -14q10 -8 12 -20q8 -24 -6 -50q72 8 128 -8q16 -6 30 -12q20 26 32 50q46 30 92 32q18 0 38 -6q54 -12 54 -44q0 -6 -4 -14q-22 -26 -82 -78l-28 -24 q20 -28 34 -62q24 -60 32 -128q2 -28 2 -58q0 -100 -34 -208q-26 -76 -64 -138q14 -14 28 -26q72 -70 96 -70q2 -8 2 -16q0 -10 -4 -20q-6 -18 -16 -32q-34 -40 -98 -50q-12 -2 -24 -2q-46 2 -64 32q-10 12 -40 52q-24 -16 -50 -28q-56 -26 -122 -28h-10q-180 0 -302 62 q-20 -44 -36 -86q-58 -36 -110 -36q-18 0 -36 4q-52 14 -52 54q0 8 2 18q38 78 92 154q-96 110 -100 264v18q0 88 24 164q26 84 72 150q8 14 18 26q-92 98 -124 102q-8 16 -8 32zM322 648q2 -40 10 -74q16 20 36 38q62 62 122 120q-22 28 -44 54q-46 54 -90 104 q-40 -100 -34 -242zM410 432h2q86 -82 230 -80q64 0 120 42q-52 66 -118 150q-36 46 -76 94q-64 -74 -120 -152q-20 -28 -38 -54zM442 1022q70 -88 146 -176l8 -12q44 40 86 80q60 58 110 108q-42 10 -98 4q-28 28 -22 68v6q-42 10 -86 2q-46 -8 -88 -34q-30 -18 -56 -46z M668 748q16 -16 32 -34q56 -66 108 -124q30 -36 58 -68q36 64 58 136q20 78 18 154q-2 78 -36 132l-12 16q-14 -12 -30 -26q-50 -46 -108 -100q-44 -40 -88 -86z" />
<glyph unicode="&#xa5;" horiz-adv-x="1098" d="M58 1364v8q0 28 8 54q8 30 24 56q38 56 98 74q60 16 102 -36q24 -48 54 -110q30 -64 60 -134q56 -126 106 -238q52 -112 76 -132q4 6 14 26q12 22 28 56q30 62 72 156q44 92 86 188q46 98 84 184q38 84 58 128q20 12 42 12q34 0 70 -30q46 -38 46 -68q0 -10 -4 -16 q-32 -86 -74 -172t-88 -166q-86 -148 -162 -254q-62 -86 -84 -120q30 4 64 8q64 6 146 22q50 -18 52 -54q0 -4 -2 -8q-4 -40 -52 -60q-116 -10 -216 -14v-142q40 -2 86 -2q80 0 186 2q36 -16 56 -68q8 -22 8 -44q0 -30 -18 -58q-10 8 -38 14q-28 4 -68 8q-76 4 -178 4 q-18 0 -36 -2q0 -154 -2 -348q-12 -28 -40 -30q-22 0 -58 20q-74 44 -94 84q24 28 20 140q-4 62 -8 130h-172q-82 0 -112 8q-8 26 -10 66v8q0 34 20 58q104 20 184 20h16q26 -2 58 -2q-4 46 -6 92q-2 22 -4 42q-4 2 -8 2q-176 8 -292 0q-50 4 -50 40q0 12 4 26q20 58 60 84 q148 -18 240 -36q4 -2 8 -2q-14 18 -32 48q-38 62 -80 138q-66 116 -134 226t-114 114z" />
<glyph unicode="&#xa7;" horiz-adv-x="752" d="M74 262q0 14 2 26q4 40 26 76q32 16 62 -2t44 -34q-32 -62 -4 -124q30 -62 84 -66q24 -2 50 12q24 14 50 48q34 44 34 102q-2 52 -20 112q-68 0 -128 30q-50 22 -86 58q-34 38 -40 90q30 36 50 34l20 -2q8 -50 58 -80q44 -26 92 -30q-32 84 -80 178q-76 144 -108 282 q-20 90 -4 174q6 44 30 82q-34 90 -40 180q-4 92 44 176q26 48 64 82q40 32 82 52q58 24 116 24q24 0 48 -4q82 -16 122 -82q24 -44 24 -108v-4q0 -66 -40 -156q-28 -2 -46 4q-20 8 -34 26q34 102 4 170q-32 70 -90 54q-24 -8 -52 -34q-26 -24 -54 -74q-52 -96 -16 -204 q16 2 36 2h8q80 -2 140 -26q14 -34 -10 -66t-38 -50q-26 40 -84 38h-8q40 -84 92 -172q40 -68 78 -138q38 -68 62 -136q28 -82 20 -162q-6 -74 -62 -142q8 -30 14 -60q8 -42 8 -84q0 -34 -6 -66q-12 -74 -68 -136q-58 -64 -114 -90q-52 -24 -98 -24h-12q-78 6 -138 62 q-58 56 -76 128q-8 28 -8 54zM286 1070q18 -58 58 -132q50 -88 104 -186q40 -78 76 -156q16 50 -20 120q-54 102 -136 226q-42 62 -82 128z" />
<glyph unicode="&#xa8;" horiz-adv-x="784" d="M46 1704v4q4 50 42 96q40 46 88 48h8q52 0 110 -36q64 -38 60 -94q-6 -56 -74 -84q-36 -16 -70 -24q-28 -6 -54 -6h-4q-36 0 -72 30q-34 30 -34 66zM418 1754v6q0 36 36 66q36 32 74 32h4q58 -2 126 -30q68 -30 74 -88v-8q0 -50 -60 -86t-112 -36h-8q-50 2 -90 48 q-40 48 -44 96z" />
<glyph unicode="&#xa9;" horiz-adv-x="1244" d="M54 894v28q0 204 100 354q106 162 262 234q84 40 174 50q28 4 56 4q62 0 120 -14q18 -8 30 -20q10 -10 14 -22q8 -30 -6 -60q84 8 152 -12q72 -22 122 -70q52 -50 82 -122q28 -72 36 -156q4 -36 4 -72q0 -122 -40 -252q-54 -166 -162 -274q-56 -56 -124 -88t-148 -34h-10 q-304 0 -478 148q-176 148 -184 378zM320 852q8 -164 110 -264t280 -96q116 0 210 114q92 114 132 258q26 96 22 188q-2 94 -44 160q-34 56 -96 84q-64 28 -160 16q-36 34 -28 84v6q-52 12 -106 2q-56 -10 -106 -42q-94 -58 -158 -186q-64 -130 -56 -324zM406 954 q2 110 42 188q72 134 244 134h10q62 -2 120 -66q58 -66 20 -126q-14 -22 -54 -16q-42 6 -46 40q22 16 8 50t-50 32q-64 -2 -118 -92q-56 -92 -6 -246q18 -58 42 -90q22 -32 44 -44q44 -24 80 8q38 34 48 88q54 40 82 -14q14 -32 16 -58q0 -18 -8 -34q-36 -74 -132 -106 q-46 -18 -90 -18q-46 0 -90 18q-48 18 -84 60t-54 110q-24 100 -24 182z" />
<glyph unicode="&#xad;" horiz-adv-x="754" d="M48 798q0 34 22 62q12 12 28 22t36 12q94 6 206 10q100 2 184 2h16h86q36 -2 56 -4q24 -30 32 -84q2 -12 2 -24q0 -38 -20 -60q-34 24 -142 18q-106 -6 -218 -18q-60 -6 -114 -12q-56 -6 -94 -8q-62 0 -76 54q-4 14 -4 30z" />
<glyph unicode="&#xae;" horiz-adv-x="1056" d="M22 1176v22q0 170 82 294q88 132 216 192q68 32 142 42q26 2 50 2q48 0 96 -12q16 -6 24 -16q8 -8 12 -18q8 -24 -4 -48q70 6 126 -12q58 -18 100 -56q42 -42 66 -102t32 -130q2 -28 2 -56q0 -102 -34 -210q-44 -136 -132 -226q-46 -46 -102 -72q-58 -28 -124 -28h-10 q-250 0 -392 122q-144 122 -150 312zM240 1140q6 -134 90 -216q86 -82 232 -80q64 0 120 44q56 46 98 114q62 100 80 228q18 126 -34 208q-28 46 -80 70q-52 22 -132 12q-30 28 -22 70v4q-42 10 -88 2t-88 -34q-76 -48 -130 -154q-52 -106 -46 -268zM362 1066v134 q2 88 4 170q4 80 8 94q6 34 40 34h4q38 -2 50 -22v-14q0 -8 2 -24q10 16 62 38t86 -12q22 -22 30 -46q6 -24 4 -48q-4 -54 -46 -100q-40 -44 -62 -54q20 -4 34 -16q16 -14 26 -32q32 -58 42 -136q8 -78 34 -78v-6q0 -34 -54 -46q-20 -4 -38 -4q-28 0 -42 14q-16 20 -18 104 q-4 86 -28 122q-8 14 -20 16q-6 2 -16 -2v-34q0 -120 16 -132q-8 -20 -52 -20q-44 2 -60 24q-4 16 -6 76zM464 1256q46 12 62 56q20 50 2 78q-10 14 -34 8q-24 -8 -30 -22v-120z" />
<glyph unicode="&#xaf;" d="M68 1670q0 34 24 62q10 12 26 22t38 12q56 4 156 8q98 2 208 4q126 2 242 2q38 0 74 -2q152 0 184 -4q26 -30 32 -84q2 -12 2 -24q0 -38 -20 -60q-20 14 -102 18q-80 2 -186 -2q-58 -2 -120 -4q-62 -4 -122 -8q-116 -6 -214 -14t-140 -10q-62 2 -76 54q-6 16 -6 30z" />
<glyph unicode="&#xb0;" horiz-adv-x="552" d="M16 1516v18q0 132 86 222q64 70 160 70q38 0 82 -10q12 -12 10 -50q50 -6 86 -34q42 -34 64 -86q20 -52 20 -112q0 -28 -4 -58q-16 -92 -78 -148q-26 -22 -60 -36q-34 -12 -76 -12h-2q-118 0 -200 60q-82 58 -88 176zM200 1548q0 -58 24 -94q22 -36 72 -34q44 2 72 84 q28 80 -4 122q-8 10 -20 16q-14 6 -30 4q-10 12 -6 44q-44 10 -72 -20q-36 -40 -36 -122z" />
<glyph unicode="&#xb4;" horiz-adv-x="462" d="M62 1620q14 76 36 138q24 60 90 142q34 8 64 8q60 0 102 -28q64 -46 80 -98q-38 8 -78 -40t-84 -102q-24 -30 -50 -54q-26 -26 -54 -40q-12 -2 -26 -2q-24 0 -42 12q-30 16 -38 64z" />
<glyph unicode="&#xb5;" horiz-adv-x="974" d="M132 -372q0 34 2 74q2 182 6 386q2 108 6 214q2 108 4 206q4 180 2 304t-16 130q18 38 44 58q26 22 54 30q56 14 108 -8t66 -60q-10 -118 -32 -358q-4 -64 12 -162q16 -96 52 -172q26 -52 60 -86q32 -32 74 -32q46 0 60 144q12 144 20 330q2 100 8 200t16 184 q22 20 50 32q26 12 56 18q20 2 38 2q34 2 68 -10q48 -16 60 -58q-10 -24 -16 -108l-14 -196q-6 -60 -12 -124q-8 -64 -18 -126q-16 -100 -42 -188t-66 -148q-30 -44 -68 -68q-40 -26 -88 -26q-54 2 -94 22t-70 52q-54 58 -78 130q-22 72 -28 94q-2 -16 -6 -122 q-6 -106 -8 -242q-4 -110 -4 -220q0 -108 6 -190q2 -42 6 -74t10 -46q-36 -48 -102 -48h-6q-72 2 -114 62q-6 72 -6 200z" />
<glyph unicode="&#xb6;" horiz-adv-x="918" d="M26 1154q0 50 20 92q30 62 90 110q46 38 110 64q62 28 132 48q130 36 262 44q60 4 108 4q62 0 108 -6q14 -16 14 -32q0 -10 -8 -22q-18 -26 -34 -46q-60 18 -144 14t-168 -24q-32 -8 -60 -16q26 -8 52 -26q6 -140 16 -270q22 14 34 34q28 -50 28 -108q2 -58 -16 -84 q-12 -10 -30 -18q10 -82 22 -160q38 -276 38 -468q-18 -48 -62 -66q-8 -4 -18 -4q-36 0 -74 44q0 16 -2 50q-2 36 -4 86q-6 94 -18 228q-10 122 -22 252q-34 -6 -68 -6q-78 0 -150 32q-54 24 -96 72q-40 50 -54 130q-6 26 -6 52zM212 1184q2 -18 12 -34t24 -30 q22 -18 52 -30t62 -18q10 -2 22 -4l-6 70q-10 114 -20 208q-32 -14 -62 -32q-94 -60 -84 -130zM640 1280q32 50 74 78q18 12 34 12q20 0 36 -26q8 -16 12 -102q2 -88 4 -208q2 -64 4 -134t6 -140q6 -162 24 -296q16 -132 54 -158q-4 -20 -12 -34q-10 -14 -22 -22 q-20 -10 -42 -10q-24 0 -52 12q-56 24 -68 82q-24 168 -32 306t-10 284q-2 80 -4 168q-2 86 -6 188z" />
<glyph unicode="&#xbf;" horiz-adv-x="814" d="M28 298q0 -54 20 -106q26 -64 94 -122q64 -54 138 -70q40 -10 82 -10q32 0 64 6q134 24 238 124t116 216v12q0 40 -50 78q-58 42 -98 -18q2 -30 -32 -80t-84 -90q-26 -20 -54 -36q-30 -16 -56 -18q-28 -4 -52 6q-24 8 -42 34q-24 32 -18 72q6 38 30 84q46 84 128 192 q80 106 128 236q40 106 34 226q-6 122 -96 256q-22 32 -44 46q-18 12 -38 12h-4q-48 -2 -86 -64t-44 -124q6 -22 14 -56q6 -34 10 -72q8 -70 0 -146q-8 -74 -46 -118q-74 -86 -156 -206q-84 -118 -94 -240q-2 -12 -2 -24zM244 1706q0 30 18 50q32 34 90 44q16 4 32 4 q36 0 64 -20q42 -32 68 -98q10 -28 10 -50q0 -34 -22 -56q-26 -28 -66 -28q-18 0 -40 8q-68 18 -112 52q-30 20 -40 68q-2 14 -2 26z" />
<glyph unicode="&#xc0;" horiz-adv-x="1178" d="M20 84q14 104 44 252t70 314q14 58 28 118q-12 0 -26 2q-42 10 -42 38q0 10 8 20q22 44 54 44q14 -4 32 -8q0 4 2 6q30 112 64 222q60 200 126 376q66 174 128 276q18 34 44 50q28 16 60 20h14q54 0 114 -36q66 -38 108 -106q16 -154 38 -372q20 -216 44 -440 q14 -116 26 -228q12 -114 24 -214q24 -184 42 -306q20 -122 32 -126q18 -6 30 4q10 10 10 34q28 -22 30 -86v-4q0 -60 -40 -100q-18 -16 -44 -26q-18 -4 -38 -4q-14 0 -28 2q-110 14 -180 120t-110 264q-22 84 -38 180q-14 94 -22 194q-10 100 -16 200q-58 -2 -116 -2h-72 q-26 -118 -50 -236q-40 -194 -66 -330q-14 -72 -24 -120q-8 -50 -10 -64q-16 -26 -38 -36q-22 -12 -48 -12q-56 -2 -108 40q-52 40 -56 80zM398 2074q16 52 80 98q42 28 100 28q32 0 66 -8q66 -82 90 -142q22 -60 36 -138q-10 -48 -38 -64q-18 -12 -44 -12q-12 0 -26 4 q-26 12 -52 38q-26 24 -50 54q-46 54 -86 102t-76 40zM440 854q64 2 134 6h32q-2 94 0 180q0 208 6 350q8 142 0 146q-4 -4 -14 -30q-8 -28 -22 -74q-22 -86 -56 -224q-32 -138 -66 -296z" />
<glyph unicode="&#xc1;" horiz-adv-x="1178" d="M20 84q14 104 44 252t70 314q14 58 28 118q-12 0 -26 2q-42 10 -42 38q0 10 8 20q22 44 54 44q14 -4 32 -8q0 4 2 6q30 112 64 222q60 200 126 376q66 174 128 276q18 34 44 50q28 16 60 20h14q54 0 114 -36q66 -38 108 -106q16 -154 38 -372q20 -216 44 -440 q14 -116 26 -228q12 -114 24 -214q24 -184 42 -306q20 -122 32 -126q18 -6 30 4q10 10 10 34q28 -22 30 -86v-4q0 -60 -40 -100q-18 -16 -44 -26q-18 -4 -38 -4q-14 0 -28 2q-110 14 -180 120t-110 264q-22 84 -38 180q-14 94 -22 194q-10 100 -16 200q-58 -2 -116 -2h-72 q-26 -118 -50 -236q-40 -194 -66 -330q-14 -72 -24 -120q-8 -50 -10 -64q-16 -26 -38 -36q-22 -12 -48 -12q-56 -2 -108 40q-52 40 -56 80zM440 854q64 2 134 6h32q-2 94 0 180q0 208 6 350q8 142 0 146q-4 -4 -14 -30q-8 -28 -22 -74q-22 -86 -56 -224q-32 -138 -66 -296z M508 1922q14 76 38 138q22 60 88 142q34 8 66 8q58 0 100 -30q64 -44 80 -96q-36 6 -76 -42t-86 -102q-24 -28 -50 -52q-24 -26 -52 -40q-14 -2 -26 -2q-24 0 -44 12q-28 16 -38 64z" />
<glyph unicode="&#xc2;" horiz-adv-x="1178" d="M20 84q14 104 44 252t70 314q14 58 28 118q-12 0 -26 2q-42 10 -42 38q0 10 8 20q22 44 54 44q14 -4 32 -8q0 4 2 6q30 112 64 222q60 200 126 376q66 174 128 276q18 34 44 50q28 16 60 20h14q54 0 114 -36q66 -38 108 -106q16 -154 38 -372q20 -216 44 -440 q14 -116 26 -228q12 -114 24 -214q24 -184 42 -306q20 -122 32 -126q18 -6 30 4q10 10 10 34q28 -22 30 -86v-4q0 -60 -40 -100q-18 -16 -44 -26q-18 -4 -38 -4q-14 0 -28 2q-110 14 -180 120t-110 264q-22 84 -38 180q-14 94 -22 194q-10 100 -16 200q-58 -2 -116 -2h-72 q-26 -118 -50 -236q-40 -194 -66 -330q-14 -72 -24 -120q-8 -50 -10 -64q-16 -26 -38 -36q-22 -12 -48 -12q-56 -2 -108 40q-52 40 -56 80zM416 1962q0 22 22 48q22 28 54 58q48 42 104 78q54 36 72 42q12 -4 32 -24q20 -18 42 -40q36 -36 72 -70t54 -40v-14q0 -36 -26 -52 q-32 -20 -62 6q-28 30 -52 82q-26 52 -40 66q-16 -12 -38 -94t-18 -112q-36 -14 -72 -14q-34 0 -70 14q-72 30 -74 66zM440 854q64 2 134 6h32q-2 94 0 180q0 208 6 350q8 142 0 146q-4 -4 -14 -30q-8 -28 -22 -74q-22 -86 -56 -224q-32 -138 -66 -296z" />
<glyph unicode="&#xc3;" horiz-adv-x="1178" d="M20 84q14 104 44 252t70 314q14 58 28 118q-12 0 -26 2q-42 10 -42 38q0 10 8 20q22 44 54 44q14 -4 32 -8q0 4 2 6q30 112 64 222q60 200 126 376q66 174 128 276q18 34 44 50q28 16 60 20h14q54 0 114 -36q66 -38 108 -106q16 -154 38 -372q20 -216 44 -440 q14 -116 26 -228q12 -114 24 -214q24 -184 42 -306q20 -122 32 -126q18 -6 30 4q10 10 10 34q28 -22 30 -86v-4q0 -60 -40 -100q-18 -16 -44 -26q-18 -4 -38 -4q-14 0 -28 2q-110 14 -180 120t-110 264q-22 84 -38 180q-14 94 -22 194q-10 100 -16 200q-58 -2 -116 -2h-72 q-26 -118 -50 -236q-40 -194 -66 -330q-14 -72 -24 -120q-8 -50 -10 -64q-16 -26 -38 -36q-22 -12 -48 -12q-56 -2 -108 40q-52 40 -56 80zM322 1874q0 18 8 46q6 28 22 60q26 56 78 108q50 50 126 56h10q28 0 52 -14q30 -14 54 -38q46 -44 78 -94q34 -50 60 -48q30 2 34 24 q6 20 0 30q4 18 52 20q46 0 54 -18v-8q0 -24 -30 -82q-36 -68 -96 -80q-22 -6 -40 -6q-40 0 -72 20q-46 28 -84 56q-20 14 -36 24q-18 10 -34 8q-34 -2 -48 -30t-12 -56q-22 -24 -90 -14q-66 8 -86 36zM440 854q64 2 134 6h32q-2 94 0 180q0 208 6 350q8 142 0 146 q-4 -4 -14 -30q-8 -28 -22 -74q-22 -86 -56 -224q-32 -138 -66 -296z" />
<glyph unicode="&#xc4;" horiz-adv-x="1178" d="M20 84q14 104 44 252t70 314q14 58 28 118q-12 0 -26 2q-42 10 -42 38q0 10 8 20q22 44 54 44q14 -4 32 -8q0 4 2 6q30 112 64 222q60 200 126 376q66 174 128 276q18 34 44 50q28 16 60 20h14q54 0 114 -36q66 -38 108 -106q16 -154 38 -372q20 -216 44 -440 q14 -116 26 -228q12 -114 24 -214q24 -184 42 -306q20 -122 32 -126q18 -6 30 4q10 10 10 34q28 -22 30 -86v-4q0 -60 -40 -100q-18 -16 -44 -26q-18 -4 -38 -4q-14 0 -28 2q-110 14 -180 120t-110 264q-22 84 -38 180q-14 94 -22 194q-10 100 -16 200q-58 -2 -116 -2h-72 q-26 -118 -50 -236q-40 -194 -66 -330q-14 -72 -24 -120q-8 -50 -10 -64q-16 -26 -38 -36q-22 -12 -48 -12q-56 -2 -108 40q-52 40 -56 80zM278 1986v6q4 48 44 94q38 46 86 48h8q52 0 110 -36q60 -36 60 -84v-8q-6 -58 -72 -86q-68 -28 -126 -30h-4q-36 0 -72 32 q-34 30 -34 64zM440 854q64 2 134 6h32q-2 94 0 180q0 208 6 350q8 142 0 146q-4 -4 -14 -30q-8 -28 -22 -74q-22 -86 -56 -224q-32 -138 -66 -296zM650 2038v6q0 34 36 66q38 32 74 32q2 0 4 -2q58 -2 126 -30t74 -86v-8q0 -50 -60 -88q-60 -36 -112 -36h-8q-50 2 -90 50 q-40 46 -44 96z" />
<glyph unicode="&#xc5;" horiz-adv-x="1178" d="M20 84q14 104 44 252t70 314q14 58 28 118q-12 0 -26 2q-42 10 -42 38q0 10 8 20q22 44 54 44q14 -4 32 -8q0 4 2 6q30 112 64 222q60 200 126 376q66 174 128 276q18 34 44 50q28 16 60 20h14q54 0 114 -36q66 -38 108 -106q16 -154 38 -372q20 -216 44 -440 q14 -116 26 -228q12 -114 24 -214q24 -184 42 -306q20 -122 32 -126q18 -6 30 4q10 10 10 34q28 -22 30 -86v-4q0 -60 -40 -100q-18 -16 -44 -26q-18 -4 -38 -4q-14 0 -28 2q-110 14 -180 120t-110 264q-22 84 -38 180q-14 94 -22 194q-10 100 -16 200q-58 -2 -116 -2h-72 q-26 -118 -50 -236q-40 -194 -66 -330q-14 -72 -24 -120q-8 -50 -10 -64q-16 -26 -38 -36q-22 -12 -48 -12q-56 -2 -108 40q-52 40 -56 80zM432 2054v10q0 88 68 136q42 30 94 30q38 0 80 -14q4 0 4 -22q12 -2 22 -6q26 -8 42 -24q50 -44 50 -122q0 -76 -44 -126 q-20 -22 -46 -34t-60 -12h-2q-110 0 -156 54q-48 52 -52 130zM440 854q64 2 134 6h32q-2 94 0 180q0 208 6 350q8 142 0 146q-4 -4 -14 -30q-8 -28 -22 -74q-22 -86 -56 -224q-32 -138 -66 -296zM584 2050q4 -38 18 -54q16 -14 48 -12q38 0 44 56t-62 54q-4 8 -2 28 q-14 0 -26 -10q-24 -22 -20 -62z" />
<glyph unicode="&#xc6;" horiz-adv-x="1834" d="M72 84q14 104 44 252t70 314q14 58 28 118q-12 0 -24 2q-44 10 -42 38q0 10 6 20q22 44 54 44q14 -4 32 -8q0 4 2 6q32 112 64 222q60 200 126 376q66 174 128 276q34 62 96 68q10 2 20 2q54 0 106 -30l32 -20q48 18 128 24q130 8 262 18q88 8 162 20t110 42h18 q18 0 34 -4q20 -8 34 -22q38 -42 6 -116q-32 -76 -106 -94q-32 -14 -76 -18q-42 -6 -88 -4q-86 0 -164 10q-78 8 -104 -6q0 -22 2 -72t4 -112q2 -92 2 -190q2 -98 -2 -152q76 18 166 34q88 14 138 38q78 -44 72 -114t-64 -88q-70 -22 -148 -26q-80 -2 -140 -16q4 -42 8 -120 q2 -78 6 -168q6 -132 20 -250q16 -118 56 -136q36 -16 92 8t114 68q86 66 152 154t54 138q18 10 34 10t28 -6q40 -18 52 -80q2 -16 2 -30q2 -42 -22 -78q-8 -16 -32 -52t-58 -84q-66 -88 -162 -188q-96 -102 -202 -154q-54 -26 -110 -32h-24h-14h-8h-24q-136 18 -212 160 q-74 142 -110 340q-18 106 -28 220q-6 64 -10 128q-60 -2 -118 -2h-72q-24 -118 -50 -236q-40 -194 -66 -330q-14 -72 -24 -120q-8 -50 -10 -64q-16 -26 -38 -36q-22 -12 -48 -12q-56 -2 -106 40q-52 40 -58 80zM492 854q66 2 134 6h32v4q-2 92 -2 178q0 88 2 166 q4 142 8 232q4 92 -2 96q-4 -4 -14 -30q-8 -28 -22 -74q-22 -86 -56 -224q-32 -138 -66 -296q-6 -30 -14 -58z" />
<glyph unicode="&#xc7;" horiz-adv-x="1178" d="M46 852v4q0 216 68 402q70 186 190 314q98 106 226 164q112 50 238 50h32q56 -4 102 -26q48 -22 82 -58q62 -68 74 -166q10 -98 -44 -188q-22 -38 -76 -42q-54 -6 -94 22q-16 14 -28 32t-14 44q40 24 56 108q18 82 -10 138q-8 18 -24 30q-14 10 -36 14q-32 2 -68 -20 q-36 -24 -70 -66q-64 -82 -120 -222q-54 -140 -80 -304q-22 -134 -18 -276q2 -140 44 -266q42 -130 98 -210q58 -82 118 -118q112 -68 212 -12t122 180q52 42 94 -4q22 -24 22 -56t-22 -74q-28 -60 -74 -110q-44 -50 -98 -86q-80 -54 -176 -78q16 -16 36 -34 q76 -68 104 -162q12 -32 12 -66q0 -20 -4 -40q-10 -56 -60 -114q-40 -44 -86 -64q-44 -20 -90 -22h-2q-82 0 -152 54q-70 56 -90 132q-2 10 -2 18q0 54 62 70q70 20 102 -20q4 -28 38 -50q36 -22 66 -12q14 6 24 18q12 12 18 36q8 36 2 60q-6 26 -20 44q-30 36 -84 74 q-34 24 -64 66q-54 8 -108 28q-100 40 -188 130t-146 242q-48 126 -70 250q-24 124 -24 242z" />
<glyph unicode="&#xc8;" horiz-adv-x="1086" d="M72 456v2q0 162 18 330q20 204 52 398q34 194 50 330q10 74 10 126q2 52 -10 74q50 36 182 38h262q88 2 162 10t112 32q4 2 8 2q26 0 44 -8q20 -8 32 -24q36 -44 0 -116q-36 -74 -112 -86q-34 -12 -78 -14q-42 -2 -88 2q-86 6 -162 20q-78 14 -104 4q-2 -24 -4 -72 q-2 -50 -4 -112q-4 -92 -10 -192q-6 -98 -12 -150q76 12 166 22q90 8 140 28q76 -48 66 -118q-12 -68 -70 -84q-72 -18 -150 -14q-80 2 -142 -8q4 -42 0 -122q-2 -78 -4 -166q-2 -132 4 -250q8 -120 46 -140q36 -18 92 2q58 18 118 58q90 60 162 144t64 136q18 8 34 6 q16 0 28 -8q40 -20 46 -82q2 -10 2 -22q0 -48 -28 -86q-10 -14 -36 -48q-26 -36 -64 -80q-70 -84 -174 -178q-102 -96 -212 -138q-56 -22 -110 -26h-10q-50 0 -98 24q-70 36 -116 106q-44 68 -68 160q-34 128 -34 290zM342 2062q16 52 80 98q42 28 100 28q32 0 66 -8 q66 -82 88 -142q24 -60 38 -138q-10 -46 -38 -64q-20 -10 -44 -12q-12 0 -26 4q-26 12 -52 38q-26 24 -50 54q-46 54 -86 102t-76 40z" />
<glyph unicode="&#xc9;" horiz-adv-x="1086" d="M72 456v2q0 162 18 330q20 204 52 398q34 194 50 330q10 74 10 126q2 52 -10 74q50 36 182 38h262q88 2 162 10t112 32q4 2 8 2q26 0 44 -8q20 -8 32 -24q36 -44 0 -116q-36 -74 -112 -86q-34 -12 -78 -14q-42 -2 -88 2q-86 6 -162 20q-78 14 -104 4q-2 -24 -4 -72 q-2 -50 -4 -112q-4 -92 -10 -192q-6 -98 -12 -150q76 12 166 22q90 8 140 28q76 -48 66 -118q-12 -68 -70 -84q-72 -18 -150 -14q-80 2 -142 -8q4 -42 0 -122q-2 -78 -4 -166q-2 -132 4 -250q8 -120 46 -140q36 -18 92 2q58 18 118 58q90 60 162 144t64 136q18 8 34 6 q16 0 28 -8q40 -20 46 -82q2 -10 2 -22q0 -48 -28 -86q-10 -14 -36 -48q-26 -36 -64 -80q-70 -84 -174 -178q-102 -96 -212 -138q-56 -22 -110 -26h-10q-50 0 -98 24q-70 36 -116 106q-44 68 -68 160q-34 128 -34 290zM398 1904q16 78 38 140q22 60 88 142q36 8 66 8 q58 0 100 -30q64 -44 80 -96q-36 6 -76 -42t-86 -102q-24 -28 -48 -54q-26 -24 -54 -38q-14 -2 -26 -2q-24 0 -44 12q-28 16 -38 62z" />
<glyph unicode="&#xca;" horiz-adv-x="1086" d="M72 456v2q0 162 18 330q20 204 52 398q34 194 50 330q10 74 10 126q2 52 -10 74q50 36 182 38h262q88 2 162 10t112 32q4 2 8 2q26 0 44 -8q20 -8 32 -24q36 -44 0 -116q-36 -74 -112 -86q-34 -12 -78 -14q-42 -2 -88 2q-86 6 -162 20q-78 14 -104 4q-2 -24 -4 -72 q-2 -50 -4 -112q-4 -92 -10 -192q-6 -98 -12 -150q76 12 166 22q90 8 140 28q76 -48 66 -118q-12 -68 -70 -84q-72 -18 -150 -14q-80 2 -142 -8q4 -42 0 -122q-2 -78 -4 -166q-2 -132 4 -250q8 -120 46 -140q36 -18 92 2q58 18 118 58q90 60 162 144t64 136q18 8 34 6 q16 0 28 -8q40 -20 46 -82q2 -10 2 -22q0 -48 -28 -86q-10 -14 -36 -48q-26 -36 -64 -80q-70 -84 -174 -178q-102 -96 -212 -138q-56 -22 -110 -26h-10q-50 0 -98 24q-70 36 -116 106q-44 68 -68 160q-34 128 -34 290zM396 1896v2q0 20 22 48t54 56q48 44 104 78 q54 36 72 42q12 -4 32 -22q20 -20 44 -42q34 -36 70 -70t54 -38v-16q0 -36 -26 -52q-32 -20 -62 6q-28 30 -52 82q-26 52 -40 66q-14 -12 -38 -94q-22 -80 -18 -110q-36 -16 -72 -16q-34 0 -70 16q-70 28 -74 64z" />
<glyph unicode="&#xcb;" horiz-adv-x="1086" d="M72 456v2q0 162 18 330q20 204 52 398q34 194 50 330q10 74 10 126q2 52 -10 74q50 36 182 38h262q88 2 162 10t112 32q4 2 8 2q26 0 44 -8q20 -8 32 -24q36 -44 0 -116q-36 -74 -112 -86q-34 -12 -78 -14q-42 -2 -88 2q-86 6 -162 20q-78 14 -104 4q-2 -24 -4 -72 q-2 -50 -4 -112q-4 -92 -10 -192q-6 -98 -12 -150q76 12 166 22q90 8 140 28q76 -48 66 -118q-12 -68 -70 -84q-72 -18 -150 -14q-80 2 -142 -8q4 -42 0 -122q-2 -78 -4 -166q-2 -132 4 -250q8 -120 46 -140q36 -18 92 2q58 18 118 58q90 60 162 144t64 136q18 8 34 6 q16 0 28 -8q40 -20 46 -82q2 -10 2 -22q0 -48 -28 -86q-10 -14 -36 -48q-26 -36 -64 -80q-70 -84 -174 -178q-102 -96 -212 -138q-56 -22 -110 -26h-10q-50 0 -98 24q-70 36 -116 106q-44 68 -68 160q-34 128 -34 290zM224 1976v6q4 48 44 94t88 48q4 2 8 2q50 -2 110 -38 q62 -38 58 -92q-4 -56 -72 -86q-56 -22 -104 -28q-10 -2 -20 -2h-4q-36 0 -72 32q-36 30 -36 64zM596 2034q0 34 36 66q38 32 74 32h4q58 -4 126 -32q70 -28 74 -86v-8q0 -50 -60 -86q-60 -38 -112 -38h-8q-48 2 -88 50q-40 46 -44 96q-2 2 -2 6z" />
<glyph unicode="&#xcc;" horiz-adv-x="598" d="M62 2q0 14 2 54q4 38 8 96q10 106 24 264q14 156 30 332q10 114 18 230q10 116 16 222q14 200 18 346q4 144 -12 174q-2 28 8 54q10 24 30 42q34 34 86 44q18 4 34 4q32 0 58 -14q20 -12 36 -32q14 -20 18 -50q14 -138 6 -360q-10 -220 -22 -452q-14 -226 -18 -432 q-6 -206 14 -326q10 -66 32 -98q20 -34 54 -24q-20 -62 -54 -100t-74 -58q-54 -28 -110 -28q-42 0 -86 16q-100 34 -116 96zM64 2104q2 54 52 114q52 60 156 62q84 -62 122 -116q36 -52 70 -124v-10q0 -40 -20 -60q-24 -24 -66 -26q-30 6 -60 24q-32 16 -62 38 q-58 42 -108 78q-52 36 -84 20z" />
<glyph unicode="&#xcd;" horiz-adv-x="598" d="M62 2q0 14 2 54q4 38 8 96q10 106 24 264q14 156 30 332q10 114 18 230q10 116 16 222q14 200 18 346q4 144 -12 174q-2 28 8 54q10 24 30 42q34 34 86 44q18 4 34 4q32 0 58 -14q20 -12 36 -32q14 -20 18 -50q14 -138 6 -360q-10 -220 -22 -452q-14 -226 -18 -432 q-6 -206 14 -326q10 -66 32 -98q20 -34 54 -24q-20 -62 -54 -100t-74 -58q-54 -28 -110 -28q-42 0 -86 16q-100 34 -116 96zM136 2016q28 74 60 128q34 56 114 124h18q92 0 142 -50q54 -56 60 -110q-34 14 -82 -26t-102 -86q-30 -24 -60 -44t-58 -28h-2q-40 2 -66 22 q-24 22 -24 70z" />
<glyph unicode="&#xce;" horiz-adv-x="598" d="M42 1974v2q0 20 22 48t54 56q48 44 104 78q54 36 72 42q12 -4 32 -22l42 -42q36 -36 72 -70t54 -38v-16q0 -36 -26 -52q-32 -20 -62 6q-28 30 -52 82q-26 52 -40 66q-16 -12 -38 -94q-22 -80 -18 -110q-36 -16 -72 -16t-70 16q-72 28 -74 64zM62 2q0 14 2 54q4 38 8 96 q10 106 24 264q14 156 30 332q10 114 18 230q10 116 16 222q14 200 18 346q4 144 -12 174q-2 28 8 54q10 24 30 42q34 34 86 44q18 4 34 4q32 0 58 -14q20 -12 36 -32q14 -20 18 -50q14 -138 6 -360q-10 -220 -22 -452q-14 -226 -18 -432q-6 -206 14 -326q10 -66 32 -98 q20 -34 54 -24q-20 -62 -54 -100t-74 -58q-54 -28 -110 -28q-42 0 -86 16q-100 34 -116 96z" />
<glyph unicode="&#xcf;" horiz-adv-x="598" d="M-40 2030v6q4 48 44 94q38 46 88 50h6q52 -2 112 -36q62 -40 58 -94q-4 -56 -72 -84q-60 -26 -110 -30q-8 -2 -16 -2h-2q-36 0 -72 32q-36 30 -36 64zM62 2q0 14 2 54q4 38 8 96q10 106 24 264q14 156 30 332q10 114 18 230q10 116 16 222q14 200 18 346q4 144 -12 174 q-2 28 8 54q10 24 30 42q34 34 86 44q18 4 34 4q32 0 58 -14q20 -12 36 -32q14 -20 18 -50q14 -138 6 -360q-10 -220 -22 -452q-14 -226 -18 -432q-6 -206 14 -326q10 -66 32 -98q20 -34 54 -24q-20 -62 -54 -100t-74 -58q-54 -28 -110 -28q-42 0 -86 16q-100 34 -116 96z M332 2082v6q0 34 36 66q38 32 74 32h4q58 -2 126 -32q70 -28 74 -86v-8q0 -50 -60 -86q-60 -38 -112 -38h-8q-48 4 -90 50q-40 46 -44 96z" />
<glyph unicode="&#xd0;" horiz-adv-x="1258" d="M66 812q0 26 6 52t20 42q8 10 22 16q6 2 16 2q6 0 12 -2h22q-2 56 -6 114q-10 194 -18 380q-6 128 -6 234q0 50 2 96q20 36 72 40h18q42 0 86 -14q34 -12 62 -30q30 -18 44 -42q4 -28 8 -52t6 -46q90 82 244 88q154 4 286 -62q70 -36 124 -94q56 -56 80 -134 q36 -108 36 -254q0 -42 -2 -86q-14 -200 -68 -406q-28 -108 -66 -212t-84 -196q-84 -170 -186 -278q-102 -110 -204 -106h-8q-46 0 -70 56q-28 62 -24 140q2 52 22 102q18 50 54 84q40 -4 74 16q36 22 64 58q54 70 88 186q32 116 46 248q14 134 8 266q-8 134 -34 230 q-62 216 -178 272q-116 54 -188 -32q34 -206 44 -464q2 -56 2 -112q88 -4 164 -8q40 -24 62 -82q12 -28 12 -52t-12 -42q-8 -12 -22 -20q-14 -6 -34 -6q-38 2 -90 4q-38 0 -78 2q0 -96 -4 -188q-6 -132 -16 -256t-26 -228q-12 -34 -36 -54q-22 -22 -52 -32q-52 -20 -110 -4 q-56 16 -80 62q26 28 26 178q2 148 -8 360q-4 74 -10 154q-46 -10 -72 -24q-14 6 -26 46t-12 84q-2 4 -2 6z" />
<glyph unicode="&#xd1;" horiz-adv-x="1232" d="M28 1628v6q0 24 10 40q8 18 26 28q20 8 44 8t52 -8q50 -12 98 -46q46 -34 62 -76q22 -52 38 -116t18 -152q4 16 36 88q32 76 88 160q28 46 64 88q34 42 74 74q38 28 80 44q30 12 62 12q12 0 22 -2q100 -12 158 -92t88 -202q30 -126 34 -286q6 -158 0 -320 q-4 -106 -8 -206q-6 -102 -8 -190q-6 -166 6 -272q12 -104 68 -98q12 -22 12 -44q0 -38 -32 -80q-48 -64 -138 -64h-8q-50 0 -110 32q-60 30 -124 102q-70 78 -72 284q-2 204 20 436q18 184 42 356q22 172 26 280q4 60 -2 96q-4 34 -20 38q-40 10 -88 -26t-94 -94 q-68 -90 -118 -196q-48 -108 -44 -152q6 -68 8 -158q4 -88 4 -186q0 -182 -6 -366q-8 -184 -26 -292q-14 -40 -76 -58q-64 -18 -120 18q-32 18 -54 56q-24 38 -32 100q-2 22 0 70q0 50 2 120q2 130 6 310t4 356q-2 224 -16 396q-14 170 -56 184zM364 1876q0 18 8 46t22 60 q26 56 78 108q50 50 126 54q4 2 10 2q28 0 54 -14q28 -16 52 -38q46 -44 78 -94q34 -50 62 -48t34 24q4 20 -2 30q6 20 52 20t54 -18v-8q0 -24 -30 -82q-34 -68 -96 -80q-18 -4 -36 -4q-14 0 -28 2q-30 6 -54 20q-48 24 -84 56q-34 32 -64 28q-34 -2 -48 -30t-10 -56 q-24 -24 -90 -14q-68 8 -88 36z" />
<glyph unicode="&#xd2;" horiz-adv-x="1370" d="M38 642v42q0 68 8 140q10 94 32 190q42 180 124 346q82 168 198 280q98 94 220 134q64 22 134 22q60 0 126 -16q30 -26 24 -54q128 -14 216 -106q98 -102 150 -260q28 -86 44 -182q14 -96 18 -198v-40q0 -210 -54 -416q-56 -226 -172 -368q-64 -78 -142 -122t-172 -44h-2 q-108 0 -206 24q-100 24 -184 70q-158 84 -256 228q-98 146 -106 330zM430 660q0 -62 18 -128q16 -64 46 -126q54 -112 138 -192q86 -80 172 -76q72 0 138 126t110 308q24 96 38 202q16 108 20 212q4 86 0 166q-2 82 -16 152q-24 130 -80 212q-58 80 -158 76q-26 36 -26 70 q-54 14 -106 -34q-66 -58 -124 -176q-30 -62 -56 -136q-26 -76 -48 -156q-32 -124 -50 -256q-18 -130 -16 -244zM548 2070q16 52 80 96q42 30 102 30q30 0 64 -8q66 -82 90 -144q22 -60 36 -138q-8 -46 -38 -64q-18 -10 -44 -10q-12 0 -24 2q-28 14 -54 38q-26 26 -50 54 q-44 54 -84 102q-42 48 -78 42z" />
<glyph unicode="&#xd3;" horiz-adv-x="1370" d="M38 642v42q0 68 8 140q10 94 32 190q42 180 124 346q82 168 198 280q98 94 220 134q64 22 134 22q60 0 126 -16q30 -26 24 -54q128 -14 216 -106q98 -102 150 -260q28 -86 44 -182q14 -96 18 -198v-40q0 -210 -54 -416q-56 -226 -172 -368q-64 -78 -142 -122t-172 -44h-2 q-108 0 -206 24q-100 24 -184 70q-158 84 -256 228q-98 146 -106 330zM430 660q0 -62 18 -128q16 -64 46 -126q54 -112 138 -192q86 -80 172 -76q72 0 138 126t110 308q24 96 38 202q16 108 20 212q4 86 0 166q-2 82 -16 152q-24 130 -80 212q-58 80 -158 76q-26 36 -26 70 q-54 14 -106 -34q-66 -58 -124 -176q-30 -62 -56 -136q-26 -76 -48 -156q-32 -124 -50 -256q-18 -130 -16 -244zM582 1912q14 76 36 138q24 60 90 142q34 8 64 8q60 0 102 -30q64 -44 80 -96q-38 8 -78 -42q-40 -48 -84 -102q-24 -28 -50 -52q-26 -26 -54 -40q-12 -2 -26 -2 q-24 0 -42 12q-30 16 -38 64z" />
<glyph unicode="&#xd4;" horiz-adv-x="1370" d="M38 642v42q0 68 8 140q10 94 32 190q42 180 124 346q82 168 198 280q98 94 220 134q64 22 134 22q60 0 126 -16q30 -26 24 -54q128 -14 216 -106q98 -102 150 -260q28 -86 44 -182q14 -96 18 -198v-40q0 -210 -54 -416q-56 -226 -172 -368q-64 -78 -142 -122t-172 -44h-2 q-108 0 -206 24q-100 24 -184 70q-158 84 -256 228q-98 146 -106 330zM430 660q0 -62 18 -128q16 -64 46 -126q54 -112 138 -192q86 -80 172 -76q72 0 138 126t110 308q24 96 38 202q16 108 20 212q4 86 0 166q-2 82 -16 152q-24 130 -80 212q-58 80 -158 76q-26 36 -26 70 q-54 14 -106 -34q-66 -58 -124 -176q-30 -62 -56 -136q-26 -76 -48 -156q-32 -124 -50 -256q-18 -130 -16 -244zM530 1940v2q0 22 22 48q22 28 54 58q50 42 104 78t72 42q12 -4 32 -24q20 -18 44 -40l70 -70q36 -34 54 -40q2 -8 2 -14q0 -38 -28 -54q-32 -18 -60 8 q-30 30 -54 82q-24 50 -40 64q-14 -10 -36 -92t-20 -112q-36 -14 -70 -14q-36 0 -72 14q-70 30 -74 64z" />
<glyph unicode="&#xd5;" horiz-adv-x="1370" d="M38 642v42q0 68 8 140q10 94 32 190q42 180 124 346q82 168 198 280q98 94 220 134q64 22 134 22q60 0 126 -16q30 -26 24 -54q128 -14 216 -106q98 -102 150 -260q28 -86 44 -182q14 -96 18 -198v-40q0 -210 -54 -416q-56 -226 -172 -368q-64 -78 -142 -122t-172 -44h-2 q-108 0 -206 24q-100 24 -184 70q-158 84 -256 228q-98 146 -106 330zM422 1880q0 36 22 98q24 62 72 110q26 26 60 44t74 20q6 2 12 2q28 0 52 -14q30 -14 54 -38q46 -42 80 -92q32 -50 60 -46q30 2 34 24q4 20 0 30q4 18 50 20q46 0 54 -16q2 -4 2 -8q0 -24 -30 -82 q-34 -70 -96 -84q-64 -14 -112 14q-46 28 -84 54q-20 14 -38 24q-16 10 -34 8q-32 -4 -46 -32q-12 -28 -10 -54q-18 -18 -60 -18h-30q-66 8 -86 36zM430 660q0 -62 18 -128q16 -64 46 -126q54 -112 138 -192q86 -80 172 -76q72 0 138 126t110 308q24 96 38 202 q16 108 20 212q4 86 0 166q-2 82 -16 152q-24 130 -80 212q-58 80 -158 76q-26 36 -26 70q-54 14 -106 -34q-66 -58 -124 -176q-30 -62 -56 -136q-26 -76 -48 -156q-32 -124 -50 -256q-18 -130 -16 -244z" />
<glyph unicode="&#xd6;" horiz-adv-x="1370" d="M38 642v42q0 68 8 140q10 94 32 190q42 180 124 346q82 168 198 280q98 94 220 134q64 22 134 22q60 0 126 -16q30 -26 24 -54q128 -14 216 -106q98 -102 150 -260q28 -86 44 -182q14 -96 18 -198v-40q0 -210 -54 -416q-56 -226 -172 -368q-64 -78 -142 -122t-172 -44h-2 q-108 0 -206 24q-100 24 -184 70q-158 84 -256 228q-98 146 -106 330zM430 660q0 -62 18 -128q16 -64 46 -126q54 -112 138 -192q86 -80 172 -76q72 0 138 126t110 308q24 96 38 202q16 108 20 212q4 86 0 166q-2 82 -16 152q-24 130 -80 212q-58 80 -158 76q-26 36 -26 70 q-54 14 -106 -34q-66 -58 -124 -176q-30 -62 -56 -136q-26 -76 -48 -156q-32 -124 -50 -256q-18 -130 -16 -244zM442 2000v6q4 48 44 94t88 48h6q52 0 112 -36q62 -38 58 -92q-4 -58 -72 -86q-50 -20 -92 -28q-18 -2 -32 -2h-4q-36 0 -72 32q-36 30 -36 64zM814 2056 q0 36 36 66q38 32 74 32h4q58 -2 126 -30q70 -28 74 -86v-8q0 -52 -60 -88t-112 -36h-8q-48 2 -88 48q-40 48 -44 96q-2 4 -2 6z" />
<glyph unicode="&#xd7;" horiz-adv-x="1228" d="M56 168v4q0 18 10 40q38 4 142 122t224 272l92 120l-80 88q-162 176 -260 382q-6 14 -6 26q2 40 58 56q20 4 42 4q60 0 130 -40q44 -126 114 -242q46 -76 96 -148l2 2q92 124 154 212q34 48 56 82q24 32 32 46q12 18 40 28q28 12 64 14q14 2 30 2q40 0 80 -8 q58 -12 88 -42q12 -12 18 -26q4 -10 4 -22q0 -6 -2 -12q-14 2 -46 -24q-30 -24 -76 -68q-82 -80 -198 -212q-58 -66 -116 -134q114 -134 230 -234q154 -134 202 -190q4 -10 4 -18q0 -36 -62 -50q-20 -6 -40 -6q-56 0 -108 36q-32 58 -90 126q-60 68 -136 144l-90 88 q-14 -16 -28 -34q-98 -118 -188 -232q-92 -112 -160 -198q-40 -44 -100 -44h-16q-72 8 -100 56q-8 14 -10 34z" />
<glyph unicode="&#xd8;" horiz-adv-x="1370" d="M26 88q0 30 8 56q18 24 90 114q14 18 32 38l-12 16q-98 146 -106 330v42q0 68 8 140q10 94 32 190q42 180 124 346q82 168 198 280q98 94 220 134q64 22 134 22q60 0 126 -16q30 -26 24 -54q128 -14 214 -106q20 50 18 76q40 46 94 56q12 2 22 2q38 -2 54 -30 q10 -16 10 -40q0 -26 -12 -60q-28 -70 -78 -156q24 -50 44 -108q28 -86 44 -182q14 -96 18 -198v-40q0 -210 -54 -416q-56 -226 -172 -368q-64 -78 -142 -122t-172 -44h-2q-108 0 -206 24q-100 24 -184 70q-52 28 -98 62q-44 -80 -26 -102q-48 -52 -88 -72q-36 -18 -64 -18 h-8q-58 6 -80 68q-12 34 -10 66zM430 638q54 70 110 144q78 100 156 202q76 102 146 198q114 162 196 292q-12 22 -24 42q-58 80 -158 76q-26 36 -26 70q-54 14 -106 -34q-66 -58 -124 -176q-30 -62 -56 -136q-26 -76 -48 -156q-32 -124 -50 -256q-18 -130 -16 -244v-22z M484 424q6 -10 10 -18q54 -112 138 -192q86 -80 172 -76q72 0 138 126t110 308q24 96 38 202q16 108 20 212q4 86 0 166q-2 62 -10 118q-120 -174 -254 -360l-156 -208q-78 -104 -148 -200q-30 -40 -58 -78z" />
<glyph unicode="&#xd9;" d="M56 1690q0 40 34 82q48 58 130 60q8 0 18 -2q52 -4 110 -36q60 -32 120 -108q28 -34 42 -94t18 -138q6 -146 -18 -332q-22 -186 -50 -364q-22 -146 -42 -270q-18 -122 -22 -196q-2 -40 4 -62q4 -24 16 -24q46 -2 96 26q50 30 96 74q70 66 120 148t50 128q2 64 2 158 t2 200q2 198 10 402t30 310q16 40 78 54t116 -24q30 -22 50 -60q22 -40 28 -102v-12q0 -44 -8 -156q-10 -130 -22 -300q-6 -90 -14 -186q-6 -98 -10 -192q-10 -218 -4 -382q6 -166 48 -174q6 -42 -4 -70q-8 -30 -28 -46q-32 -26 -78 -26q-18 0 -38 4q-70 16 -86 48 q-22 54 -40 160q-16 104 -16 194q-4 -12 -34 -68t-82 -124q-28 -36 -62 -70q-34 -36 -72 -64q-48 -36 -100 -56q-54 -20 -112 -18q-100 6 -156 82q-56 74 -78 194q-30 144 -24 328q6 186 22 372q8 96 16 188q10 92 14 172q10 148 2 242q-10 92 -62 88q-10 20 -10 42z M420 2066q16 52 80 98q42 30 100 30q32 -2 66 -10q66 -80 88 -142q24 -60 38 -138q-10 -46 -38 -64q-20 -10 -44 -10q-12 0 -26 2q-26 14 -52 38q-26 26 -50 54q-46 54 -86 102t-76 40z" />
<glyph unicode="&#xda;" d="M56 1690q0 40 34 82q48 58 130 60q8 0 18 -2q52 -4 110 -36q60 -32 120 -108q28 -34 42 -94t18 -138q6 -146 -18 -332q-22 -186 -50 -364q-22 -146 -42 -270q-18 -122 -22 -196q-2 -40 4 -62q4 -24 16 -24q46 -2 96 26q50 30 96 74q70 66 120 148t50 128q2 64 2 158 t2 200q2 198 10 402t30 310q16 40 78 54t116 -24q30 -22 50 -60q22 -40 28 -102v-12q0 -44 -8 -156q-10 -130 -22 -300q-6 -90 -14 -186q-6 -98 -10 -192q-10 -218 -4 -382q6 -166 48 -174q6 -42 -4 -70q-8 -30 -28 -46q-32 -26 -78 -26q-18 0 -38 4q-70 16 -86 48 q-22 54 -40 160q-16 104 -16 194q-4 -12 -34 -68t-82 -124q-28 -36 -62 -70q-34 -36 -72 -64q-48 -36 -100 -56q-54 -20 -112 -18q-100 6 -156 82q-56 74 -78 194q-30 144 -24 328q6 186 22 372q8 96 16 188q10 92 14 172q10 148 2 242q-10 92 -62 88q-10 20 -10 42z M480 1886q14 78 36 138t88 142q36 8 66 8q58 0 100 -28q66 -46 80 -98q-36 8 -76 -40t-84 -102q-24 -30 -50 -54q-26 -26 -54 -38q-14 -4 -26 -4q-24 2 -44 12q-28 18 -36 64z" />
<glyph unicode="&#xdb;" d="M56 1690q0 40 34 82q48 58 130 60q8 0 18 -2q52 -4 110 -36q60 -32 120 -108q28 -34 42 -94t18 -138q6 -146 -18 -332q-22 -186 -50 -364q-22 -146 -42 -270q-18 -122 -22 -196q-2 -40 4 -62q4 -24 16 -24q46 -2 96 26q50 30 96 74q70 66 120 148t50 128q2 64 2 158 t2 200q2 198 10 402t30 310q16 40 78 54t116 -24q30 -22 50 -60q22 -40 28 -102v-12q0 -44 -8 -156q-10 -130 -22 -300q-6 -90 -14 -186q-6 -98 -10 -192q-10 -218 -4 -382q6 -166 48 -174q6 -42 -4 -70q-8 -30 -28 -46q-32 -26 -78 -26q-18 0 -38 4q-70 16 -86 48 q-22 54 -40 160q-16 104 -16 194q-4 -12 -34 -68t-82 -124q-28 -36 -62 -70q-34 -36 -72 -64q-48 -36 -100 -56q-54 -20 -112 -18q-100 6 -156 82q-56 74 -78 194q-30 144 -24 328q6 186 22 372q8 96 16 188q10 92 14 172q10 148 2 242q-10 92 -62 88q-10 20 -10 42z M418 1900v2q0 20 22 48t54 56q50 44 104 80t72 42q12 -6 32 -24t44 -42q34 -34 70 -68t54 -40v-14q0 -38 -26 -54q-32 -18 -62 8q-28 30 -52 82q-26 50 -40 64q-14 -10 -38 -92q-22 -82 -18 -112q-36 -14 -72 -14q-34 0 -70 14q-70 30 -74 64z" />
<glyph unicode="&#xdc;" d="M56 1690q0 40 34 82q48 58 130 60q8 0 18 -2q52 -4 110 -36q60 -32 120 -108q28 -34 42 -94t18 -138q6 -146 -18 -332q-22 -186 -50 -364q-22 -146 -42 -270q-18 -122 -22 -196q-2 -40 4 -62q4 -24 16 -24q46 -2 96 26q50 30 96 74q70 66 120 148t50 128q2 64 2 158 t2 200q2 198 10 402t30 310q16 40 78 54t116 -24q30 -22 50 -60q22 -40 28 -102v-12q0 -44 -8 -156q-10 -130 -22 -300q-6 -90 -14 -186q-6 -98 -10 -192q-10 -218 -4 -382q6 -166 48 -174q6 -42 -4 -70q-8 -30 -28 -46q-32 -26 -78 -26q-18 0 -38 4q-70 16 -86 48 q-22 54 -40 160q-16 104 -16 194q-4 -12 -34 -68t-82 -124q-28 -36 -62 -70q-34 -36 -72 -64q-48 -36 -100 -56q-54 -20 -112 -18q-100 6 -156 82q-56 74 -78 194q-30 144 -24 328q6 186 22 372q8 96 16 188q10 92 14 172q10 148 2 242q-10 92 -62 88q-10 20 -10 42z M314 1980v6q4 48 44 94t88 48h8q50 0 110 -36q58 -36 58 -86v-6q-4 -58 -72 -86t-124 -30h-4q-36 0 -72 32q-36 30 -36 64zM688 2032v4q0 36 36 66q36 32 72 32h4q58 -2 128 -30q68 -28 72 -86q2 -4 2 -8q-2 -50 -60 -88q-62 -36 -114 -36h-6q-50 2 -90 50q-40 46 -44 96z " />
<glyph unicode="&#xdd;" d="M42 1698q62 80 144 94q20 2 38 2q58 0 102 -32q32 -22 54 -60q20 -38 24 -92q8 -90 8 -218q-2 -128 -4 -260q-2 -70 -2 -138q0 -66 2 -124q6 -110 20 -180q16 -72 52 -70q90 0 160 140q70 142 108 324q22 98 32 198t10 184q24 92 102 106t128 -44q16 -18 26 -46 q12 -28 12 -62q-18 -6 -22 -100q-6 -96 -10 -240q-4 -78 -6 -166q-4 -88 -8 -182l-8 -116q8 0 14 2q32 -6 36 -40q4 -32 -28 -60q-14 0 -30 -2l-2 -12q-12 -114 -30 -218q-34 -194 -102 -328q-68 -132 -188 -136h-10q-80 0 -126 30q-50 30 -66 82q-32 100 40 252 q74 150 200 266q24 22 50 42q6 98 8 186q2 110 2 164q-8 -44 -46 -124q-42 -80 -112 -142q-36 -34 -80 -56q-44 -20 -94 -22q-98 -2 -162 48q-62 50 -100 134q-38 88 -56 202q-16 112 -22 230q-2 78 -4 152v142q0 124 -10 206q-8 82 -44 84zM456 1862q14 78 36 138 q24 62 90 144q34 8 66 8q58 0 100 -30q64 -44 80 -96q-36 6 -76 -42t-86 -102q-24 -28 -50 -54q-26 -24 -52 -38q-14 -2 -26 -2q-26 0 -44 10q-28 18 -38 64zM580 -26q-4 -52 36 -52q24 0 44 24q18 22 34 62q28 74 44 194q6 54 12 110q-16 -20 -30 -42q-30 -44 -56 -86 q-26 -44 -44 -84q-34 -76 -40 -126z" />
<glyph unicode="&#xdf;" horiz-adv-x="3860" d="M100 784v12q4 96 62 174q56 76 144 86q46 4 96 -14q52 -18 104 -66q60 -54 92 -130q32 -78 38 -164q4 -60 -6 -120q116 -12 226 58q74 48 148 126q-106 112 -182 246q-58 102 -92 210q-32 108 -36 216q-2 132 32 226q36 94 94 150q46 48 106 70q56 22 116 22h2 q114 0 216 -80t140 -232q30 -110 20 -220t-46 -216q-58 -168 -168 -310q32 -46 66 -86q108 -134 258 -170q56 -14 116 -8q-12 52 -20 106q-20 128 -2 258q18 128 80 242q38 68 84 108q48 40 96 52q54 14 104 2q52 -12 98 -46q80 -60 116 -178q34 -120 -28 -264 q-30 -72 -82 -134q-50 -60 -112 -108q-68 -50 -142 -84q10 -42 24 -82q22 -68 52 -126q48 -92 118 -158t158 -86q74 -18 146 0q70 16 134 56l12 8q-96 138 -142 290q-48 152 -14 290q20 86 62 142t94 84q98 52 206 12q110 -40 164 -156q28 -58 36 -136q6 -78 -16 -170 q-22 -88 -118 -222q-32 -44 -70 -84q4 -8 10 -16q66 -122 152 -222q90 -100 194 -158q102 -58 204 -38q124 22 202 122t118 242q22 76 34 160t16 172q2 104 -6 210q-10 104 -30 198q-38 172 -106 282q-70 108 -158 86q-38 30 -20 74q16 44 68 36q104 -12 182 -64 q76 -50 126 -130q44 -68 68 -152q26 -84 36 -178q8 -66 8 -136q0 -112 -18 -230q-32 -192 -100 -358q-72 -172 -178 -292q-104 -120 -234 -146q-30 -4 -60 -4q-88 0 -190 44q-138 60 -268 170q-70 58 -132 128q-36 40 -70 80l-20 -12q-76 -44 -164 -62q-86 -18 -180 4 q-216 52 -362 248q-82 108 -128 228q-108 -22 -194 -2q-204 46 -380 192q-16 12 -30 24q-96 -92 -192 -148q-58 -32 -126 -54q-66 -22 -136 -30q-10 -2 -18 -2q-14 -42 -34 -82q-80 -156 -248 -216q-34 2 -68 36t-6 70q68 -16 138 78q40 54 68 118q-42 8 -84 20 q-122 36 -202 130q-38 42 -54 94q-12 44 -12 90zM306 848q-6 -82 28 -122q66 -82 170 -128q18 76 18 148q2 96 -44 144q-38 38 -66 50q-30 10 -50 4q-50 -16 -56 -96zM1002 1436q10 -96 34 -196q22 -100 58 -192q22 -60 50 -114q74 118 114 248q30 94 38 186q6 94 -16 176 q-40 138 -120 154t-126 -64q-20 -34 -30 -84t-2 -114zM1820 616q72 36 136 96q88 82 126 176q22 52 26 98q4 44 -6 76q-20 78 -88 82q-66 6 -122 -88q-58 -94 -72 -222q-12 -108 0 -218zM2572 524q6 -58 22 -120q18 -66 44 -132q16 20 30 40q82 118 104 202q18 56 14 102 q-2 44 -16 74q-34 72 -102 60q-70 -10 -92 -122q-8 -48 -4 -104z" />
<glyph unicode="&#xe0;" horiz-adv-x="1460" d="M34 308q0 64 16 134q14 64 38 130q24 64 56 124q60 114 144 196q84 84 174 98q22 4 54 4t66 -4q62 -6 120 -28q30 -12 48 -28q8 28 12 44q12 58 78 58h22q84 -12 120 -78q10 -20 12 -48t-10 -60q-34 -34 -68 -172q-32 -140 -54 -306q-10 -70 -18 -140q-6 -70 -10 -136 q-6 -118 0 -202q6 -82 30 -90q44 -14 128 112q82 126 168 290q56 110 108 218q50 108 84 184q20 8 42 8t40 -4q-36 -82 -92 -210q-54 -128 -122 -258q-36 -68 -74 -134q-38 -64 -78 -122q-74 -104 -150 -164q-54 -42 -106 -42q-20 0 -40 6q-68 22 -110 74q-42 50 -64 114 q-40 120 -32 258t20 202q-6 -2 -36 -60q-30 -56 -80 -118q-28 -34 -60 -62q-34 -30 -70 -48q-46 -22 -98 -20q-52 0 -108 40q-76 52 -92 154q-8 42 -8 86zM338 394q-14 -110 40 -138q44 -24 112 90q70 114 134 260q52 118 90 226q6 14 10 28q-26 12 -54 12q-36 0 -72 -18 q-58 -28 -108 -94q-50 -64 -86 -140q-54 -114 -66 -226zM432 1324q14 52 80 98q42 28 100 28q30 0 66 -8q66 -82 88 -142t36 -138q-8 -48 -36 -64q-10 -6 -20 -8q-12 -4 -24 -4t-26 4q-28 12 -54 38q-26 24 -50 54q-44 54 -84 102t-76 40z" />
<glyph unicode="&#xe1;" horiz-adv-x="1460" d="M34 308q0 64 16 134q14 64 38 130q24 64 56 124q60 114 144 196q84 84 174 98q22 4 54 4t66 -4q62 -6 120 -28q30 -12 48 -28q8 28 12 44q12 58 78 58h22q84 -12 120 -78q10 -20 12 -48t-10 -60q-34 -34 -68 -172q-32 -140 -54 -306q-10 -70 -18 -140q-6 -70 -10 -136 q-6 -118 0 -202q6 -82 30 -90q44 -14 128 112q82 126 168 290q56 110 108 218q50 108 84 184q20 8 42 8t40 -4q-36 -82 -92 -210q-54 -128 -122 -258q-36 -68 -74 -134q-38 -64 -78 -122q-74 -104 -150 -164q-54 -42 -106 -42q-20 0 -40 6q-68 22 -110 74q-42 50 -64 114 q-40 120 -32 258t20 202q-6 -2 -36 -60q-30 -56 -80 -118q-28 -34 -60 -62q-34 -30 -70 -48q-46 -22 -98 -20q-52 0 -108 40q-76 52 -92 154q-8 42 -8 86zM338 394q-14 -110 40 -138q44 -24 112 90q70 114 134 260q52 118 90 226q6 14 10 28q-26 12 -54 12q-36 0 -72 -18 q-58 -28 -108 -94q-50 -64 -86 -140q-54 -114 -66 -226zM472 1132q14 78 36 138q24 62 90 142q34 10 64 10q60 0 102 -30q64 -44 80 -96q-36 6 -78 -42q-40 -48 -84 -102q-24 -28 -50 -54q-26 -24 -54 -38q-12 -2 -24 -2q-26 0 -44 10q-30 18 -38 64z" />
<glyph unicode="&#xe2;" horiz-adv-x="1460" d="M34 308q0 64 16 134q14 64 38 130q24 64 56 124q60 114 144 196q84 84 174 98q22 4 54 4t66 -4q62 -6 120 -28q30 -12 48 -28q8 28 12 44q12 58 78 58h22q84 -12 120 -78q10 -20 12 -48t-10 -60q-34 -34 -68 -172q-32 -140 -54 -306q-10 -70 -18 -140q-6 -70 -10 -136 q-6 -118 0 -202q6 -82 30 -90q44 -14 128 112q82 126 168 290q56 110 108 218q50 108 84 184q20 8 42 8t40 -4q-36 -82 -92 -210q-54 -128 -122 -258q-36 -68 -74 -134q-38 -64 -78 -122q-74 -104 -150 -164q-54 -42 -106 -42q-20 0 -40 6q-68 22 -110 74q-42 50 -64 114 q-40 120 -32 258t20 202q-6 -2 -36 -60q-30 -56 -80 -118q-28 -34 -60 -62q-34 -30 -70 -48q-46 -22 -98 -20q-52 0 -108 40q-76 52 -92 154q-8 42 -8 86zM338 394q-14 -110 40 -138q44 -24 112 90q70 114 134 260q52 118 90 226q6 14 10 28q-26 12 -54 12q-36 0 -72 -18 q-58 -28 -108 -94q-50 -64 -86 -140q-54 -114 -66 -226zM442 1192q0 22 22 48q22 30 54 58q48 42 104 78q54 36 72 42q12 -4 32 -22l42 -42q36 -36 72 -70t54 -40q6 -48 -26 -66q-10 -6 -20 -8q-22 -4 -42 14q-28 30 -52 82q-26 52 -40 66q-16 -12 -38 -94t-18 -110 q-36 -16 -72 -16q-34 0 -70 14q-72 30 -74 66z" />
<glyph unicode="&#xe3;" horiz-adv-x="1460" d="M34 308q0 64 16 134q14 64 38 130q24 64 56 124q60 114 144 196q84 84 174 98q22 4 54 4t66 -4q62 -6 120 -28q30 -12 48 -28q8 28 12 44q12 58 78 58h22q84 -12 120 -78q10 -20 12 -48t-10 -60q-34 -34 -68 -172q-32 -140 -54 -306q-10 -70 -18 -140q-6 -70 -10 -136 q-6 -118 0 -202q6 -82 30 -90q44 -14 128 112q82 126 168 290q56 110 108 218q50 108 84 184q20 8 42 8t40 -4q-36 -82 -92 -210q-54 -128 -122 -258q-36 -68 -74 -134q-38 -64 -78 -122q-74 -104 -150 -164q-54 -42 -106 -42q-20 0 -40 6q-68 22 -110 74q-42 50 -64 114 q-40 120 -32 258t20 202q-6 -2 -36 -60q-30 -56 -80 -118q-28 -34 -60 -62q-34 -30 -70 -48q-46 -22 -98 -20q-52 0 -108 40q-76 52 -92 154q-8 42 -8 86zM338 394q-14 -110 40 -138q44 -24 112 90q70 114 134 260q52 118 90 226q6 14 10 28q-26 12 -54 12q-36 0 -72 -18 q-58 -28 -108 -94q-50 -64 -86 -140q-54 -114 -66 -226zM366 1128q0 34 24 96q26 62 76 108q26 26 60 44q34 16 76 18h6q32 0 56 -14q30 -16 54 -38q44 -46 76 -96t60 -48q30 2 34 24q4 20 0 30q6 18 52 18t54 -16q6 -22 -30 -90t-98 -80h-4q-16 -4 -34 -4q-40 0 -74 20 q-46 28 -82 56q-20 14 -38 24q-16 12 -34 10q-32 -2 -46 -30t-14 -56q-22 -22 -88 -14q-68 10 -86 38z" />
<glyph unicode="&#xe4;" horiz-adv-x="1460" d="M34 308q0 64 16 134q14 64 38 130q24 64 56 124q60 114 144 196q84 84 174 98q22 4 54 4t66 -4q62 -6 120 -28q30 -12 48 -28q8 28 12 44q12 58 78 58h22q84 -12 120 -78q10 -20 12 -48t-10 -60q-34 -34 -68 -172q-32 -140 -54 -306q-10 -70 -18 -140q-6 -70 -10 -136 q-6 -118 0 -202q6 -82 30 -90q44 -14 128 112q82 126 168 290q56 110 108 218q50 108 84 184q20 8 42 8t40 -4q-36 -82 -92 -210q-54 -128 -122 -258q-36 -68 -74 -134q-38 -64 -78 -122q-74 -104 -150 -164q-54 -42 -106 -42q-20 0 -40 6q-68 22 -110 74q-42 50 -64 114 q-40 120 -32 258t20 202q-6 -2 -36 -60q-30 -56 -80 -118q-28 -34 -60 -62q-34 -30 -70 -48q-46 -22 -98 -20q-52 0 -108 40q-76 52 -92 154q-8 42 -8 86zM332 1204v6q4 48 42 94q40 46 88 48h8q52 0 110 -36q64 -38 60 -92q-6 -56 -70 -84q-2 0 -4 -2q-66 -28 -124 -30h-4 q-36 0 -72 32q-34 30 -34 64zM338 394q-14 -110 40 -138q44 -24 112 90q70 114 134 260q52 118 90 226q6 14 10 28q-26 12 -54 12q-36 0 -72 -18q-58 -28 -108 -94q-50 -64 -86 -140q-54 -114 -66 -226zM704 1256v6q0 34 36 66t74 32h4q58 -4 126 -32t74 -86q4 -56 -60 -94 q-46 -28 -86 -36q-14 -2 -26 -2h-8q-50 2 -90 50q-40 46 -44 96z" />
<glyph unicode="&#xe5;" horiz-adv-x="1460" d="M34 308q0 64 16 134q14 64 38 130q24 64 56 124q60 114 144 196q84 84 174 98q22 4 54 4t66 -4q62 -6 120 -28q30 -12 48 -28q8 28 12 44q12 58 78 58h22q84 -12 120 -78q10 -20 12 -48t-10 -60q-34 -34 -68 -172q-32 -140 -54 -306q-10 -70 -18 -140q-6 -70 -10 -136 q-6 -118 0 -202q6 -82 30 -90q44 -14 128 112q82 126 168 290q56 110 108 218q50 108 84 184q20 8 42 8t40 -4q-36 -82 -92 -210q-54 -128 -122 -258q-36 -68 -74 -134q-38 -64 -78 -122q-74 -104 -150 -164q-54 -42 -106 -42q-20 0 -40 6q-68 22 -110 74q-42 50 -64 114 q-40 120 -32 258t20 202q-6 -2 -36 -60q-30 -56 -80 -118q-28 -34 -60 -62q-34 -30 -70 -48q-46 -22 -98 -20q-52 0 -108 40q-76 52 -92 154q-8 42 -8 86zM338 394q-14 -110 40 -138q44 -24 112 90q70 114 134 260q52 118 90 226q6 14 10 28q-26 12 -54 12q-36 0 -72 -18 q-58 -28 -108 -94q-50 -64 -86 -140q-54 -114 -66 -226zM458 1256v8q0 88 68 136q40 30 94 30q36 0 80 -14q4 0 4 -22q16 -4 32 -10q26 -12 46 -34q42 -50 34 -126q-6 -76 -58 -122q-18 -14 -40 -24q-4 0 -6 -2q-20 -6 -44 -6h-2q-110 0 -158 54q-46 52 -50 132zM608 1250 q6 -38 20 -52q14 -16 48 -14q36 2 44 56q6 56 -62 54q-4 8 -2 28q-16 0 -26 -10q-26 -22 -22 -62z" />
<glyph unicode="&#xe6;" horiz-adv-x="1800" d="M32 306q0 64 16 136q12 66 38 130q24 66 56 126q62 114 146 198t174 98q24 4 56 4t66 -4q64 -6 122 -28q28 -12 46 -28q10 28 14 44q12 60 78 60q10 0 22 -2q80 -10 116 -68q44 34 92 56q54 24 116 24q88 0 142 -54t62 -130q4 -42 -6 -88q-10 -44 -34 -88 q-40 -66 -120 -124q-56 -40 -132 -66q-2 -92 6 -184q10 -114 32 -190q12 -40 30 -68q16 -26 34 -32q76 -26 168 72t174 232q44 74 82 146t66 132q20 6 38 4q18 0 36 -12q-32 -80 -90 -192q-56 -112 -134 -220q-40 -58 -88 -110q-46 -52 -96 -92q-78 -64 -166 -90 q-40 -12 -82 -14q-48 0 -96 16q-76 24 -128 72q-54 46 -86 108q-4 6 -8 14q-4 -104 28 -138q-44 -34 -104 -48q-18 -4 -38 -4q-40 0 -82 22q-14 102 -16 230q-4 128 6 180q-6 -4 -36 -62q-32 -58 -82 -120q-28 -34 -60 -62q-34 -30 -70 -48q-48 -22 -100 -20t-108 40 q-76 52 -92 156q-8 42 -8 86zM336 394q-12 -112 42 -140q44 -24 114 92q70 114 134 260q52 120 92 228q6 16 10 30q-26 12 -54 12q-38 0 -74 -18q-58 -30 -110 -94q-50 -66 -86 -142q-54 -116 -68 -228zM1106 572q22 10 42 22q54 34 88 76q62 78 60 156q0 80 -46 76 q-66 -4 -102 -112q-32 -96 -42 -218z" />
<glyph unicode="&#xe7;" horiz-adv-x="1116" d="M20 342q0 74 14 150q30 164 118 314t212 226q34 22 78 22q30 0 64 -12q84 -24 102 -80q6 -18 2 -38q-6 -22 -24 -44q-60 26 -100 -76q-42 -102 -60 -248q-8 -64 -12 -130q-2 -66 0 -126q2 -116 24 -200q22 -86 64 -100q76 -26 176 80q102 106 192 248q48 78 90 154 q40 76 68 136q20 4 38 4q20 0 38 -12q-34 -82 -92 -198q-60 -116 -140 -228q-42 -60 -90 -114t-100 -98q-54 -44 -112 -70q16 -16 36 -34q76 -68 106 -162q10 -32 10 -66q0 -20 -4 -40q-8 -56 -60 -114q-40 -46 -84 -66q-46 -20 -90 -20h-2q-84 0 -152 54q-70 56 -90 132 q-2 10 -2 18q0 54 60 70q70 20 104 -22q4 -26 38 -48t66 -12q12 6 24 18q10 12 16 34q18 70 -14 100q-30 32 -80 72q-24 20 -50 46q-36 2 -76 14q-110 34 -178 106t-98 166q-26 78 -28 166q-2 14 -2 28z" />
<glyph unicode="&#xe8;" horiz-adv-x="1130" d="M34 374q0 66 10 132q12 76 34 148q24 72 56 136q62 120 154 196q94 78 208 78q48 0 88 -16q38 -18 64 -46q52 -54 58 -138q6 -82 -44 -164q-40 -70 -120 -128q-56 -42 -136 -68q0 -42 2 -84q0 -62 6 -120q10 -108 36 -186q24 -80 62 -92q76 -28 170 74q94 100 178 236 q44 74 84 148q38 74 66 134q20 6 38 6t38 -12q-34 -82 -92 -198q-58 -114 -136 -222q-42 -60 -90 -112q-46 -54 -98 -96q-80 -62 -168 -90q-42 -14 -86 -14q-48 0 -98 16q-76 24 -130 72t-88 112q-48 90 -60 202q-6 48 -6 96zM266 1350q14 52 78 96q42 30 102 30q30 0 66 -8 q66 -82 88 -142q22 -62 36 -138q-8 -48 -38 -64q-18 -12 -42 -12q-14 0 -26 2q-28 14 -54 38q-26 26 -50 54q-44 54 -84 102t-76 42zM412 578q22 10 42 22q54 34 88 76q64 80 62 160q0 80 -46 76q-68 -4 -104 -114q-32 -98 -42 -220z" />
<glyph unicode="&#xe9;" horiz-adv-x="1130" d="M34 374q0 66 10 132q12 76 34 148q24 72 56 136q62 120 154 196q94 78 208 78q48 0 88 -16q38 -18 64 -46q52 -54 58 -138q6 -82 -44 -164q-40 -70 -120 -128q-56 -42 -136 -68q0 -42 2 -84q0 -62 6 -120q10 -108 36 -186q24 -80 62 -92q76 -28 170 74q94 100 178 236 q44 74 84 148q38 74 66 134q20 6 38 6t38 -12q-34 -82 -92 -198q-58 -114 -136 -222q-42 -60 -90 -112q-46 -54 -98 -96q-80 -62 -168 -90q-42 -14 -86 -14q-48 0 -98 16q-76 24 -130 72t-88 112q-48 90 -60 202q-6 48 -6 96zM366 1192q14 78 36 138t90 142q34 8 64 8 q60 0 102 -28q64 -46 80 -98q-38 8 -78 -40t-84 -102q-24 -30 -50 -54q-26 -26 -54 -38q-12 -4 -26 -4q-24 0 -42 12q-30 16 -38 64zM412 578q22 10 42 22q54 34 88 76q64 80 62 160q0 80 -46 76q-68 -4 -104 -114q-32 -98 -42 -220z" />
<glyph unicode="&#xea;" horiz-adv-x="1130" d="M34 374q0 66 10 132q12 76 34 148q24 72 56 136q62 120 154 196q94 78 208 78q48 0 88 -16q38 -18 64 -46q52 -54 58 -138q6 -82 -44 -164q-40 -70 -120 -128q-56 -42 -136 -68q0 -42 2 -84q0 -62 6 -120q10 -108 36 -186q24 -80 62 -92q76 -28 170 74q94 100 178 236 q44 74 84 148q38 74 66 134q20 6 38 6t38 -12q-34 -82 -92 -198q-58 -114 -136 -222q-42 -60 -90 -112q-46 -54 -98 -96q-80 -62 -168 -90q-42 -14 -86 -14q-48 0 -98 16q-76 24 -130 72t-88 112q-48 90 -60 202q-6 48 -6 96zM250 1172v2q0 20 20 48q22 28 56 56 q48 44 102 80q56 34 74 42q10 -6 32 -24q20 -18 42 -42q36 -36 72 -70q34 -34 54 -38v-16q0 -36 -26 -52q-32 -18 -62 6q-28 32 -54 82q-24 52 -38 66q-16 -12 -38 -92q-22 -82 -18 -112q-36 -14 -72 -14t-70 14q-72 28 -74 64zM412 578q22 10 42 22q54 34 88 76 q64 80 62 160q0 80 -46 76q-68 -4 -104 -114q-32 -98 -42 -220z" />
<glyph unicode="&#xeb;" horiz-adv-x="1130" d="M34 374q0 66 10 132q12 76 34 148q24 72 56 136q62 120 154 196q94 78 208 78q48 0 88 -16q38 -18 64 -46q52 -54 58 -138q6 -82 -44 -164q-40 -70 -120 -128q-56 -42 -136 -68q0 -42 2 -84q0 -62 6 -120q10 -108 36 -186q24 -80 62 -92q76 -28 170 74q94 100 178 236 q44 74 84 148q38 74 66 134q20 6 38 6t38 -12q-34 -82 -92 -198q-58 -114 -136 -222q-42 -60 -90 -112q-46 -54 -98 -96q-80 -62 -168 -90q-42 -14 -86 -14q-48 0 -98 16q-76 24 -130 72t-88 112q-48 90 -60 202q-6 48 -6 96zM166 1232v6q4 48 44 94t88 48h8q50 0 110 -36 q64 -38 58 -92q-4 -58 -72 -86q-48 -20 -92 -26q-16 -4 -32 -4h-4q-36 0 -72 32q-36 30 -36 64zM412 578q22 10 42 22q54 34 88 76q64 80 62 160q0 80 -46 76q-68 -4 -104 -114q-32 -98 -42 -220zM540 1284v6q0 34 36 66t72 32h4q58 -4 128 -32q68 -28 72 -86q2 -4 2 -8 q-2 -50 -60 -86q-62 -38 -114 -38h-6q-50 2 -90 50q-40 46 -44 96z" />
<glyph unicode="&#xec;" horiz-adv-x="898" d="M28 1340q16 52 80 98q42 28 100 28q32 0 66 -8q66 -82 88 -142q24 -62 38 -138q-10 -48 -38 -64q-20 -12 -44 -12q-12 0 -26 4q-26 12 -52 38q-26 24 -50 54q-46 54 -86 102t-76 40zM80 244q0 18 2 36q2 86 12 174q20 164 40 300q22 134 -12 156q14 58 96 70q18 2 32 2 q62 0 104 -38q18 -16 28 -40q8 -24 8 -54q2 -42 -6 -128q-10 -86 -22 -186q-12 -98 -18 -194q-8 -96 0 -160q4 -36 14 -58q8 -24 26 -30q56 -20 132 64q76 82 148 200q38 64 74 132q36 66 64 126q18 4 38 6q18 0 36 -12q-32 -82 -88 -188q-54 -108 -124 -208 q-38 -54 -78 -102q-42 -48 -84 -86q-68 -58 -140 -86q-38 -14 -76 -14q-34 0 -66 10q-58 18 -88 68q-30 48 -42 116q-10 58 -10 124z" />
<glyph unicode="&#xed;" horiz-adv-x="898" d="M80 244q0 18 2 36q2 86 12 174q20 164 40 300q22 134 -12 156q14 58 96 70q18 2 32 2q62 0 104 -38q18 -16 28 -40q8 -24 8 -54q2 -42 -6 -128q-10 -86 -22 -186q-12 -98 -18 -194q-8 -96 0 -160q4 -36 14 -58q8 -24 26 -30q56 -20 132 64q76 82 148 200q38 64 74 132 q36 66 64 126q18 4 38 6q18 0 36 -12q-32 -82 -88 -188q-54 -108 -124 -208q-38 -54 -78 -102q-42 -48 -84 -86q-68 -58 -140 -86q-38 -14 -76 -14q-34 0 -66 10q-58 18 -88 68q-30 48 -42 116q-10 58 -10 124zM132 1170q14 78 36 138q24 60 90 142q34 8 64 8q60 0 102 -28 q64 -46 80 -98q-38 8 -78 -40t-84 -102q-24 -30 -50 -54q-26 -26 -54 -38q-12 -4 -26 -4q-24 0 -42 12q-30 16 -38 64z" />
<glyph unicode="&#xee;" horiz-adv-x="898" d="M26 1144v2q0 20 22 48t54 56q50 44 104 80t72 42q12 -6 32 -24q22 -18 44 -42l72 -68q34 -34 52 -40q2 -8 2 -14q0 -38 -28 -54q-32 -18 -60 8q-28 30 -54 82q-24 50 -40 64q-14 -10 -36 -92t-20 -112q-34 -14 -70 -14t-72 14q-70 30 -74 64zM80 244q0 18 2 36 q2 86 12 174q20 164 40 300q22 134 -12 156q14 58 96 70q18 2 32 2q62 0 104 -38q18 -16 28 -40q8 -24 8 -54q2 -42 -6 -128q-10 -86 -22 -186q-12 -98 -18 -194q-8 -96 0 -160q4 -36 14 -58q8 -24 26 -30q56 -20 132 64q76 82 148 200q38 64 74 132q36 66 64 126q18 4 38 6 q18 0 36 -12q-32 -82 -88 -188q-54 -108 -124 -208q-38 -54 -78 -102q-42 -48 -84 -86q-68 -58 -140 -86q-38 -14 -76 -14q-34 0 -66 10q-58 18 -88 68q-30 48 -42 116q-10 58 -10 124z" />
<glyph unicode="&#xef;" horiz-adv-x="898" d="M-88 1176q0 2 2 6q4 48 42 94q40 46 88 48h8q52 0 110 -36t60 -84q0 -4 -2 -8q-4 -58 -72 -86t-124 -30h-4q-36 0 -72 32q-36 30 -36 64zM80 244q0 18 2 36q2 86 12 174q20 164 40 300q22 134 -12 156q14 58 96 70q18 2 32 2q62 0 104 -38q18 -16 28 -40q8 -24 8 -54 q2 -42 -6 -128q-10 -86 -22 -186q-12 -98 -18 -194q-8 -96 0 -160q4 -36 14 -58q8 -24 26 -30q56 -20 132 64q76 82 148 200q38 64 74 132q36 66 64 126q18 4 38 6q18 0 36 -12q-32 -82 -88 -188q-54 -108 -124 -208q-38 -54 -78 -102q-42 -48 -84 -86q-68 -58 -140 -86 q-38 -14 -76 -14q-34 0 -66 10q-58 18 -88 68q-30 48 -42 116q-10 58 -10 124zM286 1228v4q0 36 36 68t72 32q2 0 4 -2q58 -2 128 -30q68 -28 74 -86v-8q0 -50 -60 -88q-60 -36 -114 -36h-6q-50 2 -90 50q-40 46 -44 96z" />
<glyph unicode="&#xf1;" horiz-adv-x="1396" d="M20 130q0 76 6 168q4 92 10 188q10 176 12 326q4 150 -26 180q22 20 54 24t68 -2q50 -10 96 -38q44 -28 52 -62q0 -38 4 -116q12 20 64 88q50 68 124 118q40 28 86 42q28 8 56 8q18 0 38 -2q94 -18 130 -158t44 -314q6 -140 4 -276t4 -226q2 -50 8 -80q8 -30 20 -34 q44 -16 120 90q78 108 150 240q50 88 90 170t60 128q20 6 40 8q18 0 38 -16q-22 -50 -70 -150q-46 -100 -108 -208q-34 -56 -70 -112t-72 -104q-70 -90 -142 -140q-50 -36 -98 -36q-20 0 -40 6q-76 26 -120 84q-46 58 -70 136q-26 82 -32 176q-6 96 -2 192q8 176 28 314 t-4 144q-44 12 -102 -52t-102 -150q-30 -58 -48 -116q-18 -56 -18 -96q2 -114 6 -340q-24 -50 -82 -76q-58 -24 -112 -10q-30 6 -54 28q-26 20 -40 56zM186 1124v6q0 36 18 92q22 64 68 114q24 28 58 46q32 20 74 26h14q26 0 48 -10q30 -14 56 -36q48 -40 84 -88t62 -44 q30 4 34 24q2 22 -4 32q4 18 52 20q46 4 54 -14q2 -4 2 -10q-2 -24 -26 -80q-32 -70 -92 -88q-64 -16 -112 10q-48 24 -88 50q-20 14 -38 22q-18 10 -34 6q-32 -4 -44 -32q-14 -28 -10 -56q-18 -22 -68 -22q-10 0 -20 2q-68 4 -88 30z" />
<glyph unicode="&#xf2;" horiz-adv-x="1214" d="M14 532q0 50 6 102q14 108 58 202q42 92 114 162q70 70 174 106q34 10 62 10q56 0 88 -34q38 -42 28 -78q16 8 36 14q98 30 164 -20q66 -48 100 -146q18 -52 26 -114q10 -62 10 -130q0 -82 -12 -168q-4 -18 -6 -36q24 6 48 14q76 28 130 78q54 48 72 86q26 8 42 8 q16 2 38 -10q-26 -64 -90 -132q-64 -70 -164 -104q-42 -14 -94 -18q-6 -26 -14 -50q-46 -148 -136 -250q-88 -104 -218 -104q-190 2 -308 152t-146 348q-8 56 -8 112zM254 1376q16 52 80 96q42 30 102 30q30 0 64 -8q66 -82 90 -142q22 -62 36 -138q-8 -48 -38 -64 q-18 -12 -44 -12q-12 0 -24 2q-28 14 -54 40q-26 24 -50 54q-44 54 -86 102q-40 48 -76 40zM264 500q14 -116 48 -224t76 -176q22 -36 46 -56t46 -20q68 0 106 118q32 102 46 226q-56 32 -102 96q-68 90 -94 198q-16 58 -16 114q0 58 18 106q18 46 52 82q12 12 28 24 q-60 6 -106 -12q-50 -20 -84 -64q-52 -68 -64 -180q-14 -112 0 -232zM584 844q-2 -62 8 -144q14 -98 48 -192l4 -12l2 46q4 64 2 124q-2 110 -16 182q-12 72 -32 64q-14 -6 -16 -68z" />
<glyph unicode="&#xf3;" horiz-adv-x="1214" d="M14 532q0 50 6 102q14 108 58 202q42 92 114 162q70 70 174 106q34 10 62 10q56 0 88 -34q38 -42 28 -78q16 8 36 14q98 30 164 -20q66 -48 100 -146q18 -52 26 -114q10 -62 10 -130q0 -82 -12 -168q-4 -18 -6 -36q24 6 48 14q76 28 130 78q54 48 72 86q26 8 42 8 q16 2 38 -10q-26 -64 -90 -132q-64 -70 -164 -104q-42 -14 -94 -18q-6 -26 -14 -50q-46 -148 -136 -250q-88 -104 -218 -104q-190 2 -308 152t-146 348q-8 56 -8 112zM264 500q14 -116 48 -224t76 -176q22 -36 46 -56t46 -20q68 0 106 118q32 102 46 226q-56 32 -102 96 q-68 90 -94 198q-16 58 -16 114q0 58 18 106q18 46 52 82q12 12 28 24q-60 6 -106 -12q-50 -20 -84 -64q-52 -68 -64 -180q-14 -112 0 -232zM340 1258q14 78 36 138q24 62 90 144q34 8 66 8q58 0 100 -30q64 -44 80 -96q-36 6 -76 -42t-86 -102q-24 -28 -50 -54 q-26 -24 -52 -38q-14 -2 -26 -2q-26 0 -44 12q-28 16 -38 62zM584 844q-2 -62 8 -144q14 -98 48 -192l4 -12l2 46q4 64 2 124q-2 110 -16 182q-12 72 -32 64q-14 -6 -16 -68z" />
<glyph unicode="&#xf4;" horiz-adv-x="1214" d="M14 532q0 50 6 102q14 108 58 202q42 92 114 162q70 70 174 106q34 10 62 10q56 0 88 -34q38 -42 28 -78q16 8 36 14q98 30 164 -20q66 -48 100 -146q18 -52 26 -114q10 -62 10 -130q0 -82 -12 -168q-4 -18 -6 -36q24 6 48 14q76 28 130 78q54 48 72 86q26 8 42 8 q16 2 38 -10q-26 -64 -90 -132q-64 -70 -164 -104q-42 -14 -94 -18q-6 -26 -14 -50q-46 -148 -136 -250q-88 -104 -218 -104q-190 2 -308 152t-146 348q-8 56 -8 112zM204 1228v2q0 20 22 48t54 56q48 44 104 78q54 36 72 42q12 -4 32 -22q20 -20 44 -42q34 -36 70 -70 t54 -38v-16q0 -36 -26 -52q-32 -20 -62 6q-28 30 -52 82q-26 52 -40 66q-14 -12 -38 -94q-22 -82 -18 -110q-36 -16 -72 -16q-34 0 -70 16q-70 28 -74 64zM264 500q14 -116 48 -224t76 -176q22 -36 46 -56t46 -20q68 0 106 118q32 102 46 226q-56 32 -102 96q-68 90 -94 198 q-16 58 -16 114q0 58 18 106q18 46 52 82q12 12 28 24q-60 6 -106 -12q-50 -20 -84 -64q-52 -68 -64 -180q-14 -112 0 -232zM584 844q-2 -62 8 -144q14 -98 48 -192l4 -12l2 46q4 64 2 124q-2 110 -16 182q-12 72 -32 64q-14 -6 -16 -68z" />
<glyph unicode="&#xf5;" horiz-adv-x="1214" d="M14 532q0 50 6 102q14 108 58 202q42 92 114 162q70 70 174 106q34 10 62 10q56 0 88 -34q38 -42 28 -78q16 8 36 14q98 30 164 -20q66 -48 100 -146q18 -52 26 -114q10 -62 10 -130q0 -82 -12 -168q-4 -18 -6 -36q24 6 48 14q76 28 130 78q54 48 72 86q26 8 42 8 q16 2 38 -10q-26 -64 -90 -132q-64 -70 -164 -104q-42 -14 -94 -18q-6 -26 -14 -50q-46 -148 -136 -250q-88 -104 -218 -104q-190 2 -308 152t-146 348q-8 56 -8 112zM166 1152v6q0 18 4 42q6 28 18 60q24 58 72 112t122 64h18q24 0 46 -10q30 -12 56 -34q48 -40 84 -88 t62 -44q30 4 34 26q2 20 -2 30q2 18 50 22q46 2 54 -14q2 -4 2 -10q0 -24 -26 -80q-30 -72 -92 -88q-62 -18 -112 8q-48 24 -86 50q-20 12 -38 22q-20 8 -36 6q-32 -6 -44 -34t-8 -56q-18 -22 -72 -22q-8 0 -16 2q-68 4 -90 30zM264 500q14 -116 48 -224t76 -176 q22 -36 46 -56t46 -20q68 0 106 118q32 102 46 226q-56 32 -102 96q-68 90 -94 198q-16 58 -16 114q0 58 18 106q18 46 52 82q12 12 28 24q-60 6 -106 -12q-50 -20 -84 -64q-52 -68 -64 -180q-14 -112 0 -232zM584 844q-2 -62 8 -144q14 -98 48 -192l4 -12l2 46q4 64 2 124 q-2 110 -16 182q-12 72 -32 64q-14 -6 -16 -68z" />
<glyph unicode="&#xf6;" horiz-adv-x="1214" d="M14 532q0 50 6 102q14 108 58 202q42 92 114 162q70 70 174 106q34 10 62 10q56 0 88 -34q38 -42 28 -78q16 8 36 14q98 30 164 -20q66 -48 100 -146q18 -52 26 -114q10 -62 10 -130q0 -82 -12 -168q-4 -18 -6 -36q24 6 48 14q76 28 130 78q54 48 72 86q26 8 42 8 q16 2 38 -10q-26 -64 -90 -132q-64 -70 -164 -104q-42 -14 -94 -18q-6 -26 -14 -50q-46 -148 -136 -250q-88 -104 -218 -104q-190 2 -308 152t-146 348q-8 56 -8 112zM108 1244v6q4 48 44 94t88 48h6q52 0 112 -36q62 -38 58 -92q-4 -58 -72 -86q-34 -14 -66 -20 q-30 -8 -58 -10h-4q-36 0 -72 32q-36 30 -36 64zM264 500q14 -116 48 -224t76 -176q22 -36 46 -56t46 -20q68 0 106 118q32 102 46 226q-56 32 -102 96q-68 90 -94 198q-16 58 -16 114q0 58 18 106q18 46 52 82q12 12 28 24q-60 6 -106 -12q-50 -20 -84 -64 q-52 -68 -64 -180q-14 -112 0 -232zM480 1302q0 34 36 66q38 32 74 32h4q58 -4 126 -32q70 -28 74 -86v-8q0 -50 -60 -86q-60 -38 -112 -38h-8q-48 2 -88 50q-40 46 -44 96q-2 2 -2 6zM584 844q-2 -62 8 -144q14 -98 48 -192l4 -12l2 46q4 64 2 124q-2 110 -16 182 q-12 72 -32 64q-14 -6 -16 -68z" />
<glyph unicode="&#xf7;" d="M82 768q0 34 22 62q12 12 28 22t36 12q58 4 156 6q98 4 210 6h240h76q150 0 184 -6q24 -28 32 -82q2 -12 2 -24q0 -38 -22 -60q-10 8 -40 12t-72 6q-80 2 -192 -2q-114 -4 -226 -12q-116 -8 -212 -14q-98 -8 -142 -10q-62 0 -76 54q-4 14 -4 30zM406 1120q0 4 2 6 q4 48 42 94q40 46 88 48h8q52 0 110 -36t60 -84q0 -4 -2 -8q-4 -58 -72 -86t-124 -30h-4q-36 0 -72 32q-36 30 -36 64zM442 510v6q0 34 36 66t72 32h4q58 -4 128 -32q68 -28 74 -86v-8q0 -50 -60 -86q-60 -38 -114 -38h-6q-50 2 -90 50q-40 46 -44 96z" />
<glyph unicode="&#xf8;" horiz-adv-x="1214" d="M14 532q0 50 6 102q14 108 58 202q42 92 114 162q70 70 174 106q34 10 62 10q56 0 88 -34q38 -42 28 -78q16 8 36 14q66 20 116 4q30 78 48 144q26 100 14 140q28 58 80 80q20 10 36 10q26 0 46 -20q12 -14 18 -40q2 -12 2 -28t-2 -36q-22 -134 -96 -326q-10 -24 -18 -48 q10 -22 20 -46q18 -52 26 -114q10 -62 10 -130q0 -82 -12 -168q-4 -18 -6 -36q24 6 48 14q76 28 130 78q54 48 72 86q26 8 42 8q16 2 38 -10q-26 -64 -90 -132q-64 -70 -164 -104q-42 -14 -94 -18q-6 -26 -14 -50q-46 -148 -136 -250q-88 -104 -218 -104q-32 0 -60 4 q-6 -20 -12 -38q-22 -64 -28 -106t10 -56q-42 -28 -80 -38q-30 -8 -54 -8h-10q-54 4 -84 34q-30 32 -30 58q14 32 76 158q16 34 36 72q-40 30 -72 72q-118 150 -146 348q-8 56 -8 112zM264 500q14 -116 48 -224q12 -42 26 -76l12 26q44 94 92 194l48 104q-36 64 -54 138 q-16 58 -16 114q0 58 18 106q18 46 52 82q12 12 28 24q-60 6 -106 -12q-50 -20 -84 -64q-52 -68 -64 -180q-14 -112 0 -232zM454 28q14 -4 26 -4q68 0 106 118q32 102 46 226q-12 8 -22 14q-46 -102 -88 -198q-38 -84 -68 -156zM584 844q-2 -44 2 -100q8 16 16 34 q14 36 30 70q-12 72 -32 64q-14 -6 -16 -68z" />
<glyph unicode="&#xf9;" horiz-adv-x="1274" d="M22 480v16q2 144 16 286q16 142 18 234q16 40 68 50q18 4 38 4q34 0 66 -10q28 -8 54 -24t44 -40q0 -84 -8 -184t-16 -198q-18 -184 -24 -330q-6 -144 40 -152q62 -8 114 56t88 152q22 56 36 114t18 102q4 120 14 360q20 34 74 50q54 14 106 -8q30 -10 52 -36 q24 -24 36 -62q-20 -8 -44 -124q-22 -118 -36 -266q-8 -64 -12 -130q-6 -64 -8 -122q-4 -110 0 -188q6 -76 26 -80q44 -10 116 96t140 232q54 104 96 196q42 90 52 118q22 12 44 10t30 -22q-12 -30 -60 -136q-48 -108 -114 -230q-28 -52 -60 -102q-30 -50 -62 -96 q-60 -82 -120 -130q-46 -36 -88 -36q-14 0 -28 4q-54 14 -88 46q-32 32 -52 70q-34 74 -34 158v130q-10 -22 -48 -92q-38 -74 -106 -124q-36 -26 -80 -40q-44 -12 -96 2q-68 16 -110 70q-40 54 -62 132q-18 62 -24 136q-6 68 -6 138zM274 1304q16 52 80 98q42 30 100 28 q32 0 66 -8q66 -80 90 -142q22 -60 36 -138q-10 -46 -38 -64q-18 -10 -44 -10q-12 0 -26 2q-26 14 -52 38q-26 26 -50 54q-44 54 -86 102q-40 48 -76 40z" />
<glyph unicode="&#xfa;" horiz-adv-x="1274" d="M22 480v16q2 144 16 286q16 142 18 234q16 40 68 50q18 4 38 4q34 0 66 -10q28 -8 54 -24t44 -40q0 -84 -8 -184t-16 -198q-18 -184 -24 -330q-6 -144 40 -152q62 -8 114 56t88 152q22 56 36 114t18 102q4 120 14 360q20 34 74 50q54 14 106 -8q30 -10 52 -36 q24 -24 36 -62q-20 -8 -44 -124q-22 -118 -36 -266q-8 -64 -12 -130q-6 -64 -8 -122q-4 -110 0 -188q6 -76 26 -80q44 -10 116 96t140 232q54 104 96 196q42 90 52 118q22 12 44 10t30 -22q-12 -30 -60 -136q-48 -108 -114 -230q-28 -52 -60 -102q-30 -50 -62 -96 q-60 -82 -120 -130q-46 -36 -88 -36q-14 0 -28 4q-54 14 -88 46q-32 32 -52 70q-34 74 -34 158v130q-10 -22 -48 -92q-38 -74 -106 -124q-36 -26 -80 -40q-44 -12 -96 2q-68 16 -110 70q-40 54 -62 132q-18 62 -24 136q-6 68 -6 138zM332 1158q14 78 38 138q22 62 88 144 q34 8 66 8q58 0 100 -30q64 -44 80 -96q-36 6 -76 -42t-86 -102q-24 -28 -50 -54q-26 -24 -52 -38q-14 -2 -26 -2q-26 0 -44 10q-28 18 -38 64z" />
<glyph unicode="&#xfb;" horiz-adv-x="1274" d="M22 480v16q2 144 16 286q16 142 18 234q16 40 68 50q18 4 38 4q34 0 66 -10q28 -8 54 -24t44 -40q0 -84 -8 -184t-16 -198q-18 -184 -24 -330q-6 -144 40 -152q62 -8 114 56t88 152q22 56 36 114t18 102q4 120 14 360q20 34 74 50q54 14 106 -8q30 -10 52 -36 q24 -24 36 -62q-20 -8 -44 -124q-22 -118 -36 -266q-8 -64 -12 -130q-6 -64 -8 -122q-4 -110 0 -188q6 -76 26 -80q44 -10 116 96t140 232q54 104 96 196q42 90 52 118q22 12 44 10t30 -22q-12 -30 -60 -136q-48 -108 -114 -230q-28 -52 -60 -102q-30 -50 -62 -96 q-60 -82 -120 -130q-46 -36 -88 -36q-14 0 -28 4q-54 14 -88 46q-32 32 -52 70q-34 74 -34 158v130q-10 -22 -48 -92q-38 -74 -106 -124q-36 -26 -80 -40q-44 -12 -96 2q-68 16 -110 70q-40 54 -62 132q-18 62 -24 136q-6 68 -6 138zM224 1200v2q0 20 22 48t54 56 q50 44 104 78q54 36 72 42q12 -4 32 -22q20 -20 44 -42l70 -70q36 -34 54 -38q2 -8 2 -16q-2 -36 -28 -52q-32 -20 -60 6q-30 30 -54 82q-26 52 -40 66q-14 -12 -36 -94q-24 -80 -20 -110q-36 -16 -72 -16q-34 0 -70 16q-70 28 -74 64z" />
<glyph unicode="&#xfc;" horiz-adv-x="1274" d="M22 480v16q2 144 16 286q16 142 18 234q16 40 68 50q18 4 38 4q34 0 66 -10q28 -8 54 -24t44 -40q0 -84 -8 -184t-16 -198q-18 -184 -24 -330q-6 -144 40 -152q62 -8 114 56t88 152q22 56 36 114t18 102q4 120 14 360q20 34 74 50q54 14 106 -8q30 -10 52 -36 q24 -24 36 -62q-20 -8 -44 -124q-22 -118 -36 -266q-8 -64 -12 -130q-6 -64 -8 -122q-4 -110 0 -188q6 -76 26 -80q44 -10 116 96t140 232q54 104 96 196q42 90 52 118q22 12 44 10t30 -22q-12 -30 -60 -136q-48 -108 -114 -230q-28 -52 -60 -102q-30 -50 -62 -96 q-60 -82 -120 -130q-46 -36 -88 -36q-14 0 -28 4q-54 14 -88 46q-32 32 -52 70q-34 74 -34 158v130q-10 -22 -48 -92q-38 -74 -106 -124q-36 -26 -80 -40q-44 -12 -96 2q-68 16 -110 70q-40 54 -62 132q-18 62 -24 136q-6 68 -6 138zM134 1220v6q4 48 44 94t88 48h8 q52 0 110 -36q64 -38 58 -92q-4 -58 -72 -86q-30 -12 -58 -20q-34 -8 -66 -10h-4q-36 0 -72 30q-36 32 -36 66zM508 1270v6q0 36 36 66q36 32 72 32h4q58 -2 128 -30q68 -28 74 -86v-8q0 -52 -60 -88t-114 -36h-6q-50 2 -90 48q-40 48 -44 96z" />
<glyph unicode="&#xfd;" horiz-adv-x="1172" d="M24 534v6q0 60 2 118q4 60 8 112q8 100 12 172q4 70 -12 84q26 50 112 52h2q84 0 140 -46q18 -16 32 -36q12 -20 14 -46q-10 -80 -18 -166q-6 -86 -8 -168q-6 -152 4 -264q10 -110 40 -110q44 -2 92 102t80 246q16 80 26 162t10 158q4 30 14 48q12 20 30 30 q52 30 124 -10q72 -38 78 -118q-10 -4 -14 -32t-8 -72q-4 -86 -2 -220q0 -136 -4 -290q0 -16 -2 -30q32 36 66 74q70 80 132 164t104 168q22 6 40 8q20 2 42 -6q-46 -98 -112 -192t-138 -182q-70 -82 -138 -158v-52q-6 -104 -16 -204q-20 -182 -66 -322t-132 -182 q-56 -26 -102 -26h-10q-48 4 -80 34q-60 54 -56 178t84 266q50 90 168 210q2 106 0 200v140q-8 -36 -42 -100q-38 -66 -94 -116q-30 -26 -66 -42q-34 -16 -72 -16q-80 0 -132 38q-52 40 -80 106q-32 66 -42 154t-10 176zM306 1168q16 78 38 138t88 142q36 8 66 8 q58 0 100 -28q64 -46 80 -98q-36 8 -76 -40t-86 -102q-24 -30 -50 -54q-24 -26 -52 -38q-14 -4 -26 -4q-24 0 -44 12q-28 16 -38 64zM436 -460q34 -62 62 -50q24 10 38 84q12 72 18 176q4 54 6 114q-68 -80 -96 -140q-62 -124 -28 -184z" />
<glyph unicode="&#xff;" horiz-adv-x="1172" d="M24 534v6q0 60 2 118q4 60 8 112q8 100 12 172q4 70 -12 84q26 50 112 52h2q84 0 140 -46q18 -16 32 -36q12 -20 14 -46q-10 -80 -18 -166q-6 -86 -8 -168q-6 -152 4 -264q10 -110 40 -110q44 -2 92 102t80 246q16 80 26 162t10 158q4 30 14 48q12 20 30 30 q52 30 124 -10q72 -38 78 -118q-10 -4 -14 -32t-8 -72q-4 -86 -2 -220q0 -136 -4 -290q0 -16 -2 -30q32 36 66 74q70 80 132 164t104 168q22 6 40 8q20 2 42 -6q-46 -98 -112 -192t-138 -182q-70 -82 -138 -158v-52q-6 -104 -16 -204q-20 -182 -66 -322t-132 -182 q-56 -26 -102 -26h-10q-48 4 -80 34q-60 54 -56 178t84 266q50 90 168 210q2 106 0 200v140q-8 -36 -42 -100q-38 -66 -94 -116q-30 -26 -66 -42q-34 -16 -72 -16q-80 0 -132 38q-52 40 -80 106q-32 66 -42 154t-10 176zM134 1214v6q4 48 42 94q40 46 88 48h8q52 0 110 -36 q64 -38 60 -92q-6 -58 -74 -86q-48 -20 -90 -26q-18 -2 -34 -4h-4q-36 0 -72 32q-34 30 -34 64zM436 -460q34 -62 62 -50q24 10 38 84q12 72 18 176q4 54 6 114q-68 -80 -96 -140q-62 -124 -28 -184zM506 1266v6q0 34 36 66t74 32h4q58 -4 126 -32t74 -86v-8q0 -50 -60 -86 q-60 -38 -112 -38h-8q-50 2 -90 50q-40 46 -44 96z" />
<glyph unicode="&#x152;" horiz-adv-x="2080" d="M58 610v42q0 68 6 140q10 96 34 192q42 182 124 352q84 168 202 282q98 94 220 136q66 22 136 22q62 0 128 -16q28 -26 24 -54q130 -16 218 -108q46 -50 82 -110q4 26 8 50q16 132 -4 174q50 34 176 34q128 2 256 2q86 2 158 8q72 8 108 34h8q26 0 44 -8q20 -8 30 -22 q34 -44 0 -114q-36 -70 -110 -84q-32 -10 -74 -12t-86 2q-82 6 -158 20q-76 12 -102 2q0 -32 -4 -120t-8 -184q-4 -62 -8 -116q-4 -56 -8 -92q74 14 162 22t136 28q74 -46 64 -114q-12 -68 -68 -82q-70 -18 -146 -14q-76 2 -138 -8q4 -42 0 -118q-2 -76 -4 -162 q-2 -128 4 -244q8 -116 44 -134t92 0q56 20 114 58q88 60 156 140q70 82 62 132q72 30 98 -48q10 -30 10 -56q0 -46 -28 -82q-10 -14 -34 -48q-26 -34 -64 -78q-68 -82 -168 -174t-206 -134q-56 -20 -108 -24h-8q-50 0 -96 24q-68 34 -112 102q-32 48 -54 110 q-24 -32 -48 -62q-122 -146 -298 -146h-2q-204 0 -370 82q-168 82 -270 222q-54 76 -84 166q-32 90 -36 190zM452 626q2 -62 18 -128q18 -66 48 -126q56 -114 140 -194q86 -82 172 -80q62 2 118 90q56 86 98 222q24 74 42 156q20 82 32 170q28 196 22 388q-8 194 -66 312 q-30 66 -78 100q-48 36 -114 32q-26 40 -26 74q-54 12 -108 -36q-66 -60 -124 -178q-30 -62 -58 -138q-26 -76 -48 -158q-32 -126 -50 -258q-20 -132 -18 -248z" />
<glyph unicode="&#x153;" horiz-adv-x="1784" d="M22 542q0 160 64 298q44 90 114 160q72 70 174 108q34 8 62 8q58 0 90 -34q38 -42 24 -78q18 8 38 14q54 16 98 8q42 -8 76 -34q50 -40 80 -110q52 84 124 144q94 78 208 78q48 0 86 -18q40 -16 66 -46q50 -52 56 -136t-42 -166q-40 -68 -120 -126q-56 -42 -136 -70 q-2 -92 6 -186q10 -114 34 -192q12 -42 28 -70q18 -26 38 -34q76 -26 170 74t176 238q46 74 84 148q40 74 68 134q20 6 38 4q18 0 38 -12q-18 -44 -44 -98q-24 -54 -56 -114q-60 -110 -140 -224q-80 -112 -176 -190q-80 -64 -168 -92q-42 -12 -86 -12q-48 0 -98 16 q-76 24 -130 72t-88 112q-2 4 -6 8q-30 -54 -68 -98q-90 -102 -218 -102q-104 0 -186 48q-82 46 -140 124q-110 146 -134 358q-4 44 -4 88zM272 734q-12 -112 2 -232q8 -62 22 -124q12 -62 30 -116q34 -102 78 -170q44 -66 86 -66q68 2 106 120t52 268l2 22q-64 30 -114 92 q-68 82 -94 176q-14 50 -14 100q2 50 20 92q16 42 52 74q12 10 26 20q-60 6 -104 -12q-52 -20 -84 -62q-52 -70 -66 -182zM592 840q-2 -68 14 -148q8 -42 22 -84q12 -34 28 -60q2 64 2 120q-4 110 -16 182t-32 64q-16 -6 -18 -74zM1090 616q22 10 42 22q54 34 88 78 q64 80 62 160q0 78 -46 76q-68 -4 -104 -114q-32 -100 -42 -222z" />
<glyph unicode="&#x2c6;" horiz-adv-x="496" d="M36 1654v2q0 22 22 48q22 28 54 58q50 42 104 78t72 42q12 -4 32 -24q20 -18 44 -40l70 -70q36 -34 54 -40q2 -8 2 -14q0 -38 -28 -54q-32 -18 -60 8q-30 30 -54 82q-26 50 -40 64q-14 -10 -36 -92t-20 -112q-36 -14 -70 -14q-36 0 -72 14q-70 30 -74 64z" />
<glyph unicode="&#x2dc;" horiz-adv-x="702" d="M34 1512q0 18 10 46q8 28 24 58q32 54 86 102t130 48q34 0 62 -18t50 -42q42 -48 72 -100q30 -50 58 -50q30 0 34 22q6 20 2 30q6 18 52 16q48 -4 54 -22v-6q0 -22 -36 -80q-40 -66 -102 -76q-14 -2 -28 -2q-46 0 -82 24q-44 32 -80 62q-18 16 -36 26q-16 12 -32 12 q-34 -2 -48 -28q-16 -28 -16 -54q-26 -22 -92 -10q-64 12 -82 42z" />
<glyph unicode="&#x2000;" horiz-adv-x="1140" />
<glyph unicode="&#x2001;" horiz-adv-x="2280" />
<glyph unicode="&#x2002;" horiz-adv-x="1140" />
<glyph unicode="&#x2003;" horiz-adv-x="2280" />
<glyph unicode="&#x2004;" horiz-adv-x="760" />
<glyph unicode="&#x2005;" horiz-adv-x="570" />
<glyph unicode="&#x2006;" horiz-adv-x="380" />
<glyph unicode="&#x2007;" horiz-adv-x="380" />
<glyph unicode="&#x2008;" horiz-adv-x="285" />
<glyph unicode="&#x2009;" horiz-adv-x="456" />
<glyph unicode="&#x200a;" horiz-adv-x="126" />
<glyph unicode="&#x2010;" horiz-adv-x="728" d="M22 798q0 34 22 62q12 14 28 24q16 8 38 12q92 6 204 10q102 2 184 2h16q48 0 86 -2q36 0 56 -4q24 -30 32 -84q2 -12 2 -22q0 -38 -20 -60q-34 24 -142 18q-106 -6 -218 -18q-60 -6 -114 -12q-56 -6 -94 -8q-60 0 -76 52q-4 16 -4 30z" />
<glyph unicode="&#x2011;" horiz-adv-x="728" d="M22 798q0 34 22 62q12 14 28 24q16 8 38 12q92 6 204 10q102 2 184 2h16q48 0 86 -2q36 0 56 -4q24 -30 32 -84q2 -12 2 -22q0 -38 -20 -60q-34 24 -142 18q-106 -6 -218 -18q-60 -6 -114 -12q-56 -6 -94 -8q-60 0 -76 52q-4 16 -4 30z" />
<glyph unicode="&#x2012;" horiz-adv-x="728" d="M22 798q0 34 22 62q12 14 28 24q16 8 38 12q92 6 204 10q102 2 184 2h16q48 0 86 -2q36 0 56 -4q24 -30 32 -84q2 -12 2 -22q0 -38 -20 -60q-34 24 -142 18q-106 -6 -218 -18q-60 -6 -114 -12q-56 -6 -94 -8q-60 0 -76 52q-4 16 -4 30z" />
<glyph unicode="&#x2013;" horiz-adv-x="1024" d="M16 702q-2 34 22 60q10 14 26 24t38 12q56 4 156 4h212q168 -2 318 -2q150 -2 180 4q24 -28 32 -82q2 -12 2 -24q0 -38 -22 -60q-10 8 -40 12t-72 6q-80 2 -194 -2q-112 -4 -224 -12q-116 -8 -214 -14q-96 -8 -140 -10q-62 0 -76 54q-4 14 -4 30z" />
<glyph unicode="&#x2014;" horiz-adv-x="1460" d="M36 626q0 34 22 62q12 14 28 24q16 8 36 12q44 2 132 2h64q140 0 306 -4l176 -4q90 0 172 -2q154 -4 264 -4q112 0 130 4q24 -30 32 -84q2 -12 2 -22q0 -38 -22 -60q-22 16 -174 20q-150 2 -342 0q-152 -4 -308 -8q-154 -6 -268 -10q-60 -4 -104 -6t-66 -2q-62 0 -76 52 q-4 16 -4 30z" />
<glyph unicode="&#x2019;" horiz-adv-x="344" d="M48 1864q36 22 90 24q16 0 34 -2q78 -8 140 -94q-4 -104 -28 -184q-26 -78 -66 -148q-24 -28 -50 -36q-10 -2 -20 -2h-2q-40 0 -58 52q-10 28 -14 68t-2 82q0 78 2 150t-26 90z" />
<glyph unicode="&#x201c;" horiz-adv-x="662" d="M36 1534q4 106 24 202t62 164q22 28 48 28q10 0 20 -4q38 -18 58 -40q10 -26 14 -60t4 -68v-124q2 -58 36 -80q-28 -72 -94 -90q-10 -2 -24 -4h-16q-76 0 -132 76zM352 1578q2 104 28 184q24 80 66 150q30 36 70 36h2q38 0 56 -52q12 -28 14 -68q4 -38 4 -80 q-2 -80 -2 -152q-2 -72 24 -90q-34 -22 -90 -22q-16 0 -32 2q-78 8 -140 92z" />
<glyph unicode="&#x201d;" horiz-adv-x="654" d="M24 1840q36 22 90 22h34q78 -8 140 -94q-4 -104 -28 -184t-66 -150q-22 -26 -48 -34q-10 -2 -22 -2h-2q-40 0 -56 52q-12 28 -16 68q-2 38 -2 80q0 80 2 152t-26 90zM336 1794q34 86 120 94h16q74 0 130 -76q-2 -106 -22 -202q-22 -96 -62 -164q-24 -28 -48 -28 q-10 0 -22 4q-36 18 -56 40q-22 50 -18 118q4 70 0 124q-4 30 -10 54q-8 24 -28 36z" />
<glyph unicode="&#x202f;" horiz-adv-x="456" />
<glyph unicode="&#x205f;" horiz-adv-x="570" />
<glyph unicode="&#x2122;" horiz-adv-x="1404" d="M54 1714v8q0 42 36 44q44 -4 92 -6q48 -4 96 -6q88 -6 158 -8q70 -4 82 2q24 -12 18 -40q-8 -28 -40 -30q-22 -4 -62 -8q-42 -2 -70 -6q4 -66 8 -164q4 -96 10 -198q8 -152 18 -276q12 -126 30 -136q0 -20 -8 -34t-22 -20q-6 -4 -12 -6q-12 -4 -26 -4q-26 0 -60 14 q-60 26 -70 62q-8 30 -12 82q-4 50 -6 116q-2 118 4 268q4 148 8 288q-20 -2 -60 -8q-42 -4 -72 -2q-34 18 -40 68zM438 1552q10 56 62 102q52 48 78 -10q12 -26 22 -72t14 -88q4 14 32 84q30 78 82 122q16 14 36 22q14 6 28 6h10q22 -4 40 -16q16 -12 30 -30 q38 -56 46 -136t6 -94q12 22 48 94q36 74 96 108q24 16 54 18t64 -16q46 -22 52 -120q6 -96 -2 -212q-10 -142 -16 -270t42 -144q16 -4 24 2t12 12q6 -14 6 -30q2 -34 -22 -80q-32 -58 -84 -58q-10 0 -20 2q-42 8 -70 32q-28 26 -44 64q-26 62 -30 148q-4 84 4 172 q10 130 30 236q18 104 4 108q-24 8 -50 -38q-26 -48 -44 -116q-10 -34 -16 -72q-8 -38 -8 -72q-4 -54 -74 -76q-70 -24 -82 22q4 34 6 78q4 44 4 90q2 86 -6 156q-6 70 -34 74q-36 6 -88 -86q-52 -94 -50 -132q8 -96 24 -224q14 -128 2 -212q-14 -20 -64 -32q-50 -10 -88 14 q-18 10 -28 26q-12 18 -16 44q-2 24 2 104t6 174q4 114 -2 214q-4 100 -28 108z" />
<glyph unicode="&#x25fc;" horiz-adv-x="1050" d="M0 0v1050h1050v-1050h-1050z" />
</font>
</defs>
</svg>
